Vesper Libre-Bold.ufo
<glyph name="exclam" format="1">
  <advance width="660"/>
  <unicode hex="0021"/>
  <outline>
    <contour>
      <point x="481" y="466" type="line"/>
      <point x="481" y="1384" type="line"/>
      <point x="128" y="1384" type="line"/>
      <point x="128" y="1213"/>
      <point x="142" y="754"/>
      <point x="164" y="515" type="curve"/>
    </contour>
    <contour>
      <point x="298" y="367"/>
      <point x="235" y="322"/>
      <point x="189" y="269" type="curve" smooth="yes"/>
      <point x="156" y="231"/>
      <point x="126" y="189"/>
      <point x="126" y="165" type="curve" smooth="yes"/>
      <point x="126" y="130"/>
      <point x="181" y="57"/>
      <point x="237" y="11" type="curve" smooth="yes"/>
      <point x="272" y="-18"/>
      <point x="304" y="-41"/>
      <point x="327" y="-41" type="curve" smooth="yes"/>
      <point x="364" y="-41"/>
      <point x="424" y="9"/>
      <point x="474" y="60" type="curve" smooth="yes"/>
      <point x="508" y="94"/>
      <point x="534" y="137"/>
      <point x="534" y="163" type="curve" smooth="yes"/>
      <point x="534" y="195"/>
      <point x="480" y="267"/>
      <point x="426" y="313" type="curve" smooth="yes"/>
      <point x="390" y="344"/>
      <point x="356" y="367"/>
      <point x="333" y="367" type="curve" smooth="yes"/>
    </contour>
  </outline>
</glyph>
<glyph name="percent" format="1">
  <advance width="1544"/>
  <unicode hex="0025"/>
  <outline>
    <contour>
      <point x="577" y="684"/>
      <point x="718" y="848"/>
      <point x="718" y="1044" type="curve" smooth="yes"/>
      <point x="718" y="1237"/>
      <point x="571" y="1370"/>
      <point x="398" y="1370" type="curve" smooth="yes"/>
      <point x="199" y="1370"/>
      <point x="60" y="1204"/>
      <point x="60" y="1009" type="curve" smooth="yes"/>
      <point x="60" y="816"/>
      <point x="207" y="684"/>
      <point x="383" y="684" type="curve" smooth="yes"/>
    </contour>
    <contour>
      <point x="311" y="873"/>
      <point x="258" y="960"/>
      <point x="258" y="1051" type="curve" smooth="yes"/>
      <point x="258" y="1118"/>
      <point x="298" y="1185"/>
      <point x="373" y="1185" type="curve" smooth="yes"/>
      <point x="465" y="1185"/>
      <point x="521" y="1104"/>
      <point x="521" y="1010" type="curve" smooth="yes"/>
      <point x="521" y="937"/>
      <point x="475" y="873"/>
      <point x="406" y="873" type="curve" smooth="yes"/>
    </contour>
    <contour>
      <point x="1345" y="-4"/>
      <point x="1486" y="160"/>
      <point x="1486" y="356" type="curve" smooth="yes"/>
      <point x="1486" y="549"/>
      <point x="1339" y="682"/>
      <point x="1166" y="682" type="curve" smooth="yes"/>
      <point x="967" y="682"/>
      <point x="828" y="516"/>
      <point x="828" y="322" type="curve" smooth="yes"/>
      <point x="828" y="128"/>
      <point x="975" y="-4"/>
      <point x="1151" y="-4" type="curve" smooth="yes"/>
    </contour>
    <contour>
      <point x="1079" y="185"/>
      <point x="1026" y="272"/>
      <point x="1026" y="363" type="curve" smooth="yes"/>
      <point x="1026" y="430"/>
      <point x="1066" y="497"/>
      <point x="1140" y="497" type="curve" smooth="yes"/>
      <point x="1233" y="497"/>
      <point x="1289" y="416"/>
      <point x="1289" y="321" type="curve" smooth="yes"/>
      <point x="1289" y="249"/>
      <point x="1243" y="185"/>
      <point x="1174" y="185" type="curve" smooth="yes"/>
    </contour>
    <component base="fraction" xOffset="580"/>
  </outline>
</glyph>
<glyph name="parenleft" format="1">
  <advance width="622"/>
  <unicode hex="0028"/>
  <outline>
    <contour>
      <point x="54" y="226"/>
      <point x="195" y="-111"/>
      <point x="490" y="-323" type="curve"/>
      <point x="623" y="-284" type="line"/>
      <point x="423" y="-27"/>
      <point x="318" y="232"/>
      <point x="318" y="578" type="curve" smooth="yes"/>
      <point x="318" y="907"/>
      <point x="426" y="1195"/>
      <point x="624" y="1442" type="curve"/>
      <point x="493" y="1482" type="line"/>
      <point x="199" y="1272"/>
      <point x="54" y="907"/>
      <point x="54" y="578" type="curve" smooth="yes"/>
    </contour>
  </outline>
</glyph>
<glyph name="period" format="1">
  <advance width="622"/>
  <unicode hex="002E"/>
  <outline>
    <contour>
      <point x="369" y="-59"/>
      <point x="533" y="96"/>
      <point x="533" y="164" type="curve" smooth="yes"/>
      <point x="533" y="220"/>
      <point x="384" y="387"/>
      <point x="314" y="387" type="curve" smooth="yes"/>
      <point x="249" y="387"/>
      <point x="87" y="229"/>
      <point x="87" y="166" type="curve" smooth="yes"/>
      <point x="87" y="106"/>
      <point x="240" y="-59"/>
      <point x="307" y="-59" type="curve" smooth="yes"/>
    </contour>
  </outline>
</glyph>
<glyph name="one" format="1">
  <advance width="1018"/>
  <unicode hex="0031"/>
  <outline>
    <contour>
      <point x="363" y="971" type="line"/>
      <point x="363" y="144" type="line"/>
      <point x="142" y="85" type="line"/>
      <point x="123" y="0" type="line"/>
      <point x="860" y="0" type="line"/>
      <point x="884" y="100" type="line"/>
      <point x="703" y="145" type="line"/>
      <point x="703" y="1205" type="line"/>
      <point x="135" y="1074" type="line"/>
      <point x="117" y="971" type="line"/>
    </contour>
  </outline>
</glyph>
<glyph name="three" format="1">
  <advance width="1183"/>
  <unicode hex="0033"/>
  <outline>
    <contour>
      <point x="1060" y="1092" type="line"/>
      <point x="1026" y="1193" type="line"/>
      <point x="335" y="1187" type="line"/>
      <point x="144" y="1198" type="line"/>
      <point x="131" y="867" type="line"/>
      <point x="261" y="848" type="line"/>
      <point x="330" y="1026" type="line"/>
      <point x="488" y="1033"/>
      <point x="615" y="1046"/>
      <point x="778" y="1069" type="curve"/>
      <point x="363" y="666" type="line"/>
      <point x="341" y="579" type="line"/>
      <point x="497" y="579"/>
      <point x="677" y="535"/>
      <point x="677" y="373" type="curve" smooth="yes"/>
      <point x="677" y="147"/>
      <point x="378" y="70"/>
      <point x="167" y="22" type="curve"/>
      <point x="184" y="-65" type="line"/>
      <point x="541" y="-60"/>
      <point x="1033" y="-12"/>
      <point x="1033" y="369" type="curve" smooth="yes"/>
      <point x="1033" y="561"/>
      <point x="847" y="648"/>
      <point x="692" y="653" type="curve"/>
    </contour>
  </outline>
</glyph>
<glyph name="six" format="1">
  <advance width="1248"/>
  <unicode hex="0036"/>
  <outline>
    <contour>
      <point x="453" y="277"/>
      <point x="440" y="371"/>
      <point x="440" y="499" type="curve" smooth="yes"/>
      <point x="440" y="810"/>
      <point x="658" y="1038"/>
      <point x="964" y="1222" type="curve"/>
      <point x="837" y="1258" type="line"/>
      <point x="431" y="1171"/>
      <point x="92" y="881"/>
      <point x="92" y="491" type="curve" smooth="yes"/>
      <point x="92" y="174"/>
      <point x="266" y="-33"/>
      <point x="630" y="-33" type="curve" smooth="yes"/>
      <point x="880" y="-33"/>
      <point x="1125" y="99"/>
      <point x="1125" y="401" type="curve" smooth="yes"/>
      <point x="1125" y="601"/>
      <point x="964" y="734"/>
      <point x="738" y="734" type="curve" smooth="yes"/>
      <point x="690" y="734"/>
      <point x="617" y="718"/>
      <point x="576" y="695" type="curve"/>
      <point x="558" y="632" type="line"/>
      <point x="743" y="596"/>
      <point x="787" y="482"/>
      <point x="787" y="322" type="curve" smooth="yes"/>
      <point x="787" y="178"/>
      <point x="771" y="127"/>
      <point x="747" y="103" type="curve" smooth="yes"/>
      <point x="724" y="79"/>
      <point x="702" y="75"/>
      <point x="665" y="75" type="curve" smooth="yes"/>
      <point x="581" y="75"/>
      <point x="523" y="137"/>
      <point x="490" y="203" type="curve" smooth="yes"/>
    </contour>
  </outline>
</glyph>
<glyph name="nine" format="1">
  <advance width="1266"/>
  <unicode hex="0039"/>
  <outline>
    <contour>
      <point x="218" y="-66" type="line"/>
      <point x="508" y="-66"/>
      <point x="735" y="-16"/>
      <point x="935" y="164" type="curve" smooth="yes"/>
      <point x="1108" y="319"/>
      <point x="1152" y="505"/>
      <point x="1152" y="719" type="curve" smooth="yes"/>
      <point x="1152" y="1013"/>
      <point x="975" y="1212"/>
      <point x="598" y="1212" type="curve" smooth="yes"/>
      <point x="282" y="1212"/>
      <point x="117" y="1089"/>
      <point x="117" y="852" type="curve" smooth="yes"/>
      <point x="117" y="750"/>
      <point x="153" y="662"/>
      <point x="208" y="611" type="curve" smooth="yes"/>
      <point x="281" y="543"/>
      <point x="394" y="518"/>
      <point x="513" y="518" type="curve" smooth="yes"/>
      <point x="563" y="518"/>
      <point x="620" y="519"/>
      <point x="649" y="525" type="curve"/>
      <point x="632" y="606" type="line"/>
      <point x="566" y="617"/>
      <point x="530" y="638"/>
      <point x="510" y="667" type="curve" smooth="yes"/>
      <point x="472" y="721"/>
      <point x="463" y="801"/>
      <point x="463" y="903" type="curve" smooth="yes"/>
      <point x="463" y="994"/>
      <point x="475" y="1065"/>
      <point x="509" y="1089" type="curve" smooth="yes"/>
      <point x="528" y="1102"/>
      <point x="549" y="1107"/>
      <point x="576" y="1107" type="curve" smooth="yes"/>
      <point x="634" y="1107"/>
      <point x="673" y="1086"/>
      <point x="702" y="1050" type="curve" smooth="yes"/>
      <point x="768" y="969"/>
      <point x="791" y="824"/>
      <point x="791" y="726" type="curve" smooth="yes"/>
      <point x="791" y="438"/>
      <point x="665" y="180"/>
      <point x="200" y="23" type="curve"/>
    </contour>
  </outline>
</glyph>
<glyph name="Q" format="1">
  <advance width="1542"/>
  <unicode hex="0051"/>
  <outline>
    <contour>
      <point x="1103" y="132" type="line"/>
      <point x="791" y="8" type="line"/>
      <point x="952" y="-212"/>
      <point x="1217" y="-325"/>
      <point x="1430" y="-325" type="curve"/>
      <point x="1464" y="-259" type="line"/>
    </contour>
    <component base="O"/>
  </outline>
</glyph>
<glyph name="R" format="1">
  <advance width="1512"/>
  <unicode hex="0052"/>
  <outline>
    <contour>
      <point x="69" y="83" type="line"/>
      <point x="52" y="0" type="line"/>
      <point x="783" y="0" type="line"/>
      <point x="809" y="94" type="line"/>
      <point x="616" y="176" type="line"/>
      <point x="616" y="1304" type="line"/>
      <point x="783" y="1295"/>
      <point x="986" y="1213"/>
      <point x="986" y="1022" type="curve" smooth="yes"/>
      <point x="986" y="895"/>
      <point x="911" y="761"/>
      <point x="731" y="686" type="curve"/>
      <point x="1011" y="87" type="line"/>
      <point x="991" y="0" type="line"/>
      <point x="1508" y="0" type="line"/>
      <point x="1526" y="79" type="line"/>
      <point x="1347" y="171" type="line"/>
      <point x="1084" y="679" type="line"/>
      <point x="1247" y="735"/>
      <point x="1357" y="843"/>
      <point x="1357" y="1007" type="curve" smooth="yes"/>
      <point x="1357" y="1140"/>
      <point x="1299" y="1226"/>
      <point x="1214" y="1283" type="curve" smooth="yes"/>
      <point x="1088" y="1367"/>
      <point x="901" y="1384"/>
      <point x="750" y="1384" type="curve" smooth="yes"/>
      <point x="77" y="1384" type="line"/>
      <point x="60" y="1303" type="line"/>
      <point x="247" y="1221" type="line"/>
      <point x="247" y="164" type="line"/>
    </contour>
    <contour>
      <point x="679" y="1384" type="move" name="top"/>
    </contour>
    <contour>
      <point x="777" y="0" type="move" name="bottom"/>
    </contour>
  </outline>
</glyph>
<glyph name="T" format="1">
  <advance width="1464"/>
  <unicode hex="0054"/>
  <outline>
    <contour>
      <point x="339" y="89" type="line"/>
      <point x="320" y="0" type="line"/>
      <point x="1129" y="0" type="line"/>
      <point x="1147" y="89" type="line"/>
      <point x="909" y="168" type="line"/>
      <point x="909" y="1289" type="line"/>
      <point x="1193" y="1237" type="line"/>
      <point x="1307" y="984" type="line"/>
      <point x="1457" y="1008" type="line"/>
      <point x="1410" y="1399" type="line"/>
      <point x="1281" y="1384" type="line"/>
      <point x="215" y="1384" type="line"/>
      <point x="81" y="1394" type="line"/>
      <point x="-1" y="1010" type="line"/>
      <point x="141" y="987" type="line"/>
      <point x="272" y="1238" type="line"/>
      <point x="549" y="1289" type="line"/>
      <point x="549" y="169" type="line"/>
    </contour>
    <contour>
      <point x="733" y="692" type="move" name="center"/>
    </contour>
    <contour>
      <point x="729" y="0" type="move" name="bottom"/>
    </contour>
    <contour>
      <point x="733" y="1384" type="move" name="top"/>
    </contour>
  </outline>
</glyph>
<glyph name="Z" format="1">
  <advance width="1321"/>
  <unicode hex="005A"/>
  <outline>
    <contour>
      <point x="1009" y="172" type="line"/>
      <point x="447" y="116" type="line"/>
      <point x="1253" y="1262" type="line"/>
      <point x="1214" y="1384" type="line"/>
      <point x="379" y="1384" type="line"/>
      <point x="129" y="1394" type="line"/>
      <point x="90" y="1035" type="line"/>
      <point x="235" y="1017" type="line"/>
      <point x="339" y="1232" type="line"/>
      <point x="845" y="1277" type="line"/>
      <point x="46" y="150" type="line"/>
      <point x="98" y="0" type="line"/>
      <point x="1186" y="0" type="line"/>
      <point x="1266" y="367" type="line"/>
      <point x="1135" y="385" type="line"/>
    </contour>
    <contour>
      <point x="682" y="1384" type="move" name="top"/>
    </contour>
    <contour>
      <point x="626" y="0" type="move" name="bottom"/>
    </contour>
  </outline>
</glyph>
<glyph name="backslash" format="1">
  <advance width="968"/>
  <unicode hex="005C"/>
  <outline>
    <contour>
      <point x="67" y="1447" type="line"/>
      <point x="658" y="-21" type="line"/>
      <point x="888" y="22" type="line"/>
      <point x="295" y="1494" type="line"/>
    </contour>
  </outline>
</glyph>
<glyph name="c" format="1">
  <advance width="965"/>
  <unicode hex="0063"/>
  <outline>
    <contour>
      <point x="607" y="702" type="line"/>
      <point x="637" y="663"/>
      <point x="697" y="621"/>
      <point x="732" y="621" type="curve" smooth="yes"/>
      <point x="777" y="621"/>
      <point x="935" y="760"/>
      <point x="935" y="825" type="curve" smooth="yes"/>
      <point x="935" y="849"/>
      <point x="877" y="900"/>
      <point x="817" y="928" type="curve" smooth="yes"/>
      <point x="743" y="963"/>
      <point x="672" y="975"/>
      <point x="589" y="975" type="curve" smooth="yes"/>
      <point x="301" y="975"/>
      <point x="51" y="772"/>
      <point x="51" y="470" type="curve" smooth="yes"/>
      <point x="51" y="154"/>
      <point x="244" y="-25"/>
      <point x="552" y="-25" type="curve" smooth="yes"/>
      <point x="740" y="-25"/>
      <point x="881" y="67"/>
      <point x="939" y="150" type="curve"/>
      <point x="923" y="180" type="line"/>
      <point x="895" y="175"/>
      <point x="725" y="152"/>
      <point x="645" y="152" type="curve" smooth="yes"/>
      <point x="567" y="152"/>
      <point x="512" y="190"/>
      <point x="459" y="267" type="curve" smooth="yes"/>
      <point x="407" y="342"/>
      <point x="385" y="419"/>
      <point x="385" y="530" type="curve" smooth="yes"/>
      <point x="385" y="605"/>
      <point x="401" y="714"/>
      <point x="451" y="794" type="curve" smooth="yes"/>
      <point x="479" y="840"/>
      <point x="517" y="876"/>
      <point x="568" y="892" type="curve"/>
    </contour>
    <contour>
      <point x="517" y="950" type="move" name="top"/>
    </contour>
    <contour>
      <point x="546" y="0" type="move" name="bottom"/>
    </contour>
  </outline>
</glyph>
<glyph name="p" format="1">
  <advance width="1230"/>
  <unicode hex="0070"/>
  <outline>
    <contour>
      <point x="508" y="-335" type="line"/>
      <point x="508" y="76" type="line"/>
      <point x="562" y="6"/>
      <point x="662" y="-25"/>
      <point x="758" y="-25" type="curve" smooth="yes"/>
      <point x="841" y="-25"/>
      <point x="915" y="2"/>
      <point x="973" y="46" type="curve" smooth="yes"/>
      <point x="1096" y="139"/>
      <point x="1167" y="315"/>
      <point x="1167" y="498" type="curve" smooth="yes"/>
      <point x="1167" y="796"/>
      <point x="1038" y="975"/>
      <point x="827" y="975" type="curve" smooth="yes"/>
      <point x="699" y="975"/>
      <point x="583" y="900"/>
      <point x="491" y="828" type="curve"/>
      <point x="413" y="960" type="line"/>
      <point x="35" y="909" type="line"/>
      <point x="27" y="860" type="line"/>
      <point x="164" y="767" type="line"/>
      <point x="164" y="-325" type="line"/>
      <point x="33" y="-401" type="line"/>
      <point x="18" y="-475" type="line"/>
      <point x="771" y="-475" type="line"/>
      <point x="785" y="-410" type="line"/>
    </contour>
    <contour>
      <point x="540" y="772"/>
      <point x="631" y="784"/>
      <point x="670" y="784" type="curve" smooth="yes"/>
      <point x="706" y="784"/>
      <point x="729" y="773"/>
      <point x="755" y="732" type="curve" smooth="yes"/>
      <point x="815" y="638"/>
      <point x="828" y="515"/>
      <point x="828" y="404" type="curve" smooth="yes"/>
      <point x="828" y="327"/>
      <point x="819" y="253"/>
      <point x="798" y="196" type="curve" smooth="yes"/>
      <point x="780" y="148"/>
      <point x="748" y="144"/>
      <point x="702" y="144" type="curve" smooth="yes"/>
      <point x="637" y="144"/>
      <point x="568" y="147"/>
      <point x="508" y="157" type="curve"/>
      <point x="508" y="690" type="line" smooth="yes"/>
      <point x="508" y="706"/>
      <point x="508" y="736"/>
      <point x="507" y="758" type="curve"/>
    </contour>
  </outline>
</glyph>
<glyph name="ordfeminine" format="1">
  <advance width="1144"/>
  <unicode hex="00AA"/>
  <outline>
    <contour>
      <point x="530" y="600"/>
      <point x="630" y="677"/>
      <point x="668" y="728" type="curve"/>
      <point x="712" y="705"/>
      <point x="746" y="654"/>
      <point x="777" y="599" type="curve"/>
      <point x="875" y="599"/>
      <point x="970" y="627"/>
      <point x="1023" y="651" type="curve"/>
      <point x="1040" y="710" type="line"/>
      <point x="967" y="722"/>
      <point x="933" y="745"/>
      <point x="910" y="781" type="curve"/>
      <point x="910" y="1192" type="line" smooth="yes"/>
      <point x="910" y="1321"/>
      <point x="836" y="1419"/>
      <point x="622" y="1419" type="curve" smooth="yes"/>
      <point x="490" y="1419"/>
      <point x="408" y="1412"/>
      <point x="297" y="1383" type="curve" smooth="yes"/>
      <point x="236" y="1367"/>
      <point x="156" y="1331"/>
      <point x="156" y="1304" type="curve" smooth="yes"/>
      <point x="156" y="1262"/>
      <point x="291" y="1128"/>
      <point x="336" y="1128" type="curve" smooth="yes"/>
      <point x="364" y="1128"/>
      <point x="419" y="1175"/>
      <point x="447" y="1205" type="curve"/>
      <point x="466" y="1333" type="line"/>
      <point x="475" y="1336"/>
      <point x="485" y="1338"/>
      <point x="495" y="1338" type="curve" smooth="yes"/>
      <point x="526" y="1338"/>
      <point x="559" y="1332"/>
      <point x="579" y="1313" type="curve"/>
      <point x="624" y="1278"/>
      <point x="635" y="1195"/>
      <point x="635" y="1072" type="curve"/>
      <point x="623" y="1077"/>
      <point x="564" y="1084"/>
      <point x="537" y="1084" type="curve" smooth="yes"/>
      <point x="471" y="1084"/>
      <point x="338" y="1080"/>
      <point x="263" y="1051" type="curve"/>
      <point x="177" y="1010"/>
      <point x="134" y="946"/>
      <point x="134" y="831" type="curve" smooth="yes"/>
      <point x="134" y="732"/>
      <point x="206" y="600"/>
      <point x="386" y="600" type="curve" smooth="yes"/>
    </contour>
    <contour>
      <point x="436" y="782"/>
      <point x="416" y="842"/>
      <point x="416" y="889" type="curve" smooth="yes"/>
      <point x="416" y="911"/>
      <point x="418" y="927"/>
      <point x="428" y="940" type="curve"/>
      <point x="444" y="957"/>
      <point x="504" y="978"/>
      <point x="635" y="992" type="curve"/>
      <point x="635" y="779" type="line"/>
      <point x="602" y="770"/>
      <point x="526" y="759"/>
      <point x="476" y="759" type="curve" smooth="yes"/>
      <point x="469" y="759"/>
      <point x="461" y="760"/>
      <point x="456" y="764" type="curve"/>
    </contour>
    <contour>
      <point x="127" y="306" type="line"/>
      <point x="335" y="306"/>
      <point x="715" y="313"/>
      <point x="1013" y="330" type="curve"/>
      <point x="1046" y="489" type="line"/>
      <point x="159" y="489" type="line"/>
    </contour>
  </outline>
</glyph>
<glyph name="guillemotleft" format="1">
  <advance width="1015"/>
  <unicode hex="00AB"/>
  <outline>
    <contour>
      <point x="456" y="633"/>
      <point x="556" y="780"/>
      <point x="595" y="874" type="curve"/>
      <point x="472" y="955" type="line"/>
      <point x="10" y="461" type="line"/>
      <point x="474" y="-33" type="line"/>
      <point x="596" y="49" type="line"/>
      <point x="550" y="145"/>
      <point x="450" y="300"/>
      <point x="330" y="461" type="curve"/>
    </contour>
    <contour>
      <point x="862" y="582"/>
      <point x="926" y="687"/>
      <point x="959" y="758" type="curve"/>
      <point x="835" y="840" type="line"/>
      <point x="483" y="461" type="line"/>
      <point x="837" y="81" type="line"/>
      <point x="960" y="166" type="line"/>
      <point x="922" y="237"/>
      <point x="862" y="346"/>
      <point x="783" y="461" type="curve"/>
    </contour>
  </outline>
</glyph>
<glyph name="macron" format="1">
  <advance width="1024"/>
  <unicode hex="00AF"/>
  <outline>
    <contour>
      <point x="177" y="1131" type="line"/>
      <point x="373" y="1130"/>
      <point x="617" y="1134"/>
      <point x="813" y="1143" type="curve"/>
      <point x="850" y="1335" type="line"/>
      <point x="216" y="1335" type="line"/>
    </contour>
    <contour>
      <point x="516" y="950" type="move" name="lc-top"/>
    </contour>
    <contour>
      <point x="512" y="950" type="move" name="_top"/>
    </contour>
  </outline>
</glyph>
<glyph name="degree" format="1">
  <advance width="888"/>
  <unicode hex="00B0"/>
  <outline>
    <contour>
      <point x="657" y="819"/>
      <point x="810" y="971"/>
      <point x="810" y="1183" type="curve" smooth="yes"/>
      <point x="810" y="1387"/>
      <point x="638" y="1519"/>
      <point x="455" y="1519" type="curve" smooth="yes"/>
      <point x="225" y="1519"/>
      <point x="78" y="1361"/>
      <point x="78" y="1152" type="curve" smooth="yes"/>
      <point x="78" y="948"/>
      <point x="244" y="819"/>
      <point x="439" y="819" type="curve" smooth="yes"/>
    </contour>
    <contour>
      <point x="358" y="1030"/>
      <point x="312" y="1105"/>
      <point x="312" y="1184" type="curve" smooth="yes"/>
      <point x="312" y="1252"/>
      <point x="358" y="1312"/>
      <point x="428" y="1312" type="curve" smooth="yes"/>
      <point x="520" y="1312"/>
      <point x="573" y="1238"/>
      <point x="573" y="1153" type="curve" smooth="yes"/>
      <point x="573" y="1084"/>
      <point x="528" y="1030"/>
      <point x="457" y="1030" type="curve" smooth="yes"/>
    </contour>
  </outline>
</glyph>
<glyph name="threesuperior" format="1">
  <advance width="715"/>
  <unicode hex="00B3"/>
  <outline>
    <contour>
      <point x="75" y="806" type="line"/>
      <point x="347" y="806"/>
      <point x="662" y="884"/>
      <point x="662" y="1148" type="curve" smooth="yes"/>
      <point x="662" y="1247"/>
      <point x="591" y="1331"/>
      <point x="457" y="1346" type="curve"/>
      <point x="681" y="1623" type="line"/>
      <point x="657" y="1708" type="line"/>
      <point x="29" y="1708" type="line"/>
      <point x="62" y="1550" type="line"/>
      <point x="129" y="1550"/>
      <point x="299" y="1562"/>
      <point x="442" y="1575" type="curve"/>
      <point x="180" y="1344" type="line"/>
      <point x="170" y="1266" type="line"/>
      <point x="284" y="1263"/>
      <point x="394" y="1249"/>
      <point x="394" y="1134" type="curve" smooth="yes"/>
      <point x="394" y="992"/>
      <point x="176" y="937"/>
      <point x="40" y="916" type="curve"/>
    </contour>
  </outline>
</glyph>
<glyph name="onequarter" format="1">
  <advance width="1889"/>
  <unicode hex="00BC"/>
  <outline>
    <contour>
      <point x="1065" y="219" type="line"/>
      <point x="1460" y="219" type="line"/>
      <point x="1460" y="-69" type="line"/>
      <point x="1716" y="-33" type="line"/>
      <point x="1716" y="219" type="line"/>
      <point x="1807" y="219" type="line"/>
      <point x="1824" y="372" type="line"/>
      <point x="1710" y="369" type="line"/>
      <point x="1710" y="477" type="line"/>
      <point x="1480" y="439" type="line"/>
      <point x="1480" y="356" type="line"/>
      <point x="1305" y="346" type="line"/>
      <point x="1664" y="831" type="line"/>
      <point x="1393" y="873" type="line"/>
      <point x="1034" y="296" type="line"/>
    </contour>
    <component base="onesuperior" yOffset="-324"/>
    <component base="fraction" xOffset="688"/>
  </outline>
</glyph>
<glyph name="Oslash" format="1">
  <advance width="1542"/>
  <unicode hex="00D8"/>
  <outline>
    <contour>
      <point x="1265" y="1475" type="line"/>
      <point x="1037" y="1523" type="line"/>
      <point x="984" y="1400" type="line"/>
      <point x="930" y="1412"/>
      <point x="874" y="1419"/>
      <point x="816" y="1419" type="curve" smooth="yes"/>
      <point x="325" y="1419"/>
      <point x="69" y="1041"/>
      <point x="69" y="623" type="curve" smooth="yes"/>
      <point x="69" y="349"/>
      <point x="200" y="148"/>
      <point x="400" y="45" type="curve"/>
      <point x="318" y="-145" type="line"/>
      <point x="548" y="-190" type="line"/>
      <point x="619" y="-26" type="line"/>
      <point x="660" y="-32"/>
      <point x="702" y="-35"/>
      <point x="745" y="-35" type="curve" smooth="yes"/>
      <point x="1198" y="-35"/>
      <point x="1473" y="335"/>
      <point x="1473" y="762" type="curve" smooth="yes"/>
      <point x="1473" y="1012"/>
      <point x="1361" y="1201"/>
      <point x="1194" y="1310" type="curve"/>
    </contour>
    <contour>
      <point x="452" y="900"/>
      <point x="474" y="1144"/>
      <point x="550" y="1218" type="curve"/>
      <point x="587" y="1260"/>
      <point x="656" y="1264"/>
      <point x="705" y="1264" type="curve" smooth="yes"/>
      <point x="772" y="1264"/>
      <point x="843" y="1248"/>
      <point x="905" y="1216" type="curve"/>
      <point x="510" y="300" type="line"/>
      <point x="452" y="423"/>
      <point x="452" y="586"/>
      <point x="452" y="766" type="curve"/>
    </contour>
    <contour>
      <point x="974" y="131"/>
      <point x="897" y="120"/>
      <point x="840" y="120" type="curve" smooth="yes"/>
      <point x="789" y="120"/>
      <point x="738" y="128"/>
      <point x="692" y="144" type="curve"/>
      <point x="1065" y="1010" type="line"/>
      <point x="1090" y="908"/>
      <point x="1090" y="777"/>
      <point x="1090" y="617" type="curve" smooth="yes"/>
      <point x="1090" y="487"/>
      <point x="1061" y="262"/>
      <point x="1011" y="187" type="curve" smooth="yes"/>
    </contour>
    <contour>
      <point x="698" y="1384" type="move" name="top"/>
    </contour>
  </outline>
</glyph>
<glyph name="eth" format="1">
  <advance width="1182"/>
  <unicode hex="00F0"/>
  <outline>
    <contour>
      <point x="788" y="1314" type="line"/>
      <point x="932" y="1392" type="line"/>
      <point x="859" y="1551" type="line"/>
      <point x="631" y="1411" type="line"/>
      <point x="514" y="1466"/>
      <point x="382" y="1500"/>
      <point x="297" y="1500" type="curve"/>
      <point x="97" y="1433" type="line"/>
      <point x="213" y="1393"/>
      <point x="320" y="1345"/>
      <point x="415" y="1285" type="curve"/>
      <point x="233" y="1185" type="line"/>
      <point x="291" y="1022" type="line"/>
      <point x="550" y="1180" type="line"/>
      <point x="625" y="1111"/>
      <point x="686" y="1030"/>
      <point x="729" y="933" type="curve"/>
      <point x="673" y="954"/>
      <point x="591" y="959"/>
      <point x="534" y="959" type="curve" smooth="yes"/>
      <point x="273" y="959"/>
      <point x="48" y="751"/>
      <point x="48" y="468" type="curve" smooth="yes"/>
      <point x="48" y="128"/>
      <point x="287" y="-26"/>
      <point x="584" y="-26" type="curve" smooth="yes"/>
      <point x="928" y="-26"/>
      <point x="1109" y="262"/>
      <point x="1109" y="532" type="curve" smooth="yes"/>
      <point x="1109" y="912"/>
      <point x="972" y="1149"/>
      <point x="801" y="1303" type="curve" smooth="yes"/>
    </contour>
    <contour>
      <point x="707" y="127"/>
      <point x="681" y="126"/>
      <point x="646" y="126" type="curve" smooth="yes"/>
      <point x="460" y="126"/>
      <point x="388" y="364"/>
      <point x="388" y="554" type="curve" smooth="yes"/>
      <point x="388" y="644"/>
      <point x="399" y="766"/>
      <point x="434" y="801" type="curve"/>
      <point x="446" y="814"/>
      <point x="472" y="823"/>
      <point x="509" y="823" type="curve" smooth="yes"/>
      <point x="660" y="823"/>
      <point x="770" y="678"/>
      <point x="770" y="396" type="curve" smooth="yes"/>
      <point x="770" y="329"/>
      <point x="758" y="182"/>
      <point x="725" y="146" type="curve" smooth="yes"/>
    </contour>
  </outline>
</glyph>
<glyph name="aogonek" format="1">
  <advance width="1145"/>
  <unicode hex="0105"/>
  <outline>
    <contour>
      <point x="51" y="125"/>
      <point x="129" y="-25"/>
      <point x="331" y="-25" type="curve" smooth="yes"/>
      <point x="533" y="-25"/>
      <point x="593" y="41"/>
      <point x="665" y="132" type="curve"/>
      <point x="720" y="112"/>
      <point x="772" y="55"/>
      <point x="801" y="20" type="curve"/>
      <point x="666" y="-32"/>
      <point x="502" y="-135"/>
      <point x="502" y="-277" type="curve" smooth="yes"/>
      <point x="502" y="-440"/>
      <point x="635" y="-504"/>
      <point x="765" y="-504" type="curve" smooth="yes"/>
      <point x="883" y="-504"/>
      <point x="993" y="-450"/>
      <point x="1075" y="-352" type="curve"/>
      <point x="1046" y="-307" type="line"/>
      <point x="984" y="-336"/>
      <point x="910" y="-355"/>
      <point x="870" y="-355" type="curve" smooth="yes"/>
      <point x="858" y="-355"/>
      <point x="846" y="-352"/>
      <point x="836" y="-347" type="curve" smooth="yes"/>
      <point x="795" y="-327"/>
      <point x="771" y="-273"/>
      <point x="771" y="-226" type="curve" smooth="yes"/>
      <point x="771" y="-125"/>
      <point x="919" y="-22"/>
      <point x="1140" y="32" type="curve"/>
      <point x="1156" y="94" type="line"/>
      <point x="1076" y="114"/>
      <point x="1012" y="147"/>
      <point x="982" y="202" type="curve"/>
      <point x="982" y="674" type="line" smooth="yes"/>
      <point x="982" y="846"/>
      <point x="899" y="975"/>
      <point x="659" y="975" type="curve" smooth="yes"/>
      <point x="582" y="975"/>
      <point x="394" y="968"/>
      <point x="248" y="923" type="curve" smooth="yes"/>
      <point x="191" y="905"/>
      <point x="84" y="858"/>
      <point x="84" y="825" type="curve" smooth="yes"/>
      <point x="84" y="757"/>
      <point x="245" y="621"/>
      <point x="290" y="621" type="curve" smooth="yes"/>
      <point x="314" y="621"/>
      <point x="375" y="659"/>
      <point x="412" y="702" type="curve"/>
      <point x="439" y="868" type="line"/>
      <point x="451" y="872"/>
      <point x="467" y="875"/>
      <point x="483" y="875" type="curve" smooth="yes"/>
      <point x="517" y="875"/>
      <point x="553" y="867"/>
      <point x="574" y="851" type="curve" smooth="yes"/>
      <point x="632" y="805"/>
      <point x="638" y="671"/>
      <point x="638" y="585" type="curve" smooth="yes"/>
      <point x="638" y="531" type="line"/>
      <point x="576" y="542"/>
      <point x="491" y="547"/>
      <point x="418" y="547" type="curve" smooth="yes"/>
      <point x="345" y="547"/>
      <point x="269" y="538"/>
      <point x="204" y="509" type="curve" smooth="yes"/>
      <point x="96" y="461"/>
      <point x="51" y="365"/>
      <point x="51" y="241" type="curve" smooth="yes"/>
    </contour>
    <contour>
      <point x="405" y="184"/>
      <point x="386" y="249"/>
      <point x="386" y="301" type="curve" smooth="yes"/>
      <point x="386" y="323"/>
      <point x="388" y="363"/>
      <point x="398" y="380" type="curve" smooth="yes"/>
      <point x="407" y="396"/>
      <point x="491" y="432"/>
      <point x="638" y="463" type="curve"/>
      <point x="638" y="165" type="line"/>
      <point x="594" y="151"/>
      <point x="505" y="135"/>
      <point x="454" y="135" type="curve" smooth="yes"/>
      <point x="443" y="135"/>
      <point x="432" y="140"/>
      <point x="426" y="150" type="curve" smooth="yes"/>
    </contour>
  </outline>
</glyph>
<glyph name="dcroat" format="1">
  <advance width="1243"/>
  <unicode hex="0111"/>
  <outline>
    <contour>
      <point x="903" y="1067" type="line"/>
      <point x="1227" y="1062" type="line"/>
      <point x="1259" y="1219" type="line"/>
      <point x="901" y="1210" type="line"/>
      <point x="527" y="1220" type="line"/>
      <point x="490" y="1062" type="line"/>
    </contour>
    <component base="d" xOffset="-10"/>
  </outline>
</glyph>
<glyph name="Uogonek" format="1">
  <advance width="1602"/>
  <unicode hex="0172"/>
  <outline>
    <contour>
      <point x="571" y="1210" type="line"/>
      <point x="764" y="1283" type="line"/>
      <point x="783" y="1384" type="line"/>
      <point x="48" y="1384" type="line"/>
      <point x="31" y="1304" type="line"/>
      <point x="202" y="1221" type="line"/>
      <point x="202" y="469" type="line" smooth="yes"/>
      <point x="202" y="134"/>
      <point x="393" y="-35"/>
      <point x="773" y="-35" type="curve" smooth="yes"/>
      <point x="796" y="-35"/>
      <point x="822" y="-34"/>
      <point x="844" y="-32" type="curve"/>
      <point x="807" y="-53"/>
      <point x="770" y="-79"/>
      <point x="738" y="-109" type="curve" smooth="yes"/>
      <point x="690" y="-154"/>
      <point x="655" y="-209"/>
      <point x="655" y="-277" type="curve" smooth="yes"/>
      <point x="655" y="-440"/>
      <point x="788" y="-504"/>
      <point x="918" y="-504" type="curve" smooth="yes"/>
      <point x="1036" y="-504"/>
      <point x="1146" y="-450"/>
      <point x="1228" y="-353" type="curve"/>
      <point x="1199" y="-305" type="line"/>
      <point x="1147" y="-333"/>
      <point x="1063" y="-355"/>
      <point x="1023" y="-355" type="curve" smooth="yes"/>
      <point x="1011" y="-355"/>
      <point x="1000" y="-352"/>
      <point x="989" y="-347" type="curve" smooth="yes"/>
      <point x="948" y="-327"/>
      <point x="924" y="-273"/>
      <point x="924" y="-226" type="curve" smooth="yes"/>
      <point x="924" y="-129"/>
      <point x="1059" y="-24"/>
      <point x="1185" y="60" type="curve" smooth="yes"/>
      <point x="1349" y="170"/>
      <point x="1413" y="309"/>
      <point x="1413" y="529" type="curve" smooth="yes"/>
      <point x="1413" y="1217" type="line"/>
      <point x="1566" y="1301" type="line"/>
      <point x="1581" y="1384" type="line"/>
      <point x="1015" y="1384" type="line"/>
      <point x="998" y="1304" type="line"/>
      <point x="1193" y="1221" type="line"/>
      <point x="1193" y="477" type="line" smooth="yes"/>
      <point x="1193" y="277"/>
      <point x="1128" y="159"/>
      <point x="920" y="159" type="curve" smooth="yes"/>
      <point x="683" y="159"/>
      <point x="571" y="318"/>
      <point x="571" y="536" type="curve" smooth="yes"/>
    </contour>
  </outline>
</glyph>
<glyph name="pi" format="1">
  <advance width="1554"/>
  <unicode hex="03C0"/>
  <outline>
    <contour>
      <point x="1419" y="737" type="line"/>
      <point x="1472" y="950" type="line"/>
      <point x="126" y="950" type="line"/>
      <point x="69" y="737" type="line"/>
      <point x="304" y="737" type="line"/>
      <point x="215" y="-19" type="line"/>
      <point x="586" y="14" type="line"/>
      <point x="621" y="737" type="line"/>
      <point x="854" y="737" type="line"/>
      <point x="842" y="561"/>
      <point x="822" y="218"/>
      <point x="822" y="182" type="curve" smooth="yes"/>
      <point x="822" y="95"/>
      <point x="849" y="-31"/>
      <point x="1012" y="-31" type="curve" smooth="yes"/>
      <point x="1124" y="-31"/>
      <point x="1234" y="-8"/>
      <point x="1385" y="32" type="curve"/>
      <point x="1393" y="110" type="line"/>
      <point x="1213" y="110"/>
      <point x="1166" y="125"/>
      <point x="1166" y="214" type="curve" smooth="yes"/>
      <point x="1166" y="737" type="line"/>
    </contour>
  </outline>
</glyph>
<glyph name="candrabindudeva" format="1">
  <advance width="512"/>
  <unicode hex="0901"/>
  <note>
    dCandrabindu
  </note>
  <outline>
    <component base="ecandravowelsigndeva" xOffset="62"/>
    <component base="anusvaradeva" xOffset="6" yOffset="294" xScale="0.971" yScale="0.971"/>
    <contour>
      <point x="256" y="1187" type="move" name="_top"/>
    </contour>
  </outline>
</glyph>
<glyph name="ideva" format="1">
  <advance width="1137"/>
  <unicode hex="0907"/>
  <note>
    dI
  </note>
  <outline>
    <contour>
      <point x="720" y="589"/>
      <point x="563" y="535"/>
      <point x="477" y="535" type="curve" smooth="yes"/>
      <point x="455" y="535"/>
      <point x="442" y="535"/>
      <point x="433" y="548" type="curve"/>
      <point x="426" y="567"/>
      <point x="422" y="589"/>
      <point x="422" y="610" type="curve" smooth="yes"/>
      <point x="422" y="650"/>
      <point x="431" y="694"/>
      <point x="544" y="694" type="curve" smooth="yes"/>
      <point x="940" y="694" type="line"/>
      <point x="941" y="734"/>
      <point x="941" y="754"/>
      <point x="941" y="776" type="curve"/>
      <point x="940" y="838"/>
      <point x="935" y="912"/>
      <point x="921" y="998" type="curve"/>
      <point x="1189" y="998" type="line"/>
      <point x="1143" y="1187" type="line"/>
      <point x="-52" y="1187" type="line"/>
      <point x="-3" y="998" type="line"/>
      <point x="642" y="998" type="line"/>
      <point x="645" y="978"/>
      <point x="647" y="959"/>
      <point x="647" y="939" type="curve" smooth="yes"/>
      <point x="647" y="917"/>
      <point x="645" y="895"/>
      <point x="640" y="874" type="curve"/>
      <point x="377" y="874" type="line" smooth="yes"/>
      <point x="272" y="874"/>
      <point x="122" y="846"/>
      <point x="122" y="674" type="curve" smooth="yes"/>
      <point x="122" y="570"/>
      <point x="279" y="312"/>
      <point x="569" y="312" type="curve" smooth="yes"/>
      <point x="663" y="312"/>
      <point x="779" y="360"/>
      <point x="820" y="360" type="curve" smooth="yes"/>
      <point x="823" y="360"/>
      <point x="824" y="343"/>
      <point x="824" y="336" type="curve" smooth="yes"/>
      <point x="824" y="234"/>
      <point x="624" y="196"/>
      <point x="502" y="196" type="curve" smooth="yes"/>
      <point x="460" y="196"/>
      <point x="408" y="202"/>
      <point x="383" y="213" type="curve"/>
      <point x="340" y="278"/>
      <point x="287" y="348"/>
      <point x="248" y="348" type="curve" smooth="yes"/>
      <point x="166" y="348"/>
      <point x="60" y="205"/>
      <point x="60" y="131" type="curve"/>
      <point x="64" y="72"/>
      <point x="185" y="0"/>
      <point x="353" y="-25" type="curve"/>
      <point x="479" y="-263"/>
      <point x="571" y="-353"/>
      <point x="743" y="-353" type="curve" smooth="yes"/>
      <point x="804" y="-353"/>
      <point x="875" y="-336"/>
      <point x="937" y="-296" type="curve"/>
      <point x="836" y="-88" type="line"/>
      <point x="788" y="-113"/>
      <point x="755" y="-124"/>
      <point x="710" y="-124" type="curve" smooth="yes"/>
      <point x="626" y="-124"/>
      <point x="563" y="-103"/>
      <point x="506" y="-35" type="curve"/>
      <point x="843" y="-31"/>
      <point x="1071" y="48"/>
      <point x="1071" y="312" type="curve" smooth="yes"/>
      <point x="1071" y="437"/>
      <point x="948" y="589"/>
      <point x="831" y="589" type="curve" smooth="yes"/>
    </contour>
    <contour>
      <point x="764" y="1187" type="move" name="top"/>
    </contour>
  </outline>
</glyph>
<glyph name="uudeva" format="1">
  <advance width="1501"/>
  <unicode hex="090A"/>
  <note>
    dUu
  </note>
  <outline>
    <contour>
      <point x="1025" y="677"/>
      <point x="939" y="636"/>
      <point x="861" y="558" type="curve"/>
      <point x="849" y="565"/>
      <point x="836" y="572"/>
      <point x="824" y="578" type="curve"/>
      <point x="890" y="633"/>
      <point x="933" y="705"/>
      <point x="933" y="790" type="curve" smooth="yes"/>
      <point x="933" y="851"/>
      <point x="910" y="927"/>
      <point x="855" y="998" type="curve"/>
      <point x="1553" y="998" type="line"/>
      <point x="1507" y="1187" type="line"/>
      <point x="-52" y="1187" type="line"/>
      <point x="-2" y="998" type="line"/>
      <point x="649" y="998" type="line"/>
      <point x="673" y="952"/>
      <point x="687" y="911"/>
      <point x="687" y="865" type="curve" smooth="yes"/>
      <point x="687" y="762"/>
      <point x="562" y="700"/>
      <point x="345" y="674" type="curve"/>
      <point x="468" y="453" type="line"/>
      <point x="562" y="456"/>
      <point x="659" y="481"/>
      <point x="739" y="522" type="curve"/>
      <point x="774" y="477"/>
      <point x="792" y="426"/>
      <point x="792" y="385" type="curve" smooth="yes"/>
      <point x="792" y="295"/>
      <point x="721" y="209"/>
      <point x="592" y="209" type="curve" smooth="yes"/>
      <point x="473" y="209"/>
      <point x="287" y="266"/>
      <point x="148" y="515" type="curve"/>
      <point x="36" y="448" type="line"/>
      <point x="203" y="131"/>
      <point x="423" y="-29"/>
      <point x="699" y="-29" type="curve" smooth="yes"/>
      <point x="885" y="-29"/>
      <point x="1078" y="57"/>
      <point x="1078" y="277" type="curve" smooth="yes"/>
      <point x="1078" y="318"/>
      <point x="1066" y="357"/>
      <point x="1045" y="393" type="curve"/>
      <point x="1079" y="439"/>
      <point x="1127" y="495"/>
      <point x="1209" y="524" type="curve" smooth="yes"/>
      <point x="1235" y="533"/>
      <point x="1255" y="535"/>
      <point x="1271" y="530" type="curve"/>
      <point x="1275" y="529"/>
      <point x="1281" y="519"/>
      <point x="1281" y="490" type="curve" smooth="yes"/>
      <point x="1279" y="405"/>
      <point x="1230" y="315"/>
      <point x="1112" y="200" type="curve"/>
      <point x="1341" y="36" type="line"/>
      <point x="1443" y="139"/>
      <point x="1466" y="255"/>
      <point x="1466" y="350" type="curve" smooth="yes"/>
      <point x="1466" y="518"/>
      <point x="1281" y="677"/>
      <point x="1124" y="677" type="curve" smooth="yes"/>
    </contour>
    <contour>
      <point x="729" y="1187" type="move" name="top"/>
    </contour>
  </outline>
</glyph>
<glyph name="ocandradeva" format="1">
  <advance width="2079"/>
  <unicode hex="0911"/>
  <note>
    dCandraO
  </note>
  <outline>
    <component base="aadeva"/>
    <component base="ecandravowelsigndeva" xOffset="1523"/>
    <contour>
      <point x="1721" y="1397" type="move" name="top"/>
    </contour>
  </outline>
</glyph>
<glyph name="ghadeva" format="1">
  <advance width="1383"/>
  <unicode hex="0918"/>
  <note>
    dGha
  </note>
  <outline>
    <contour>
      <point x="1387" y="1187" type="line"/>
      <point x="-52" y="1187" type="line"/>
      <point x="-1" y="998" type="line"/>
      <point x="129" y="998" type="line"/>
      <point x="115" y="968"/>
      <point x="109" y="935"/>
      <point x="112" y="900" type="curve" smooth="yes"/>
      <point x="119" y="817"/>
      <point x="201" y="759"/>
      <point x="311" y="697" type="curve"/>
      <point x="236" y="645"/>
      <point x="187" y="575"/>
      <point x="187" y="490" type="curve" smooth="yes"/>
      <point x="187" y="229"/>
      <point x="514" y="74"/>
      <point x="695" y="74" type="curve" smooth="yes"/>
      <point x="777" y="74"/>
      <point x="847" y="88"/>
      <point x="955" y="143" type="curve"/>
      <point x="955" y="-43" type="line"/>
      <point x="1253" y="-100" type="line"/>
      <point x="1253" y="998" type="line"/>
      <point x="1435" y="998" type="line"/>
    </contour>
    <contour>
      <point x="955" y="537" type="line"/>
      <point x="910" y="430"/>
      <point x="710" y="265"/>
      <point x="546" y="265" type="curve" smooth="yes"/>
      <point x="521" y="265"/>
      <point x="486" y="264"/>
      <point x="474" y="275" type="curve" smooth="yes"/>
      <point x="462" y="286"/>
      <point x="447" y="315"/>
      <point x="447" y="355" type="curve" smooth="yes"/>
      <point x="447" y="470"/>
      <point x="602" y="519"/>
      <point x="782" y="542" type="curve"/>
      <point x="666" y="805" type="line"/>
      <point x="585" y="802"/>
      <point x="503" y="786"/>
      <point x="431" y="759" type="curve"/>
      <point x="410" y="790"/>
      <point x="397" y="824"/>
      <point x="397" y="863" type="curve" smooth="yes"/>
      <point x="397" y="943"/>
      <point x="461" y="998"/>
      <point x="553" y="998" type="curve" smooth="yes"/>
      <point x="955" y="998" type="line"/>
    </contour>
    <contour>
      <point x="254" y="-50" type="move" name="nukta"/>
    </contour>
    <contour>
      <point x="1104" y="0" type="move" name="bottom"/>
    </contour>
    <contour>
      <point x="1104" y="1187" type="move" name="top"/>
    </contour>
  </outline>
</glyph>
<glyph name="chadeva" format="1">
  <advance width="1418"/>
  <unicode hex="091B"/>
  <note>
    dCha
  </note>
  <outline>
    <contour>
      <point x="1171" y="843"/>
      <point x="1172" y="855"/>
      <point x="1172" y="867" type="curve" smooth="yes"/>
      <point x="1173" y="912"/>
      <point x="1159" y="958"/>
      <point x="1142" y="998" type="curve"/>
      <point x="1470" y="998" type="line"/>
      <point x="1426" y="1187" type="line"/>
      <point x="-52" y="1187" type="line"/>
      <point x="-1" y="998" type="line"/>
      <point x="92" y="998" type="line"/>
      <point x="83" y="976"/>
      <point x="79" y="952"/>
      <point x="79" y="925" type="curve" smooth="yes"/>
      <point x="79" y="833"/>
      <point x="148" y="747"/>
      <point x="300" y="698" type="curve"/>
      <point x="188" y="639"/>
      <point x="102" y="544"/>
      <point x="102" y="401" type="curve" smooth="yes"/>
      <point x="102" y="176"/>
      <point x="402" y="-56"/>
      <point x="713" y="-56" type="curve" smooth="yes"/>
      <point x="1086" y="-56"/>
      <point x="1357" y="155"/>
      <point x="1357" y="482" type="curve" smooth="yes"/>
      <point x="1357" y="622"/>
      <point x="1282" y="755"/>
      <point x="1170" y="831" type="curve"/>
    </contour>
    <contour>
      <point x="522" y="128"/>
      <point x="455" y="135"/>
      <point x="432" y="148" type="curve" smooth="yes"/>
      <point x="420" y="155"/>
      <point x="389" y="209"/>
      <point x="389" y="293" type="curve" smooth="yes"/>
      <point x="389" y="419"/>
      <point x="461" y="479"/>
      <point x="668" y="508" type="curve"/>
      <point x="582" y="772" type="line"/>
      <point x="527" y="768"/>
      <point x="468" y="758"/>
      <point x="411" y="741" type="curve"/>
      <point x="384" y="778"/>
      <point x="372" y="823"/>
      <point x="372" y="866" type="curve" smooth="yes"/>
      <point x="372" y="935"/>
      <point x="414" y="998"/>
      <point x="508" y="998" type="curve" smooth="yes"/>
      <point x="952" y="998" type="line"/>
      <point x="952" y="983" type="line" smooth="yes"/>
      <point x="952" y="958"/>
      <point x="947" y="927"/>
      <point x="938" y="897" type="curve"/>
      <point x="820" y="886"/>
      <point x="712" y="792"/>
      <point x="712" y="670" type="curve" smooth="yes"/>
      <point x="712" y="530"/>
      <point x="801" y="433"/>
      <point x="1040" y="363" type="curve"/>
      <point x="953" y="225"/>
      <point x="785" y="128"/>
      <point x="565" y="128" type="curve" smooth="yes"/>
    </contour>
    <contour>
      <point x="1068" y="767"/>
      <point x="1077" y="765"/>
      <point x="1083" y="759" type="curve" smooth="yes"/>
      <point x="1092" y="750"/>
      <point x="1108" y="693"/>
      <point x="1108" y="595" type="curve" smooth="yes"/>
      <point x="1108" y="544"/>
      <point x="1099" y="495"/>
      <point x="1082" y="448" type="curve"/>
      <point x="996" y="502"/>
      <point x="965" y="570"/>
      <point x="965" y="651" type="curve" smooth="yes"/>
      <point x="965" y="713"/>
      <point x="1000" y="767"/>
      <point x="1055" y="767" type="curve" smooth="yes"/>
    </contour>
    <contour>
      <point x="153" y="-100" type="move" name="nukta"/>
    </contour>
    <contour>
      <point x="840" y="-50" type="move" name="bottom"/>
    </contour>
    <contour>
      <point x="1044" y="1187" type="move" name="top"/>
    </contour>
  </outline>
</glyph>
<glyph name="ttadeva" format="1">
  <advance width="1213"/>
  <unicode hex="091F"/>
  <note>
    dTta
  </note>
  <outline>
    <contour>
      <point x="404" y="222"/>
      <point x="384" y="282"/>
      <point x="384" y="396" type="curve" smooth="yes"/>
      <point x="384" y="516"/>
      <point x="455" y="603"/>
      <point x="640" y="603" type="curve" smooth="yes"/>
      <point x="972" y="603" type="line"/>
      <point x="982" y="664"/>
      <point x="985" y="717"/>
      <point x="985" y="768" type="curve" smooth="yes"/>
      <point x="985" y="840"/>
      <point x="975" y="910"/>
      <point x="959" y="998" type="curve"/>
      <point x="1265" y="998" type="line"/>
      <point x="1220" y="1187" type="line"/>
      <point x="-52" y="1187" type="line"/>
      <point x="0" y="998" type="line"/>
      <point x="678" y="998" type="line"/>
      <point x="679" y="980"/>
      <point x="680" y="957"/>
      <point x="680" y="931" type="curve" smooth="yes"/>
      <point x="680" y="880"/>
      <point x="676" y="831"/>
      <point x="665" y="793" type="curve"/>
      <point x="505" y="793" type="line" smooth="yes"/>
      <point x="147" y="793"/>
      <point x="95" y="622"/>
      <point x="95" y="473" type="curve" smooth="yes"/>
      <point x="95" y="201"/>
      <point x="363" y="-15"/>
      <point x="690" y="-15" type="curve" smooth="yes"/>
      <point x="886" y="-15"/>
      <point x="1036" y="40"/>
      <point x="1166" y="175" type="curve"/>
      <point x="978" y="402" type="line"/>
      <point x="820" y="227"/>
      <point x="678" y="167"/>
      <point x="557" y="167" type="curve" smooth="yes"/>
      <point x="493" y="167"/>
      <point x="432" y="182"/>
      <point x="424" y="193" type="curve" smooth="yes"/>
    </contour>
    <contour>
      <point x="107" y="-40" type="move" name="nukta"/>
    </contour>
    <contour>
      <point x="774" y="10" type="move" name="bottom"/>
    </contour>
    <contour>
      <point x="819" y="1187" type="move" name="top"/>
    </contour>
  </outline>
</glyph>
<glyph name="dhadeva" format="1">
  <advance width="1437"/>
  <unicode hex="0927"/>
  <note>
    dDha
  </note>
  <outline>
    <contour>
      <point x="1443" y="1187" type="line"/>
      <point x="819" y="1187" type="line"/>
      <point x="868" y="998" type="line"/>
      <point x="925" y="998" type="line"/>
      <point x="925" y="537" type="line"/>
      <point x="881" y="423"/>
      <point x="740" y="281"/>
      <point x="545" y="281" type="curve" smooth="yes"/>
      <point x="519" y="281"/>
      <point x="474" y="287"/>
      <point x="470" y="296" type="curve"/>
      <point x="464" y="306"/>
      <point x="451" y="340"/>
      <point x="451" y="397" type="curve" smooth="yes"/>
      <point x="451" y="495"/>
      <point x="535" y="571"/>
      <point x="750" y="572" type="curve"/>
      <point x="648" y="815" type="line"/>
      <point x="531" y="815"/>
      <point x="451" y="799"/>
      <point x="388" y="770" type="curve"/>
      <point x="361" y="809"/>
      <point x="355" y="848"/>
      <point x="355" y="886" type="curve" smooth="yes"/>
      <point x="355" y="978"/>
      <point x="428" y="1037"/>
      <point x="533" y="1037" type="curve" smooth="yes"/>
      <point x="578" y="1037"/>
      <point x="628" y="1023"/>
      <point x="695" y="996" type="curve"/>
      <point x="611" y="1200" type="line"/>
      <point x="537" y="1241"/>
      <point x="460" y="1250"/>
      <point x="406" y="1250" type="curve" smooth="yes"/>
      <point x="232" y="1250"/>
      <point x="70" y="1167"/>
      <point x="70" y="996" type="curve" smooth="yes"/>
      <point x="70" y="871"/>
      <point x="153" y="776"/>
      <point x="298" y="713" type="curve"/>
      <point x="217" y="645"/>
      <point x="188" y="554"/>
      <point x="188" y="490" type="curve" smooth="yes"/>
      <point x="188" y="253"/>
      <point x="484" y="103"/>
      <point x="658" y="103" type="curve" smooth="yes"/>
      <point x="755" y="103"/>
      <point x="842" y="112"/>
      <point x="925" y="160" type="curve"/>
      <point x="925" y="-42" type="line"/>
      <point x="1223" y="-100" type="line"/>
      <point x="1223" y="998" type="line"/>
      <point x="1489" y="998" type="line"/>
    </contour>
    <contour>
      <point x="243" y="0" type="move" name="nukta"/>
    </contour>
    <contour>
      <point x="1074" y="0" type="move" name="bottom"/>
    </contour>
    <contour>
      <point x="1074" y="1187" type="move" name="top"/>
    </contour>
  </outline>
</glyph>
<glyph name="madeva" format="1">
  <advance width="1339"/>
  <unicode hex="092E"/>
  <note>
    dMa
  </note>
  <outline>
    <contour>
      <point x="547" y="130"/>
      <point x="560" y="277"/>
      <point x="560" y="366" type="curve"/>
      <point x="908" y="366" type="line"/>
      <point x="908" y="-42" type="line"/>
      <point x="1204" y="-95" type="line"/>
      <point x="1204" y="998" type="line"/>
      <point x="1391" y="998" type="line"/>
      <point x="1343" y="1187" type="line"/>
      <point x="-52" y="1187" type="line"/>
      <point x="0" y="998" type="line"/>
      <point x="275" y="998" type="line"/>
      <point x="275" y="576" type="line"/>
      <point x="266" y="576" type="line" smooth="yes"/>
      <point x="209" y="576"/>
      <point x="81" y="569"/>
      <point x="81" y="515" type="curve" smooth="yes"/>
      <point x="81" y="374"/>
      <point x="326" y="130"/>
      <point x="477" y="130" type="curve" smooth="yes"/>
    </contour>
    <contour>
      <point x="908" y="576" type="line"/>
      <point x="562" y="576" type="line"/>
      <point x="562" y="998" type="line"/>
      <point x="908" y="998" type="line"/>
    </contour>
    <contour>
      <point x="294" y="-110" type="move" name="nukta"/>
    </contour>
    <contour>
      <point x="1056" y="0" type="move" name="bottom"/>
    </contour>
    <contour>
      <point x="1056" y="1187" type="move" name="top"/>
    </contour>
  </outline>
</glyph>
<glyph name="vadeva" format="1">
  <advance width="1186"/>
  <unicode hex="0935"/>
  <note>
    dVa
  </note>
  <outline>
    <contour>
      <point x="1191" y="1187" type="line"/>
      <point x="-52" y="1187" type="line"/>
      <point x="-3" y="998" type="line"/>
      <point x="726" y="998" type="line"/>
      <point x="726" y="736" type="line"/>
      <point x="558" y="835"/>
      <point x="478" y="846"/>
      <point x="374" y="846" type="curve" smooth="yes"/>
      <point x="170" y="846"/>
      <point x="30" y="729"/>
      <point x="30" y="532" type="curve" smooth="yes"/>
      <point x="30" y="315"/>
      <point x="317" y="130"/>
      <point x="519" y="130" type="curve" smooth="yes"/>
      <point x="565" y="130"/>
      <point x="641" y="131"/>
      <point x="726" y="164" type="curve"/>
      <point x="726" y="-42" type="line"/>
      <point x="1023" y="-98" type="line"/>
      <point x="1023" y="998" type="line"/>
      <point x="1238" y="998" type="line"/>
    </contour>
    <contour>
      <point x="391" y="309"/>
      <point x="383" y="313"/>
      <point x="376" y="327" type="curve" smooth="yes"/>
      <point x="361" y="359"/>
      <point x="351" y="410"/>
      <point x="351" y="463" type="curve" smooth="yes"/>
      <point x="351" y="572"/>
      <point x="394" y="644"/>
      <point x="536" y="644" type="curve" smooth="yes"/>
      <point x="602" y="644"/>
      <point x="669" y="627"/>
      <point x="726" y="599" type="curve"/>
      <point x="726" y="470" type="line"/>
      <point x="634" y="356"/>
      <point x="475" y="309"/>
      <point x="408" y="309" type="curve" smooth="yes"/>
    </contour>
    <contour>
      <point x="171" y="-40" type="move" name="nukta"/>
    </contour>
    <contour>
      <point x="875" y="0" type="move" name="bottom"/>
    </contour>
    <contour>
      <point x="875" y="1187" type="move" name="top"/>
    </contour>
  </outline>
</glyph>
<glyph name="uni093E" format="1">
  <advance width="610"/>
  <unicode hex="093E"/>
  <note>
    dMatraAa
  </note>
  <outline>
    <contour>
      <point x="161" y="998" type="line"/>
      <point x="161" y="-42" type="line"/>
      <point x="458" y="-92" type="line"/>
      <point x="458" y="998" type="line"/>
      <point x="662" y="998" type="line"/>
      <point x="616" y="1187" type="line"/>
      <point x="-43" y="1187" type="line"/>
      <point x="6" y="998" type="line"/>
    </contour>
    <contour>
      <point x="310" y="1187" type="move" name="top"/>
    </contour>
    <contour>
      <point x="310" y="0" type="move" name="bottom"/>
    </contour>
  </outline>
</glyph>
<glyph name="uuvowelsigndeva" format="1">
  <advance width="512"/>
  <unicode hex="0942"/>
  <note>
    dMatraUu
  </note>
  <outline>
    <contour>
      <point x="33" y="30"/>
      <point x="-80" y="-98"/>
      <point x="-80" y="-231" type="curve" smooth="yes"/>
      <point x="-80" y="-419"/>
      <point x="110" y="-562"/>
      <point x="268" y="-562" type="curve" smooth="yes"/>
      <point x="335" y="-562"/>
      <point x="395" y="-548"/>
      <point x="457" y="-503" type="curve"/>
      <point x="376" y="-305" type="line"/>
      <point x="307" y="-351"/>
      <point x="256" y="-368"/>
      <point x="202" y="-368" type="curve" smooth="yes"/>
      <point x="157" y="-368"/>
      <point x="121" y="-360"/>
      <point x="112" y="-354" type="curve" smooth="yes"/>
      <point x="103" y="-348"/>
      <point x="98" y="-311"/>
      <point x="98" y="-292" type="curve" smooth="yes"/>
      <point x="98" y="-220"/>
      <point x="166" y="-187"/>
      <point x="266" y="-187" type="curve" smooth="yes"/>
      <point x="400" y="-187"/>
      <point x="540" y="-298"/>
      <point x="688" y="-496" type="curve"/>
      <point x="771" y="-433" type="line"/>
      <point x="759" y="-401"/>
      <point x="706" y="-305"/>
      <point x="669" y="-251" type="curve" smooth="yes"/>
      <point x="569" y="-107"/>
      <point x="427" y="30"/>
      <point x="239" y="30" type="curve" smooth="yes"/>
    </contour>
    <contour>
      <point x="256" y="0" type="move" name="_bottom"/>
    </contour>
  </outline>
</glyph>
<glyph name="rrvocalicvowelsigndeva" format="1">
  <advance width="512"/>
  <unicode hex="0944"/>
  <note>
    dMatraVocalicRr
  </note>
  <outline>
    <contour>
      <point x="728" y="-685" type="line"/>
      <point x="591" y="-808"/>
      <point x="522" y="-844"/>
      <point x="427" y="-844" type="curve" smooth="yes"/>
      <point x="395" y="-844"/>
      <point x="357" y="-831"/>
      <point x="350" y="-821" type="curve" smooth="yes"/>
      <point x="342" y="-809"/>
      <point x="332" y="-780"/>
      <point x="332" y="-743" type="curve" smooth="yes"/>
      <point x="332" y="-675"/>
      <point x="409" y="-630"/>
      <point x="517" y="-577" type="curve" smooth="yes"/>
      <point x="577" y="-547"/>
      <point x="642" y="-517"/>
      <point x="686" y="-495" type="curve"/>
      <point x="573" y="-298" type="line"/>
      <point x="430" y="-390"/>
      <point x="309" y="-444"/>
      <point x="247" y="-444" type="curve" smooth="yes"/>
      <point x="215" y="-444"/>
      <point x="187" y="-431"/>
      <point x="180" y="-421" type="curve" smooth="yes"/>
      <point x="172" y="-409"/>
      <point x="162" y="-380"/>
      <point x="162" y="-343" type="curve" smooth="yes"/>
      <point x="162" y="-247"/>
      <point x="303" y="-184"/>
      <point x="509" y="-183" type="curve"/>
      <point x="440" y="25" type="line"/>
      <point x="256" y="26"/>
      <point x="0" y="-23"/>
      <point x="0" y="-237" type="curve" smooth="yes"/>
      <point x="0" y="-359"/>
      <point x="76" y="-481"/>
      <point x="196" y="-546" type="curve"/>
      <point x="180" y="-573"/>
      <point x="170" y="-603"/>
      <point x="170" y="-637" type="curve" smooth="yes"/>
      <point x="170" y="-814"/>
      <point x="332" y="-992"/>
      <point x="578" y="-996" type="curve" smooth="yes"/>
      <point x="674" y="-997"/>
      <point x="743" y="-984"/>
      <point x="865" y="-878" type="curve"/>
    </contour>
    <contour>
      <point x="256" y="0" type="move" name="_bottom"/>
    </contour>
  </outline>
</glyph>
<glyph name="uni094E" format="1">
  <advance width="599"/>
  <unicode hex="094E"/>
  <outline>
    <contour>
      <point x="161" y="1187" type="line"/>
      <point x="161" y="-19" type="line" smooth="yes"/>
      <point x="161" y="-30"/>
      <point x="162" y="-39"/>
      <point x="174" y="-44" type="curve"/>
      <point x="390" y="-87"/>
      <point x="427" y="-92"/>
      <point x="445" y="-92" type="curve" smooth="yes"/>
      <point x="452" y="-92"/>
      <point x="458" y="-88"/>
      <point x="458" y="-75" type="curve" smooth="yes"/>
      <point x="458" y="998" type="line"/>
      <point x="643" y="998" type="line" smooth="yes"/>
      <point x="655" y="998"/>
      <point x="659" y="1003"/>
      <point x="659" y="1009" type="curve" smooth="yes"/>
      <point x="659" y="1015"/>
      <point x="656" y="1034"/>
      <point x="620" y="1171" type="curve"/>
      <point x="617" y="1180"/>
      <point x="613" y="1187"/>
      <point x="603" y="1187" type="curve" smooth="yes"/>
    </contour>
  </outline>
</glyph>
<glyph name="awVowel-deva" format="1">
  <advance width="600"/>
  <unicode hex="094F"/>
  <outline>
    <contour>
      <point x="602" y="1187" type="line"/>
      <point x="391" y="1187" type="line"/>
      <point x="391" y="1420"/>
      <point x="325" y="1559"/>
      <point x="204" y="1614" type="curve" smooth="yes"/>
      <point x="83" y="1670"/>
      <point x="-66" y="1667"/>
      <point x="-170" y="1706" type="curve" smooth="yes"/>
      <point x="-242" y="1731"/>
      <point x="-286" y="1757"/>
      <point x="-334" y="1863" type="curve"/>
      <point x="-455" y="1809" type="line"/>
      <point x="-455" y="1716"/>
      <point x="-420" y="1584"/>
      <point x="-298" y="1524" type="curve" smooth="yes"/>
      <point x="-180" y="1466"/>
      <point x="27" y="1462"/>
      <point x="133" y="1435" type="curve" smooth="yes"/>
      <point x="215" y="1414"/>
      <point x="276" y="1358"/>
      <point x="295" y="1216" type="curve"/>
      <point x="244" y="1334"/>
      <point x="167" y="1396"/>
      <point x="64" y="1413" type="curve" smooth="yes"/>
      <point x="-89" y="1439"/>
      <point x="-237" y="1415"/>
      <point x="-331" y="1441" type="curve" smooth="yes"/>
      <point x="-403" y="1460"/>
      <point x="-436" y="1483"/>
      <point x="-517" y="1567" type="curve"/>
      <point x="-623" y="1491" type="line"/>
      <point x="-598" y="1387"/>
      <point x="-541" y="1283"/>
      <point x="-400" y="1247" type="curve" smooth="yes"/>
      <point x="-270" y="1215"/>
      <point x="-68" y="1237"/>
      <point x="41" y="1234" type="curve" smooth="yes"/>
      <point x="118" y="1232"/>
      <point x="168" y="1220"/>
      <point x="204" y="1187" type="curve"/>
      <point x="-52" y="1187" type="line"/>
      <point x="-2" y="998" type="line"/>
      <point x="161" y="998" type="line"/>
      <point x="161" y="-42" type="line"/>
      <point x="458" y="-98" type="line"/>
      <point x="458" y="998" type="line"/>
      <point x="648" y="998" type="line"/>
    </contour>
  </outline>
</glyph>
<glyph name="uni0956" format="1">
  <advance width="0"/>
  <unicode hex="0956"/>
  <outline>
    <contour>
      <point x="-1146" y="-198" type="line"/>
      <point x="-1025" y="-405"/>
      <point x="-875" y="-475"/>
      <point x="-713" y="-476" type="curve" smooth="yes"/>
      <point x="-572" y="-477"/>
      <point x="-430" y="-414"/>
      <point x="-323" y="-257" type="curve"/>
      <point x="-473" y="-110" type="line"/>
      <point x="-577" y="-240"/>
      <point x="-687" y="-288"/>
      <point x="-782" y="-288" type="curve" smooth="yes"/>
      <point x="-871" y="-288"/>
      <point x="-960" y="-265"/>
      <point x="-1057" y="-137" type="curve"/>
    </contour>
  </outline>
</glyph>
<glyph name="llvocalicdeva" format="1">
  <advance width="1655"/>
  <unicode hex="0961"/>
  <note>
    dVocalicLl
  </note>
  <outline>
    <contour>
      <point x="1625" y="-170" type="line"/>
      <point x="1524" y="-274"/>
      <point x="1457" y="-302"/>
      <point x="1375" y="-302" type="curve" smooth="yes"/>
      <point x="1331" y="-302"/>
      <point x="1288" y="-290"/>
      <point x="1280" y="-282" type="curve" smooth="yes"/>
      <point x="1270" y="-272"/>
      <point x="1264" y="-250"/>
      <point x="1264" y="-226" type="curve" smooth="yes"/>
      <point x="1264" y="-205"/>
      <point x="1270" y="-181"/>
      <point x="1282" y="-161" type="curve"/>
      <point x="1309" y="-168"/>
      <point x="1336" y="-171"/>
      <point x="1362" y="-171" type="curve" smooth="yes"/>
      <point x="1466" y="-171"/>
      <point x="1561" y="-143"/>
      <point x="1660" y="-34" type="curve"/>
      <point x="1455" y="189" type="line"/>
      <point x="1335" y="52"/>
      <point x="1265" y="25"/>
      <point x="1203" y="25" type="curve" smooth="yes"/>
      <point x="1187" y="25"/>
      <point x="1170" y="30"/>
      <point x="1168" y="34" type="curve" smooth="yes"/>
      <point x="1164" y="42"/>
      <point x="1164" y="52"/>
      <point x="1164" y="61" type="curve" smooth="yes"/>
      <point x="1165" y="111"/>
      <point x="1204" y="163"/>
      <point x="1262" y="223" type="curve" smooth="yes"/>
      <point x="1354" y="319"/>
      <point x="1436" y="398"/>
      <point x="1436" y="502" type="curve" smooth="yes"/>
      <point x="1436" y="644"/>
      <point x="1298" y="778"/>
      <point x="1143" y="832" type="curve"/>
      <point x="1143" y="845"/>
      <point x="1143" y="859"/>
      <point x="1142" y="871" type="curve" smooth="yes"/>
      <point x="1139" y="916"/>
      <point x="1128" y="958"/>
      <point x="1111" y="998" type="curve"/>
      <point x="1705" y="998" type="line"/>
      <point x="1661" y="1187" type="line"/>
      <point x="-52" y="1187" type="line"/>
      <point x="0" y="998" type="line"/>
      <point x="921" y="998" type="line"/>
      <point x="922" y="984"/>
      <point x="922" y="971"/>
      <point x="921" y="957" type="curve" smooth="yes"/>
      <point x="919" y="921"/>
      <point x="914" y="883"/>
      <point x="903" y="847" type="curve"/>
      <point x="819" y="829"/>
      <point x="739" y="790"/>
      <point x="688" y="730" type="curve" smooth="yes"/>
      <point x="680" y="720" type="line"/>
      <point x="582" y="789"/>
      <point x="487" y="820"/>
      <point x="399" y="820" type="curve" smooth="yes"/>
      <point x="236" y="820"/>
      <point x="63" y="741"/>
      <point x="63" y="534" type="curve" smooth="yes"/>
      <point x="63" y="319"/>
      <point x="235" y="94"/>
      <point x="598" y="-99" type="curve"/>
      <point x="669" y="9" type="line"/>
      <point x="437" y="181"/>
      <point x="375" y="344"/>
      <point x="375" y="477" type="curve" smooth="yes"/>
      <point x="375" y="592"/>
      <point x="437" y="662"/>
      <point x="540" y="662" type="curve" smooth="yes"/>
      <point x="565" y="662"/>
      <point x="600" y="656"/>
      <point x="633" y="645" type="curve"/>
      <point x="603" y="584"/>
      <point x="583" y="512"/>
      <point x="576" y="438" type="curve"/>
      <point x="859" y="379" type="line"/>
      <point x="905" y="646"/>
      <point x="1006" y="720"/>
      <point x="1093" y="720" type="curve" smooth="yes"/>
      <point x="1144" y="720"/>
      <point x="1179" y="703"/>
      <point x="1190" y="690" type="curve" smooth="yes"/>
      <point x="1198" y="680"/>
      <point x="1200" y="649"/>
      <point x="1199" y="632" type="curve" smooth="yes"/>
      <point x="1196" y="562"/>
      <point x="1111" y="477"/>
      <point x="1059" y="417" type="curve" smooth="yes"/>
      <point x="987" y="334"/>
      <point x="900" y="252"/>
      <point x="900" y="181" type="curve" smooth="yes"/>
      <point x="900" y="89"/>
      <point x="986" y="-11"/>
      <point x="1095" y="-81" type="curve"/>
      <point x="1083" y="-117"/>
      <point x="1081" y="-147"/>
      <point x="1081" y="-162" type="curve" smooth="yes"/>
      <point x="1081" y="-273"/>
      <point x="1183" y="-386"/>
      <point x="1299" y="-449" type="curve" smooth="yes"/>
      <point x="1357" y="-481"/>
      <point x="1419" y="-500"/>
      <point x="1473" y="-500" type="curve" smooth="yes"/>
      <point x="1591" y="-500"/>
      <point x="1674" y="-483"/>
      <point x="1789" y="-359" type="curve"/>
    </contour>
    <contour>
      <point x="989" y="1187" type="move" name="top"/>
    </contour>
  </outline>
</glyph>
<glyph name="danda-deva" format="1">
  <advance width="702"/>
  <unicode hex="0964"/>
  <note>
    dDanda
  </note>
  <outline>
    <contour>
      <point x="200" y="1247" type="line"/>
      <point x="200" y="-167" type="line"/>
      <point x="502" y="-223" type="line"/>
      <point x="502" y="1191" type="line"/>
    </contour>
  </outline>
</glyph>
<glyph name="zerodeva" format="1">
  <advance width="1129"/>
  <unicode hex="0966"/>
  <note>
    dZero
  </note>
  <outline>
    <contour>
      <point x="244" y="1031"/>
      <point x="84" y="831"/>
      <point x="83" y="616" type="curve" smooth="yes"/>
      <point x="82" y="443"/>
      <point x="181" y="261"/>
      <point x="409" y="162" type="curve" smooth="yes"/>
      <point x="698" y="35"/>
      <point x="1033" y="188"/>
      <point x="1046" y="533" type="curve" smooth="yes"/>
      <point x="1053" y="730"/>
      <point x="945" y="831"/>
      <point x="846" y="900" type="curve" smooth="yes"/>
      <point x="730" y="980"/>
      <point x="627" y="1031"/>
      <point x="510" y="1031" type="curve" smooth="yes"/>
    </contour>
    <contour>
      <point x="795" y="841"/>
      <point x="809" y="773"/>
      <point x="809" y="694" type="curve" smooth="yes"/>
      <point x="809" y="506"/>
      <point x="662" y="245"/>
      <point x="420" y="245" type="curve" smooth="yes"/>
      <point x="401" y="245"/>
      <point x="371" y="247"/>
      <point x="356" y="261" type="curve" smooth="yes"/>
      <point x="338" y="278"/>
      <point x="324" y="364"/>
      <point x="324" y="434" type="curve" smooth="yes"/>
      <point x="324" y="692"/>
      <point x="501" y="882"/>
      <point x="703" y="877" type="curve" smooth="yes"/>
      <point x="733" y="876"/>
      <point x="761" y="870"/>
      <point x="774" y="859" type="curve" smooth="yes"/>
    </contour>
  </outline>
</glyph>
<glyph name="quotedblbase" format="1">
  <advance width="1089"/>
  <unicode hex="201E"/>
  <outline>
    <contour>
      <point x="89" y="-371" type="line"/>
      <point x="201" y="-388" type="line"/>
      <point x="385" y="-247"/>
      <point x="488" y="-61"/>
      <point x="488" y="111" type="curve" smooth="yes"/>
      <point x="488" y="182"/>
      <point x="335" y="321"/>
      <point x="266" y="321" type="curve" smooth="yes"/>
      <point x="199" y="321"/>
      <point x="61" y="157"/>
      <point x="61" y="111" type="curve" smooth="yes"/>
      <point x="61" y="69"/>
      <point x="129" y="-20"/>
      <point x="221" y="-81" type="curve"/>
    </contour>
    <contour>
      <point x="634" y="-331" type="line"/>
      <point x="746" y="-348" type="line"/>
      <point x="923" y="-227"/>
      <point x="1024" y="-34"/>
      <point x="1024" y="111" type="curve" smooth="yes"/>
      <point x="1024" y="182"/>
      <point x="871" y="321"/>
      <point x="802" y="321" type="curve" smooth="yes"/>
      <point x="735" y="321"/>
      <point x="597" y="157"/>
      <point x="597" y="111" type="curve" smooth="yes"/>
      <point x="597" y="72"/>
      <point x="665" y="-11"/>
      <point x="757" y="-66" type="curve"/>
    </contour>
  </outline>
</glyph>
<glyph name="daggerdbl" format="1">
  <advance width="962"/>
  <unicode hex="2021"/>
  <outline>
    <contour>
      <point x="620" y="573" type="line"/>
      <point x="611" y="792" type="line"/>
      <point x="847" y="799" type="line"/>
      <point x="885" y="980" type="line"/>
      <point x="610" y="980" type="line"/>
      <point x="616" y="1355" type="line"/>
      <point x="327" y="1299" type="line"/>
      <point x="334" y="980" type="line"/>
      <point x="112" y="980" type="line"/>
      <point x="79" y="775" type="line"/>
      <point x="333" y="783" type="line"/>
      <point x="324" y="579" type="line"/>
      <point x="331" y="396" type="line"/>
      <point x="112" y="396" type="line"/>
      <point x="79" y="191" type="line"/>
      <point x="334" y="199" type="line"/>
      <point x="327" y="-188" type="line"/>
      <point x="618" y="-134" type="line"/>
      <point x="610" y="208" type="line"/>
      <point x="847" y="215" type="line"/>
      <point x="885" y="396" type="line"/>
      <point x="613" y="396" type="line"/>
    </contour>
  </outline>
</glyph>
<glyph name="Ohm" format="1">
  <advance width="1797"/>
  <unicode hex="2126"/>
  <outline>
    <contour>
      <point x="69" y="360" type="line"/>
      <point x="166" y="0" type="line"/>
      <point x="762" y="0" type="line"/>
      <point x="805" y="158" type="line"/>
      <point x="663" y="358"/>
      <point x="567" y="625"/>
      <point x="567" y="801" type="curve" smooth="yes"/>
      <point x="567" y="1127"/>
      <point x="725" y="1227"/>
      <point x="898" y="1227" type="curve" smooth="yes"/>
      <point x="1071" y="1227"/>
      <point x="1230" y="1127"/>
      <point x="1230" y="801" type="curve" smooth="yes"/>
      <point x="1230" y="623"/>
      <point x="1130" y="352"/>
      <point x="992" y="158" type="curve"/>
      <point x="1036" y="0" type="line"/>
      <point x="1640" y="0" type="line"/>
      <point x="1727" y="359" type="line"/>
      <point x="1590" y="375" type="line"/>
      <point x="1449" y="169" type="line"/>
      <point x="1198" y="134" type="line"/>
      <point x="1379" y="306"/>
      <point x="1552" y="573"/>
      <point x="1552" y="842" type="curve" smooth="yes"/>
      <point x="1552" y="1180"/>
      <point x="1300" y="1419"/>
      <point x="899" y="1419" type="curve" smooth="yes"/>
      <point x="497" y="1419"/>
      <point x="244" y="1179"/>
      <point x="244" y="842" type="curve" smooth="yes"/>
      <point x="244" y="573"/>
      <point x="426" y="306"/>
      <point x="608" y="134" type="curve"/>
      <point x="347" y="169" type="line"/>
      <point x="206" y="376" type="line"/>
    </contour>
  </outline>
</glyph>
<glyph name="approxequal" format="1">
  <advance width="1022"/>
  <unicode hex="2248"/>
  <outline>
    <contour>
      <point x="119" y="627" type="line"/>
      <point x="186" y="680"/>
      <point x="261" y="716"/>
      <point x="336" y="716" type="curve" smooth="yes"/>
      <point x="439" y="716"/>
      <point x="561" y="596"/>
      <point x="664" y="596" type="curve" smooth="yes"/>
      <point x="755" y="596"/>
      <point x="854" y="654"/>
      <point x="888" y="704" type="curve"/>
      <point x="908" y="930" type="line"/>
      <point x="832" y="863"/>
      <point x="762" y="831"/>
      <point x="685" y="831" type="curve" smooth="yes"/>
      <point x="582" y="831"/>
      <point x="459" y="951"/>
      <point x="357" y="951" type="curve" smooth="yes"/>
      <point x="269" y="951"/>
      <point x="183" y="902"/>
      <point x="134" y="854" type="curve"/>
    </contour>
    <contour>
      <point x="119" y="237" type="line"/>
      <point x="186" y="290"/>
      <point x="261" y="326"/>
      <point x="336" y="326" type="curve" smooth="yes"/>
      <point x="439" y="326"/>
      <point x="561" y="206"/>
      <point x="664" y="206" type="curve" smooth="yes"/>
      <point x="755" y="206"/>
      <point x="854" y="264"/>
      <point x="888" y="314" type="curve"/>
      <point x="908" y="540" type="line"/>
      <point x="832" y="473"/>
      <point x="762" y="441"/>
      <point x="685" y="441" type="curve" smooth="yes"/>
      <point x="582" y="441"/>
      <point x="459" y="561"/>
      <point x="357" y="561" type="curve" smooth="yes"/>
      <point x="269" y="561"/>
      <point x="183" y="512"/>
      <point x="134" y="464" type="curve"/>
    </contour>
  </outline>
</glyph>
<glyph name="fl" format="1">
  <advance width="1484"/>
  <unicode hex="FB02"/>
  <outline>
    <contour>
      <point x="1318" y="140" type="line"/>
      <point x="1317" y="1472" type="line"/>
      <point x="1037" y="1455" type="line"/>
      <point x="1003" y="1464"/>
      <point x="930" y="1472"/>
      <point x="880" y="1472" type="curve" smooth="yes"/>
      <point x="507" y="1472"/>
      <point x="196" y="1369"/>
      <point x="196" y="950" type="curve"/>
      <point x="64" y="950" type="line"/>
      <point x="45" y="863" type="line"/>
      <point x="196" y="782" type="line"/>
      <point x="196" y="150" type="line"/>
      <point x="65" y="73" type="line"/>
      <point x="50" y="0" type="line"/>
      <point x="715" y="0" type="line"/>
      <point x="729" y="63" type="line"/>
      <point x="540" y="140" type="line"/>
      <point x="540" y="784" type="line"/>
      <point x="844" y="873" type="line"/>
      <point x="856" y="950" type="line"/>
      <point x="540" y="950" type="line"/>
      <point x="549" y="1180"/>
      <point x="674" y="1339"/>
      <point x="931" y="1354" type="curve"/>
      <point x="974" y="1187" type="line"/>
      <point x="974" y="150" type="line"/>
      <point x="842" y="74" type="line"/>
      <point x="828" y="0" type="line"/>
      <point x="1436" y="0" type="line"/>
      <point x="1451" y="60" type="line"/>
    </contour>
  </outline>
</glyph>
<glyph name="candrabindudeva.imatra" format="1">
  <advance width="512"/>
  <note>
    dCandrabindu
  </note>
  <outline>
    <component base="ecandravowelsigndeva" xOffset="62"/>
    <component base="anusvaradeva" xOffset="6" yOffset="294" xScale="0.971" yScale="0.971"/>
    <contour>
      <point x="256" y="1117" type="move" name="_imatra"/>
    </contour>
    <contour>
      <point x="142" y="1000" type="move" name="_top"/>
    </contour>
  </outline>
</glyph>
<glyph name="cedilla.case" format="1">
  <advance width="1024"/>
  <outline>
    <contour>
      <point x="556" y="20" type="line"/>
      <point x="452" y="20" type="line"/>
      <point x="365" y="-43"/>
      <point x="314" y="-117"/>
      <point x="295" y="-201" type="curve"/>
      <point x="438" y="-211"/>
      <point x="527" y="-236"/>
      <point x="527" y="-278" type="curve" smooth="yes"/>
      <point x="527" y="-303"/>
      <point x="510" y="-351"/>
      <point x="293" y="-420" type="curve"/>
      <point x="309" y="-500" type="line"/>
      <point x="498" y="-500"/>
      <point x="728" y="-429"/>
      <point x="728" y="-254" type="curve" smooth="yes"/>
      <point x="728" y="-154"/>
      <point x="621" y="-94"/>
      <point x="523" y="-94" type="curve"/>
    </contour>
    <contour>
      <point x="512" y="0" type="move" name="_bottom"/>
    </contour>
  </outline>
</glyph>
<glyph name="dadeva_uvowelsigndeva" format="1">
  <advance width="1273"/>
  <note>
    dDMatraU
  </note>
  <outline>
    <contour>
      <point x="1058" y="-55"/>
      <point x="1004" y="8"/>
      <point x="957" y="90" type="curve"/>
      <point x="1043" y="133"/>
      <point x="1135" y="212"/>
      <point x="1184" y="300" type="curve" smooth="yes"/>
      <point x="1196" y="322"/>
      <point x="1194" y="349"/>
      <point x="1179" y="367" type="curve" smooth="yes"/>
      <point x="1094" y="464"/>
      <point x="953" y="519"/>
      <point x="845" y="519" type="curve" smooth="yes"/>
      <point x="761" y="519"/>
      <point x="726" y="487"/>
      <point x="726" y="406" type="curve" smooth="yes"/>
      <point x="726" y="371"/>
      <point x="738" y="312"/>
      <point x="750" y="272" type="curve"/>
      <point x="692" y="234"/>
      <point x="611" y="207"/>
      <point x="543" y="207" type="curve" smooth="yes"/>
      <point x="510" y="207"/>
      <point x="477" y="210"/>
      <point x="469" y="219" type="curve"/>
      <point x="445" y="243"/>
      <point x="421" y="352"/>
      <point x="421" y="438" type="curve" smooth="yes"/>
      <point x="421" y="537"/>
      <point x="443" y="627"/>
      <point x="647" y="627" type="curve" smooth="yes"/>
      <point x="1033" y="627" type="line"/>
      <point x="1048" y="678"/>
      <point x="1056" y="721"/>
      <point x="1056" y="780" type="curve" smooth="yes"/>
      <point x="1056" y="845"/>
      <point x="1043" y="937"/>
      <point x="1030" y="998" type="curve"/>
      <point x="1325" y="998" type="line"/>
      <point x="1279" y="1187" type="line"/>
      <point x="-50" y="1187" type="line"/>
      <point x="-1" y="998" type="line"/>
      <point x="753" y="998" type="line"/>
      <point x="755" y="976"/>
      <point x="757" y="950"/>
      <point x="757" y="924" type="curve" smooth="yes"/>
      <point x="757" y="882"/>
      <point x="752" y="849"/>
      <point x="745" y="817" type="curve"/>
      <point x="529" y="817" type="line" smooth="yes"/>
      <point x="171" y="817"/>
      <point x="112" y="648"/>
      <point x="112" y="503" type="curve" smooth="yes"/>
      <point x="112" y="183"/>
      <point x="448" y="32"/>
      <point x="674" y="32" type="curve" smooth="yes"/>
      <point x="718" y="32"/>
      <point x="764" y="35"/>
      <point x="810" y="44" type="curve"/>
      <point x="819" y="15"/>
      <point x="829" y="-14"/>
      <point x="842" y="-43" type="curve"/>
      <point x="781" y="-53"/>
      <point x="743" y="-68"/>
      <point x="665" y="-128" type="curve"/>
      <point x="813" y="-315" type="line"/>
      <point x="909" y="-236"/>
      <point x="977" y="-221"/>
      <point x="1028" y="-221" type="curve" smooth="yes"/>
      <point x="1069" y="-221"/>
      <point x="1099" y="-233"/>
      <point x="1110" y="-246" type="curve"/>
      <point x="1115" y="-251"/>
      <point x="1120" y="-273"/>
      <point x="1120" y="-297" type="curve" smooth="yes"/>
      <point x="1120" y="-364"/>
      <point x="1056" y="-448"/>
      <point x="918" y="-448" type="curve" smooth="yes"/>
      <point x="718" y="-448"/>
      <point x="603" y="-346"/>
      <point x="514" y="-252" type="curve"/>
      <point x="425" y="-322" type="line"/>
      <point x="492" y="-421"/>
      <point x="685" y="-642"/>
      <point x="973" y="-642" type="curve" smooth="yes"/>
      <point x="1167" y="-642"/>
      <point x="1289" y="-528"/>
      <point x="1289" y="-383" type="curve" smooth="yes"/>
      <point x="1289" y="-300"/>
      <point x="1238" y="-193"/>
      <point x="1133" y="-113" type="curve" smooth="yes"/>
    </contour>
    <contour>
      <point x="892" y="1187" type="move" name="top"/>
    </contour>
  </outline>
</glyph>
<glyph name="dieresis.case" format="1">
  <advance width="1024"/>
  <outline>
    <contour>
      <point x="79" y="1612"/>
      <point x="203" y="1485"/>
      <point x="249" y="1485" type="curve" smooth="yes"/>
      <point x="304" y="1485"/>
      <point x="425" y="1610"/>
      <point x="425" y="1658" type="curve" smooth="yes"/>
      <point x="425" y="1708"/>
      <point x="299" y="1831"/>
      <point x="255" y="1831" type="curve" smooth="yes"/>
      <point x="201" y="1831"/>
      <point x="79" y="1709"/>
      <point x="79" y="1660" type="curve" smooth="yes"/>
    </contour>
    <contour>
      <point x="598" y="1612"/>
      <point x="722" y="1485"/>
      <point x="768" y="1485" type="curve" smooth="yes"/>
      <point x="823" y="1485"/>
      <point x="944" y="1610"/>
      <point x="944" y="1658" type="curve" smooth="yes"/>
      <point x="944" y="1708"/>
      <point x="818" y="1831"/>
      <point x="774" y="1831" type="curve" smooth="yes"/>
      <point x="720" y="1831"/>
      <point x="598" y="1709"/>
      <point x="598" y="1660" type="curve" smooth="yes"/>
    </contour>
    <contour>
      <point x="512" y="1384" type="move" name="_top"/>
    </contour>
  </outline>
</glyph>
<glyph name="grave.case" format="1">
  <advance width="1024"/>
  <outline>
    <contour>
      <point x="759" y="1484" type="line"/>
      <point x="783" y="1598" type="line"/>
      <point x="447" y="1811" type="line"/>
      <point x="274" y="1811" type="line"/>
      <point x="238" y="1638" type="line"/>
    </contour>
    <contour>
      <point x="512" y="1384" type="move" name="_top"/>
    </contour>
  </outline>
</glyph>
<glyph name="np5" format="1">
  <advance width="1119"/>
  <outline>
    <contour>
      <point x="1004" y="-144" type="line"/>
      <point x="952" y="-163"/>
      <point x="922" y="-169"/>
      <point x="888" y="-169" type="curve" smooth="yes"/>
      <point x="819" y="-169"/>
      <point x="766" y="-149"/>
      <point x="737" y="-91" type="curve"/>
      <point x="876" y="-30"/>
      <point x="942" y="69"/>
      <point x="947" y="176" type="curve" smooth="yes"/>
      <point x="950" y="264"/>
      <point x="917" y="354"/>
      <point x="856" y="440" type="curve"/>
      <point x="878" y="463" type="line" smooth="yes"/>
      <point x="937" y="528"/>
      <point x="981" y="602"/>
      <point x="1011" y="688" type="curve" smooth="yes"/>
      <point x="1019" y="711"/>
      <point x="1020" y="740"/>
      <point x="1002" y="756" type="curve" smooth="yes"/>
      <point x="909" y="838"/>
      <point x="785" y="863"/>
      <point x="704" y="863" type="curve" smooth="yes"/>
      <point x="630" y="863"/>
      <point x="598" y="833"/>
      <point x="603" y="761" type="curve" smooth="yes"/>
      <point x="605" y="725"/>
      <point x="618" y="656"/>
      <point x="632" y="613" type="curve"/>
      <point x="609" y="572"/>
      <point x="565" y="522"/>
      <point x="516" y="495" type="curve" smooth="yes"/>
      <point x="473" y="472"/>
      <point x="400" y="462"/>
      <point x="385" y="472" type="curve" smooth="yes"/>
      <point x="347" y="497"/>
      <point x="329" y="581"/>
      <point x="329" y="661" type="curve" smooth="yes"/>
      <point x="329" y="808"/>
      <point x="391" y="951"/>
      <point x="559" y="1168" type="curve"/>
      <point x="290" y="1257" type="line"/>
      <point x="144" y="1048"/>
      <point x="73" y="926"/>
      <point x="73" y="766" type="curve" smooth="yes"/>
      <point x="73" y="514"/>
      <point x="365" y="326"/>
      <point x="523" y="326" type="curve" smooth="yes"/>
      <point x="615" y="326"/>
      <point x="694" y="325"/>
      <point x="782" y="380" type="curve"/>
      <point x="785" y="365"/>
      <point x="786" y="350"/>
      <point x="786" y="335" type="curve" smooth="yes"/>
      <point x="786" y="254"/>
      <point x="741" y="182"/>
      <point x="648" y="133" type="curve"/>
      <point x="605" y="205"/>
      <point x="561" y="234"/>
      <point x="529" y="234" type="curve" smooth="yes"/>
      <point x="455" y="234"/>
      <point x="346" y="79"/>
      <point x="346" y="14" type="curve" smooth="yes"/>
      <point x="346" y="-73"/>
      <point x="451" y="-119"/>
      <point x="567" y="-122" type="curve" smooth="yes"/>
      <point x="597" y="-123"/>
      <point x="627" y="-120"/>
      <point x="656" y="-115" type="curve"/>
      <point x="701" y="-284"/>
      <point x="788" y="-385"/>
      <point x="927" y="-385" type="curve" smooth="yes"/>
      <point x="975" y="-385"/>
      <point x="1008" y="-380"/>
      <point x="1078" y="-356" type="curve"/>
    </contour>
  </outline>
</glyph>
<glyph name="np_zha" format="1">
  <advance width="1172"/>
  <outline>
    <contour>
      <point x="880" y="-79"/>
      <point x="842" y="-68"/>
      <point x="817" y="-27" type="curve"/>
      <point x="979" y="36"/>
      <point x="1057" y="161"/>
      <point x="1057" y="266" type="curve" smooth="yes"/>
      <point x="1057" y="352"/>
      <point x="994" y="526"/>
      <point x="792" y="589" type="curve"/>
      <point x="801" y="619"/>
      <point x="806" y="652"/>
      <point x="806" y="686" type="curve" smooth="yes"/>
      <point x="806" y="791"/>
      <point x="776" y="896"/>
      <point x="725" y="998" type="curve"/>
      <point x="1222" y="998" type="line"/>
      <point x="1176" y="1187" type="line"/>
      <point x="-52" y="1187" type="line"/>
      <point x="-3" y="998" type="line"/>
      <point x="413" y="998" type="line"/>
      <point x="505" y="868"/>
      <point x="550" y="746"/>
      <point x="550" y="621" type="curve" smooth="yes"/>
      <point x="550" y="541"/>
      <point x="532" y="444"/>
      <point x="494" y="432" type="curve" smooth="yes"/>
      <point x="469" y="424"/>
      <point x="411" y="430"/>
      <point x="368" y="453" type="curve" smooth="yes"/>
      <point x="319" y="480"/>
      <point x="276" y="534"/>
      <point x="234" y="613" type="curve"/>
      <point x="19" y="494" type="line"/>
      <point x="104" y="324"/>
      <point x="253" y="293"/>
      <point x="374" y="293" type="curve" smooth="yes"/>
      <point x="474" y="293"/>
      <point x="619" y="349"/>
      <point x="713" y="454" type="curve"/>
      <point x="782" y="464"/>
      <point x="831" y="464"/>
      <point x="856" y="449" type="curve" smooth="yes"/>
      <point x="871" y="440"/>
      <point x="876" y="393"/>
      <point x="876" y="365" type="curve" smooth="yes"/>
      <point x="876" y="288"/>
      <point x="833" y="220"/>
      <point x="728" y="173" type="curve"/>
      <point x="690" y="239"/>
      <point x="650" y="266"/>
      <point x="620" y="266" type="curve" smooth="yes"/>
      <point x="553" y="266"/>
      <point x="455" y="127"/>
      <point x="455" y="68" type="curve" smooth="yes"/>
      <point x="455" y="-10"/>
      <point x="550" y="-52"/>
      <point x="654" y="-54" type="curve" smooth="yes"/>
      <point x="680" y="-55"/>
      <point x="707" y="-53"/>
      <point x="733" y="-49" type="curve"/>
      <point x="773" y="-206"/>
      <point x="835" y="-285"/>
      <point x="970" y="-285" type="curve" smooth="yes"/>
      <point x="1018" y="-285"/>
      <point x="1051" y="-280"/>
      <point x="1121" y="-256" type="curve"/>
      <point x="1057" y="-54" type="line"/>
      <point x="1005" y="-73"/>
      <point x="975" y="-79"/>
      <point x="941" y="-79" type="curve" smooth="yes"/>
    </contour>
    <contour>
      <point x="310" y="950" type="move" name="top"/>
    </contour>
  </outline>
</glyph>
<glyph name="radeva_uuvowelsigndeva" format="1">
  <advance width="1259"/>
  <note>
    dRMatraUu
  </note>
  <outline>
    <contour>
      <point x="719" y="1187" type="line"/>
      <point x="774" y="998" type="line"/>
      <point x="1299" y="998" type="line"/>
      <point x="1257" y="1187" type="line"/>
    </contour>
    <contour>
      <point x="1060" y="720"/>
      <point x="949" y="830"/>
      <point x="771" y="830" type="curve" smooth="yes"/>
      <point x="595" y="830"/>
      <point x="479" y="737"/>
      <point x="484" y="576" type="curve" smooth="yes"/>
      <point x="493" y="376"/>
      <point x="630" y="247"/>
      <point x="806" y="245" type="curve" smooth="yes"/>
      <point x="837" y="245"/>
      <point x="878" y="246"/>
      <point x="935" y="260" type="curve"/>
      <point x="904" y="476" type="line"/>
      <point x="851" y="463"/>
      <point x="818" y="461"/>
      <point x="784" y="462" type="curve" smooth="yes"/>
      <point x="721" y="463"/>
      <point x="662" y="480"/>
      <point x="645" y="510" type="curve" smooth="yes"/>
      <point x="642" y="515"/>
      <point x="643" y="532"/>
      <point x="647" y="545" type="curve" smooth="yes"/>
      <point x="664" y="599"/>
      <point x="712" y="619"/>
      <point x="774" y="619" type="curve" smooth="yes"/>
      <point x="898" y="619"/>
      <point x="999" y="511"/>
      <point x="1117" y="270" type="curve"/>
      <point x="1224" y="317" type="line"/>
      <point x="1212" y="366"/>
      <point x="1188" y="434"/>
      <point x="1158" y="502" type="curve" smooth="yes"/>
    </contour>
    <component base="radeva" xOffset="18"/>
    <contour>
      <point x="546" y="1187" type="move" name="top"/>
    </contour>
  </outline>
</glyph>
<glyph name="uni0915094D0935" format="1">
  <advance width="1663"/>
  <note>
    dKVa
  </note>
  <outline>
    <contour>
      <point x="1146" y="882"/>
      <point x="1059" y="858"/>
      <point x="992" y="811" type="curve"/>
      <point x="992" y="998" type="line"/>
      <point x="1715" y="998" type="line"/>
      <point x="1668" y="1187" type="line"/>
      <point x="-52" y="1187" type="line"/>
      <point x="-4" y="998" type="line"/>
      <point x="695" y="998" type="line"/>
      <point x="695" y="770" type="line"/>
      <point x="584" y="873"/>
      <point x="479" y="914"/>
      <point x="362" y="914" type="curve" smooth="yes"/>
      <point x="162" y="914"/>
      <point x="39" y="803"/>
      <point x="39" y="610" type="curve" smooth="yes"/>
      <point x="39" y="524"/>
      <point x="77" y="451"/>
      <point x="138" y="394" type="curve"/>
      <point x="87" y="347"/>
      <point x="54" y="285"/>
      <point x="54" y="207" type="curve" smooth="yes"/>
      <point x="54" y="2"/>
      <point x="276" y="-150"/>
      <point x="493" y="-150" type="curve" smooth="yes"/>
      <point x="557" y="-150"/>
      <point x="640" y="-135"/>
      <point x="695" y="-104" type="curve"/>
      <point x="695" y="-202" type="line"/>
      <point x="992" y="-259" type="line"/>
      <point x="992" y="468" type="line"/>
      <point x="1076" y="588"/>
      <point x="1231" y="691"/>
      <point x="1344" y="691" type="curve" smooth="yes"/>
      <point x="1359" y="691"/>
      <point x="1385" y="689"/>
      <point x="1395" y="680" type="curve"/>
      <point x="1401" y="674"/>
      <point x="1403" y="654"/>
      <point x="1403" y="638" type="curve" smooth="yes"/>
      <point x="1403" y="536"/>
      <point x="1280" y="421"/>
      <point x="1111" y="297" type="curve"/>
      <point x="1364" y="113" type="line"/>
      <point x="1490" y="201"/>
      <point x="1608" y="334"/>
      <point x="1608" y="480" type="curve" smooth="yes"/>
      <point x="1608" y="650"/>
      <point x="1427" y="882"/>
      <point x="1228" y="882" type="curve" smooth="yes"/>
    </contour>
    <contour>
      <point x="577" y="712"/>
      <point x="637" y="696"/>
      <point x="695" y="676" type="curve"/>
      <point x="695" y="598" type="line"/>
      <point x="604" y="477"/>
      <point x="458" y="440"/>
      <point x="386" y="440" type="curve" smooth="yes"/>
      <point x="375" y="440"/>
      <point x="366" y="441"/>
      <point x="360" y="453" type="curve" smooth="yes"/>
      <point x="341" y="492"/>
      <point x="332" y="529"/>
      <point x="332" y="579" type="curve" smooth="yes"/>
      <point x="332" y="691"/>
      <point x="414" y="712"/>
      <point x="513" y="712" type="curve" smooth="yes"/>
    </contour>
    <contour>
      <point x="375" y="26"/>
      <point x="366" y="27"/>
      <point x="360" y="39" type="curve" smooth="yes"/>
      <point x="341" y="75"/>
      <point x="335" y="112"/>
      <point x="335" y="159" type="curve" smooth="yes"/>
      <point x="335" y="215"/>
      <point x="355" y="257"/>
      <point x="390" y="275" type="curve"/>
      <point x="426" y="268"/>
      <point x="463" y="265"/>
      <point x="499" y="265" type="curve" smooth="yes"/>
      <point x="565" y="265"/>
      <point x="638" y="274"/>
      <point x="695" y="304" type="curve"/>
      <point x="695" y="156" type="line"/>
      <point x="583" y="52"/>
      <point x="456" y="26"/>
      <point x="386" y="26" type="curve" smooth="yes"/>
    </contour>
    <contour>
      <point x="844" y="1187" type="move" name="top"/>
    </contour>
    <contour>
      <point x="854" y="-170" type="move" name="bottom"/>
    </contour>
  </outline>
</glyph>
<glyph name="uni0917094D0928094D" format="1">
  <advance width="717"/>
  <note>
    dGN.half
  </note>
  <outline>
    <contour>
      <point x="-2" y="998" type="line"/>
      <point x="346" y="998" type="line"/>
      <point x="356" y="946"/>
      <point x="360" y="892"/>
      <point x="360" y="833" type="curve" smooth="yes"/>
      <point x="360" y="782"/>
      <point x="358" y="732"/>
      <point x="351" y="691" type="curve"/>
      <point x="337" y="692"/>
      <point x="323" y="692"/>
      <point x="309" y="692" type="curve" smooth="yes"/>
      <point x="243" y="691"/>
      <point x="174" y="683"/>
      <point x="131" y="666" type="curve"/>
      <point x="115" y="659"/>
      <point x="107" y="646"/>
      <point x="107" y="631" type="curve" smooth="yes"/>
      <point x="107" y="540"/>
      <point x="384" y="258"/>
      <point x="514" y="258" type="curve" smooth="yes"/>
      <point x="529" y="258"/>
      <point x="542" y="261"/>
      <point x="555" y="273" type="curve" smooth="yes"/>
      <point x="638" y="355"/>
      <point x="650" y="559"/>
      <point x="650" y="658" type="curve" smooth="yes"/>
      <point x="650" y="744"/>
      <point x="644" y="862"/>
      <point x="619" y="998" type="curve"/>
      <point x="769" y="998" type="line"/>
      <point x="723" y="1187" type="line"/>
      <point x="-53" y="1187" type="line"/>
    </contour>
    <component base="nadeva.post2" xOffset="1401"/>
    <contour>
      <point x="397" y="-20" type="move" name="nukta"/>
    </contour>
  </outline>
</glyph>
<glyph name="uni0918094D0930094D" format="1">
  <advance width="780"/>
  <note>
    dGhR.half
  </note>
  <outline>
    <contour>
      <point x="926" y="328" type="line"/>
      <point x="292" y="6" type="line"/>
      <point x="456" y="-207" type="line"/>
      <point x="1009" y="213" type="line"/>
    </contour>
    <component base="uni0918094D"/>
  </outline>
</glyph>
<glyph name="uni0919094D0916" format="1">
  <advance width="1604"/>
  <note>
    dNgKha
  </note>
  <outline>
    <contour>
      <point x="1132" y="668"/>
      <point x="1110" y="674"/>
      <point x="1088" y="674" type="curve" smooth="yes"/>
      <point x="962" y="674"/>
      <point x="766" y="603"/>
      <point x="676" y="603" type="curve" smooth="yes"/>
      <point x="665" y="603"/>
      <point x="657" y="610"/>
      <point x="653" y="617" type="curve"/>
      <point x="645" y="633"/>
      <point x="637" y="652"/>
      <point x="637" y="674" type="curve" smooth="yes"/>
      <point x="637" y="731"/>
      <point x="686" y="739"/>
      <point x="779" y="739" type="curve" smooth="yes"/>
      <point x="1153" y="739" type="line"/>
      <point x="1156" y="779"/>
      <point x="1157" y="789"/>
      <point x="1157" y="810" type="curve" smooth="yes"/>
      <point x="1157" y="868"/>
      <point x="1151" y="924"/>
      <point x="1129" y="998" type="curve"/>
      <point x="1656" y="998" type="line"/>
      <point x="1609" y="1187" type="line"/>
      <point x="-52" y="1187" type="line"/>
      <point x="-2" y="998" type="line"/>
      <point x="866" y="998" type="line"/>
      <point x="867" y="990"/>
      <point x="867" y="985"/>
      <point x="867" y="968" type="curve" smooth="yes"/>
      <point x="867" y="951"/>
      <point x="867" y="932"/>
      <point x="863" y="912" type="curve"/>
      <point x="647" y="912" type="line" smooth="yes"/>
      <point x="504" y="912"/>
      <point x="337" y="887"/>
      <point x="332" y="710" type="curve" smooth="yes"/>
      <point x="329" y="603"/>
      <point x="534" y="396"/>
      <point x="730" y="396" type="curve" smooth="yes"/>
      <point x="872" y="396"/>
      <point x="1087" y="480"/>
      <point x="1138" y="480" type="curve" smooth="yes"/>
      <point x="1148" y="480"/>
      <point x="1154" y="480"/>
      <point x="1159" y="477" type="curve"/>
      <point x="1160" y="472"/>
      <point x="1161" y="465"/>
      <point x="1161" y="458" type="curve" smooth="yes"/>
      <point x="1160" y="375"/>
      <point x="1009" y="292"/>
      <point x="849" y="287" type="curve" smooth="yes"/>
      <point x="693" y="282"/>
      <point x="478" y="304"/>
      <point x="214" y="573" type="curve"/>
      <point x="112" y="485" type="line"/>
      <point x="172" y="407"/>
      <point x="230" y="344"/>
      <point x="287" y="293" type="curve"/>
      <point x="300" y="235"/>
      <point x="312" y="163"/>
      <point x="312" y="97" type="curve" smooth="yes"/>
      <point x="312" y="33"/>
      <point x="301" y="-26"/>
      <point x="270" y="-66" type="curve"/>
      <point x="211" y="-17" type="line"/>
      <point x="51" y="-85" type="line"/>
      <point x="56" y="-125"/>
      <point x="65" y="-173"/>
      <point x="83" y="-230" type="curve" smooth="yes"/>
      <point x="123" y="-358"/>
      <point x="170" y="-450"/>
      <point x="239" y="-546" type="curve" smooth="yes"/>
      <point x="337" y="-683"/>
      <point x="480" y="-759"/>
      <point x="617" y="-759" type="curve" smooth="yes"/>
      <point x="676" y="-759"/>
      <point x="742" y="-754"/>
      <point x="810" y="-718" type="curve"/>
      <point x="722" y="-483" type="line"/>
      <point x="650" y="-508"/>
      <point x="595" y="-526"/>
      <point x="528" y="-526" type="curve" smooth="yes"/>
      <point x="415" y="-526"/>
      <point x="324" y="-464"/>
      <point x="244" y="-296" type="curve"/>
      <point x="452" y="-228"/>
      <point x="533" y="-102"/>
      <point x="533" y="55" type="curve" smooth="yes"/>
      <point x="533" y="83"/>
      <point x="528" y="112"/>
      <point x="520" y="142" type="curve"/>
      <point x="650" y="88"/>
      <point x="781" y="81"/>
      <point x="924" y="92" type="curve" smooth="yes"/>
      <point x="953" y="94"/>
      <point x="982" y="98"/>
      <point x="1010" y="103" type="curve"/>
      <point x="1010" y="-72" type="line"/>
      <point x="918" y="16"/>
      <point x="831" y="41"/>
      <point x="768" y="41" type="curve" smooth="yes"/>
      <point x="627" y="41"/>
      <point x="525" y="-45"/>
      <point x="525" y="-177" type="curve" smooth="yes"/>
      <point x="525" y="-316"/>
      <point x="679" y="-461"/>
      <point x="846" y="-461" type="curve" smooth="yes"/>
      <point x="899" y="-461"/>
      <point x="953" y="-455"/>
      <point x="1010" y="-431" type="curve"/>
      <point x="1010" y="-701" type="line"/>
      <point x="1277" y="-760" type="line"/>
      <point x="1277" y="220" type="line"/>
      <point x="1315" y="257"/>
      <point x="1339" y="304"/>
      <point x="1340" y="359" type="curve" smooth="yes"/>
      <point x="1340" y="463"/>
      <point x="1236" y="604"/>
      <point x="1153" y="656" type="curve"/>
    </contour>
    <contour>
      <point x="1404" y="845"/>
      <point x="1273" y="729"/>
      <point x="1273" y="665" type="curve" smooth="yes"/>
      <point x="1273" y="616"/>
      <point x="1398" y="485"/>
      <point x="1450" y="485" type="curve" smooth="yes"/>
      <point x="1500" y="485"/>
      <point x="1631" y="607"/>
      <point x="1631" y="665" type="curve" smooth="yes"/>
      <point x="1631" y="704"/>
      <point x="1520" y="845"/>
      <point x="1451" y="845" type="curve" smooth="yes"/>
    </contour>
    <contour>
      <point x="811" y="-343"/>
      <point x="803" y="-342"/>
      <point x="800" y="-337" type="curve"/>
      <point x="779" y="-307"/>
      <point x="768" y="-272"/>
      <point x="768" y="-226" type="curve" smooth="yes"/>
      <point x="768" y="-138"/>
      <point x="821" y="-109"/>
      <point x="887" y="-109" type="curve" smooth="yes"/>
      <point x="918" y="-109"/>
      <point x="964" y="-115"/>
      <point x="1010" y="-133" type="curve"/>
      <point x="1010" y="-237" type="line"/>
      <point x="961" y="-296"/>
      <point x="888" y="-343"/>
      <point x="824" y="-343" type="curve" smooth="yes"/>
    </contour>
    <contour>
      <point x="988" y="1187" type="move" name="top"/>
    </contour>
    <contour>
      <point x="1120" y="-610" type="move" name="bottom"/>
    </contour>
  </outline>
</glyph>
<glyph name="uni0919094D0917094D0930" format="1">
  <advance width="1517"/>
  <note>
    dNgGRa
  </note>
  <outline>
    <contour>
      <point x="1002" y="668"/>
      <point x="980" y="674"/>
      <point x="958" y="674" type="curve" smooth="yes"/>
      <point x="832" y="674"/>
      <point x="676" y="603"/>
      <point x="586" y="603" type="curve" smooth="yes"/>
      <point x="575" y="603"/>
      <point x="567" y="610"/>
      <point x="563" y="617" type="curve"/>
      <point x="555" y="633"/>
      <point x="547" y="652"/>
      <point x="547" y="674" type="curve" smooth="yes"/>
      <point x="547" y="731"/>
      <point x="596" y="739"/>
      <point x="689" y="739" type="curve" smooth="yes"/>
      <point x="1062" y="739" type="line"/>
      <point x="1066" y="779"/>
      <point x="1067" y="788"/>
      <point x="1067" y="810" type="curve" smooth="yes"/>
      <point x="1067" y="868"/>
      <point x="1061" y="924"/>
      <point x="1039" y="998" type="curve"/>
      <point x="1569" y="998" type="line"/>
      <point x="1521" y="1187" type="line"/>
      <point x="-52" y="1187" type="line"/>
      <point x="-2" y="998" type="line"/>
      <point x="776" y="998" type="line"/>
      <point x="777" y="990"/>
      <point x="777" y="985"/>
      <point x="777" y="968" type="curve" smooth="yes"/>
      <point x="777" y="951"/>
      <point x="777" y="932"/>
      <point x="773" y="912" type="curve"/>
      <point x="557" y="912" type="line" smooth="yes"/>
      <point x="414" y="912"/>
      <point x="242" y="887"/>
      <point x="242" y="710" type="curve" smooth="yes"/>
      <point x="242" y="596"/>
      <point x="444" y="396"/>
      <point x="640" y="396" type="curve" smooth="yes"/>
      <point x="782" y="396"/>
      <point x="957" y="480"/>
      <point x="1008" y="480" type="curve" smooth="yes"/>
      <point x="1018" y="480"/>
      <point x="1024" y="480"/>
      <point x="1029" y="477" type="curve"/>
      <point x="1030" y="472"/>
      <point x="1031" y="465"/>
      <point x="1031" y="458" type="curve" smooth="yes"/>
      <point x="1030" y="375"/>
      <point x="901" y="302"/>
      <point x="741" y="297" type="curve" smooth="yes"/>
      <point x="589" y="292"/>
      <point x="390" y="321"/>
      <point x="135" y="623" type="curve"/>
      <point x="23" y="547" type="line"/>
      <point x="123" y="394"/>
      <point x="237" y="286"/>
      <point x="356" y="213" type="curve"/>
      <point x="362" y="182"/>
      <point x="364" y="156"/>
      <point x="364" y="126" type="curve" smooth="yes"/>
      <point x="364" y="91"/>
      <point x="362" y="66"/>
      <point x="355" y="28" type="curve"/>
      <point x="342" y="29"/>
      <point x="330" y="29"/>
      <point x="318" y="29" type="curve" smooth="yes"/>
      <point x="259" y="28"/>
      <point x="198" y="22"/>
      <point x="159" y="7" type="curve" smooth="yes"/>
      <point x="146" y="2"/>
      <point x="139" y="-11"/>
      <point x="139" y="-25" type="curve" smooth="yes"/>
      <point x="139" y="-105"/>
      <point x="384" y="-355"/>
      <point x="500" y="-355" type="curve" smooth="yes"/>
      <point x="514" y="-355"/>
      <point x="527" y="-354"/>
      <point x="540" y="-339" type="curve" smooth="yes"/>
      <point x="603" y="-268"/>
      <point x="619" y="-87"/>
      <point x="619" y="1" type="curve" smooth="yes"/>
      <point x="619" y="40"/>
      <point x="614" y="72"/>
      <point x="607" y="112" type="curve"/>
      <point x="681" y="96"/>
      <point x="755" y="89"/>
      <point x="829" y="92" type="curve"/>
      <point x="829" y="-185" type="line"/>
      <point x="381" y="-504" type="line"/>
      <point x="556" y="-671" type="line"/>
      <point x="829" y="-387" type="line"/>
      <point x="829" y="-518" type="line"/>
      <point x="1090" y="-568" type="line"/>
      <point x="1090" y="164" type="line"/>
      <point x="1157" y="209"/>
      <point x="1198" y="274"/>
      <point x="1200" y="359" type="curve" smooth="yes"/>
      <point x="1200" y="463"/>
      <point x="1106" y="604"/>
      <point x="1023" y="656" type="curve"/>
    </contour>
    <contour>
      <point x="1304" y="845"/>
      <point x="1173" y="729"/>
      <point x="1173" y="665" type="curve" smooth="yes"/>
      <point x="1173" y="616"/>
      <point x="1298" y="485"/>
      <point x="1350" y="485" type="curve" smooth="yes"/>
      <point x="1400" y="485"/>
      <point x="1531" y="607"/>
      <point x="1531" y="665" type="curve" smooth="yes"/>
      <point x="1531" y="704"/>
      <point x="1420" y="845"/>
      <point x="1351" y="845" type="curve" smooth="yes"/>
    </contour>
    <contour>
      <point x="898" y="1187" type="move" name="top"/>
    </contour>
    <contour>
      <point x="950" y="-470" type="move" name="bottom"/>
    </contour>
  </outline>
</glyph>
<glyph name="uni091C094D091C094D.alt" format="1">
  <advance width="1232"/>
  <note>
    dJJ.half_alt
  </note>
  <outline>
    <contour>
      <point x="-1" y="998" type="line"/>
      <point x="1280" y="998" type="line"/>
      <point x="1232" y="1187" type="line"/>
      <point x="-50" y="1187" type="line"/>
    </contour>
    <contour>
      <point x="1415" y="668" type="line"/>
      <point x="1370" y="858" type="line"/>
      <point x="498" y="858" type="line"/>
      <point x="531" y="707" type="line"/>
      <point x="655" y="699"/>
      <point x="698" y="672"/>
      <point x="698" y="607" type="curve" smooth="yes"/>
      <point x="698" y="546"/>
      <point x="647" y="508"/>
      <point x="571" y="508" type="curve" smooth="yes"/>
      <point x="487" y="508"/>
      <point x="333" y="531"/>
      <point x="206" y="794" type="curve"/>
      <point x="67" y="750" type="line"/>
      <point x="187" y="413"/>
      <point x="384" y="247"/>
      <point x="670" y="247" type="curve" smooth="yes"/>
      <point x="870" y="247"/>
      <point x="998" y="346"/>
      <point x="998" y="481" type="curve" smooth="yes"/>
      <point x="998" y="573"/>
      <point x="935" y="643"/>
      <point x="813" y="668" type="curve"/>
    </contour>
    <contour>
      <point x="1445" y="250" type="line"/>
      <point x="1335" y="408" type="line"/>
      <point x="506" y="82" type="line"/>
      <point x="584" y="-49" type="line"/>
      <point x="742" y="-10"/>
      <point x="799" y="-35"/>
      <point x="799" y="-116" type="curve" smooth="yes"/>
      <point x="799" y="-185"/>
      <point x="742" y="-220"/>
      <point x="641" y="-230" type="curve"/>
      <point x="564" y="-234"/>
      <point x="441" y="-225"/>
      <point x="257" y="-44" type="curve"/>
      <point x="145" y="-136" type="line"/>
      <point x="388" y="-422"/>
      <point x="609" y="-459"/>
      <point x="768" y="-450" type="curve" smooth="yes"/>
      <point x="962" y="-440"/>
      <point x="1128" y="-327"/>
      <point x="1128" y="-189" type="curve" smooth="yes"/>
      <point x="1128" y="-98"/>
      <point x="1098" y="34"/>
      <point x="885" y="28" type="curve"/>
    </contour>
  </outline>
</glyph>
<glyph name="uni091C094D091E094D0930" format="1">
  <advance width="1607"/>
  <outline>
    <contour>
      <point x="1612" y="1187" type="line"/>
      <point x="-52" y="1187" type="line"/>
      <point x="-2" y="998" type="line"/>
      <point x="1163" y="998" type="line"/>
      <point x="1163" y="802" type="line"/>
      <point x="356" y="802" type="line"/>
      <point x="390" y="634" type="line"/>
      <point x="545" y="590"/>
      <point x="590" y="517"/>
      <point x="590" y="418" type="curve" smooth="yes"/>
      <point x="590" y="326"/>
      <point x="523" y="246"/>
      <point x="392" y="249" type="curve"/>
      <point x="360" y="340"/>
      <point x="306" y="426"/>
      <point x="246" y="426" type="curve" smooth="yes"/>
      <point x="168" y="426"/>
      <point x="50" y="291"/>
      <point x="50" y="217" type="curve" smooth="yes"/>
      <point x="50" y="137"/>
      <point x="170" y="63"/>
      <point x="332" y="34" type="curve"/>
      <point x="455" y="-200"/>
      <point x="554" y="-302"/>
      <point x="676" y="-302" type="curve" smooth="yes"/>
      <point x="726" y="-302"/>
      <point x="769" y="-290"/>
      <point x="854" y="-249" type="curve"/>
      <point x="752" y="-37" type="line"/>
      <point x="682" y="-72"/>
      <point x="646" y="-78"/>
      <point x="619" y="-78" type="curve" smooth="yes"/>
      <point x="575" y="-78"/>
      <point x="519" y="-74"/>
      <point x="445" y="22" type="curve"/>
      <point x="480" y="21" type="line" smooth="yes"/>
      <point x="690" y="21"/>
      <point x="882" y="128"/>
      <point x="882" y="293" type="curve" smooth="yes"/>
      <point x="882" y="435"/>
      <point x="804" y="548"/>
      <point x="657" y="602" type="curve"/>
      <point x="1163" y="602" type="line"/>
      <point x="1163" y="382" type="line"/>
      <point x="780" y="32" type="line"/>
      <point x="976" y="-114" type="line"/>
      <point x="1163" y="128" type="line"/>
      <point x="1163" y="-44" type="line"/>
      <point x="1448" y="-102" type="line"/>
      <point x="1448" y="998" type="line"/>
      <point x="1659" y="998" type="line"/>
    </contour>
    <contour>
      <point x="1306" y="1187" type="move" name="top"/>
    </contour>
    <contour>
      <point x="1306" y="0" type="move" name="bottom"/>
    </contour>
  </outline>
</glyph>
<glyph name="uni091E094D0930" format="1">
  <advance width="1710"/>
  <note>
    dNyRa
  </note>
  <outline>
    <contour>
      <point x="1716" y="1187" type="line"/>
      <point x="-52" y="1187" type="line"/>
      <point x="-3" y="998" type="line"/>
      <point x="1261" y="998" type="line"/>
      <point x="1261" y="758" type="line"/>
      <point x="1194" y="689"/>
      <point x="1133" y="643"/>
      <point x="1035" y="633" type="curve"/>
      <point x="924" y="833"/>
      <point x="777" y="872"/>
      <point x="636" y="872" type="curve" smooth="yes"/>
      <point x="554" y="872"/>
      <point x="462" y="841"/>
      <point x="386" y="797" type="curve"/>
      <point x="506" y="563" type="line"/>
      <point x="615" y="626"/>
      <point x="666" y="660"/>
      <point x="764" y="660" type="curve" smooth="yes"/>
      <point x="792" y="660"/>
      <point x="830" y="654"/>
      <point x="857" y="641" type="curve" smooth="yes"/>
      <point x="865" y="637"/>
      <point x="886" y="586"/>
      <point x="886" y="543" type="curve" smooth="yes"/>
      <point x="886" y="388"/>
      <point x="758" y="324"/>
      <point x="636" y="324" type="curve" smooth="yes"/>
      <point x="518" y="324"/>
      <point x="335" y="375"/>
      <point x="162" y="730" type="curve"/>
      <point x="42" y="686" type="line"/>
      <point x="54" y="645"/>
      <point x="69" y="602"/>
      <point x="87" y="558" type="curve" smooth="yes"/>
      <point x="183" y="328"/>
      <point x="370" y="78"/>
      <point x="696" y="78" type="curve" smooth="yes"/>
      <point x="909" y="78"/>
      <point x="1088" y="184"/>
      <point x="1073" y="482" type="curve"/>
      <point x="1136" y="470"/>
      <point x="1194" y="467"/>
      <point x="1261" y="481" type="curve"/>
      <point x="1261" y="391" type="line"/>
      <point x="827" y="-52" type="line"/>
      <point x="1074" y="-194" type="line"/>
      <point x="1261" y="106" type="line"/>
      <point x="1261" y="-42" type="line"/>
      <point x="1558" y="-92" type="line"/>
      <point x="1558" y="998" type="line"/>
      <point x="1762" y="998" type="line"/>
    </contour>
    <contour>
      <point x="1410" y="1187" type="move" name="top"/>
    </contour>
    <contour>
      <point x="1410" y="0" type="move" name="bottom"/>
    </contour>
  </outline>
</glyph>
<glyph name="uni091F094D091F094D092F" format="1">
  <advance width="2441"/>
  <note>
    dTtTtYa
  </note>
  <outline>
    <contour>
      <point x="2449" y="1187" type="line"/>
      <point x="1136" y="1187" type="line"/>
      <point x="1186" y="998" type="line"/>
      <point x="2020" y="998" type="line"/>
      <point x="2020" y="517" type="line"/>
      <point x="1960" y="383"/>
      <point x="1801" y="288"/>
      <point x="1658" y="288" type="curve" smooth="yes"/>
      <point x="1570" y="288"/>
      <point x="1520" y="294"/>
      <point x="1450" y="330" type="curve"/>
      <point x="1672" y="378"/>
      <point x="1798" y="466"/>
      <point x="1798" y="622" type="curve" smooth="yes"/>
      <point x="1798" y="750"/>
      <point x="1694" y="874"/>
      <point x="1496" y="874" type="curve" smooth="yes"/>
      <point x="760" y="874" type="line"/>
      <point x="819" y="690" type="line"/>
      <point x="1412" y="690" type="line" smooth="yes"/>
      <point x="1459" y="690"/>
      <point x="1551" y="686"/>
      <point x="1555" y="650" type="curve" smooth="yes"/>
      <point x="1559" y="616"/>
      <point x="1397" y="561"/>
      <point x="1191" y="529" type="curve"/>
      <point x="1319" y="204"/>
      <point x="1495" y="40"/>
      <point x="1744" y="40" type="curve" smooth="yes"/>
      <point x="1831" y="40"/>
      <point x="1925" y="58"/>
      <point x="2020" y="110" type="curve"/>
      <point x="2020" y="-43" type="line"/>
      <point x="2317" y="-99" type="line"/>
      <point x="2317" y="998" type="line"/>
      <point x="2493" y="998" type="line"/>
    </contour>
    <component base="uni091F094D091F"/>
    <contour>
      <point x="2161" y="1187" type="move" name="top"/>
    </contour>
    <contour>
      <point x="2161" y="0" type="move" name="bottom"/>
    </contour>
  </outline>
</glyph>
<glyph name="uni091F094D0935" format="1">
  <advance width="1226"/>
  <note>
    dTtVa
  </note>
  <outline>
    <contour>
      <point x="479" y="352"/>
      <point x="412" y="364"/>
      <point x="404" y="378" type="curve"/>
      <point x="384" y="403"/>
      <point x="366" y="456"/>
      <point x="366" y="522" type="curve" smooth="yes"/>
      <point x="366" y="636"/>
      <point x="394" y="690"/>
      <point x="636" y="690" type="curve" smooth="yes"/>
      <point x="992" y="690" type="line"/>
      <point x="1003" y="717"/>
      <point x="1008" y="758"/>
      <point x="1008" y="804" type="curve" smooth="yes"/>
      <point x="1008" y="866"/>
      <point x="1000" y="937"/>
      <point x="989" y="998" type="curve"/>
      <point x="1278" y="998" type="line"/>
      <point x="1234" y="1187" type="line"/>
      <point x="-52" y="1187" type="line"/>
      <point x="-4" y="998" type="line"/>
      <point x="703" y="998" type="line"/>
      <point x="702" y="982" type="line"/>
      <point x="701" y="969"/>
      <point x="699" y="924"/>
      <point x="682" y="883" type="curve"/>
      <point x="469" y="883" type="line" smooth="yes"/>
      <point x="114" y="883"/>
      <point x="57" y="764"/>
      <point x="57" y="613" type="curve" smooth="yes"/>
      <point x="57" y="373"/>
      <point x="359" y="164"/>
      <point x="690" y="164" type="curve" smooth="yes"/>
      <point x="902" y="164"/>
      <point x="1051" y="216"/>
      <point x="1205" y="367" type="curve"/>
      <point x="1004" y="614" type="line"/>
      <point x="831" y="424"/>
      <point x="709" y="352"/>
      <point x="550" y="352" type="curve" smooth="yes"/>
    </contour>
    <component base="vadeva.post"/>
    <contour>
      <point x="821" y="1187" type="move" name="top"/>
    </contour>
    <contour>
      <point x="857" y="-540" type="move" name="bottom"/>
    </contour>
  </outline>
</glyph>
<glyph name="uni0921094D0928" format="1">
  <advance width="1305"/>
  <note>
    dDdNa
  </note>
  <outline>
    <contour>
      <point x="1033" y="668"/>
      <point x="1011" y="674"/>
      <point x="989" y="674" type="curve" smooth="yes"/>
      <point x="863" y="674"/>
      <point x="707" y="603"/>
      <point x="617" y="603" type="curve" smooth="yes"/>
      <point x="606" y="603"/>
      <point x="598" y="610"/>
      <point x="594" y="617" type="curve"/>
      <point x="586" y="633"/>
      <point x="578" y="652"/>
      <point x="578" y="674" type="curve" smooth="yes"/>
      <point x="578" y="731"/>
      <point x="627" y="739"/>
      <point x="720" y="739" type="curve" smooth="yes"/>
      <point x="1093" y="739" type="line"/>
      <point x="1097" y="775"/>
      <point x="1098" y="792"/>
      <point x="1098" y="810" type="curve" smooth="yes"/>
      <point x="1098" y="868"/>
      <point x="1092" y="924"/>
      <point x="1070" y="998" type="curve"/>
      <point x="1357" y="998" type="line"/>
      <point x="1310" y="1187" type="line"/>
      <point x="-54" y="1187" type="line"/>
      <point x="-4" y="998" type="line"/>
      <point x="807" y="998" type="line"/>
      <point x="808" y="990"/>
      <point x="808" y="985"/>
      <point x="808" y="968" type="curve" smooth="yes"/>
      <point x="808" y="951"/>
      <point x="808" y="932"/>
      <point x="804" y="912" type="curve"/>
      <point x="588" y="912" type="line" smooth="yes"/>
      <point x="445" y="912"/>
      <point x="273" y="887"/>
      <point x="273" y="710" type="curve" smooth="yes"/>
      <point x="273" y="596"/>
      <point x="475" y="396"/>
      <point x="671" y="396" type="curve" smooth="yes"/>
      <point x="813" y="396"/>
      <point x="988" y="480"/>
      <point x="1039" y="480" type="curve" smooth="yes"/>
      <point x="1049" y="480"/>
      <point x="1055" y="480"/>
      <point x="1060" y="477" type="curve"/>
      <point x="1061" y="472"/>
      <point x="1062" y="465"/>
      <point x="1062" y="458" type="curve" smooth="yes"/>
      <point x="1061" y="375"/>
      <point x="932" y="302"/>
      <point x="772" y="297" type="curve" smooth="yes"/>
      <point x="616" y="292"/>
      <point x="418" y="322"/>
      <point x="163" y="625" type="curve"/>
      <point x="53" y="546" type="line"/>
      <point x="269" y="220"/>
      <point x="543" y="87"/>
      <point x="813" y="90" type="curve"/>
      <point x="813" y="-19" type="line"/>
      <point x="395" y="-19" type="line" smooth="yes"/>
      <point x="331" y="-19"/>
      <point x="273" y="-21"/>
      <point x="232" y="-32" type="curve" smooth="yes"/>
      <point x="203" y="-40"/>
      <point x="192" y="-58"/>
      <point x="192" y="-82" type="curve" smooth="yes"/>
      <point x="192" y="-218"/>
      <point x="300" y="-372"/>
      <point x="427" y="-429" type="curve" smooth="yes"/>
      <point x="441" y="-435"/>
      <point x="454" y="-437"/>
      <point x="468" y="-437" type="curve" smooth="yes"/>
      <point x="483" y="-437"/>
      <point x="497" y="-435"/>
      <point x="508" y="-426" type="curve" smooth="yes"/>
      <point x="559" y="-385"/>
      <point x="580" y="-295"/>
      <point x="586" y="-209" type="curve"/>
      <point x="813" y="-209" type="line"/>
      <point x="813" y="-511" type="line"/>
      <point x="1080" y="-565" type="line"/>
      <point x="1080" y="144" type="line"/>
      <point x="1171" y="188"/>
      <point x="1229" y="258"/>
      <point x="1231" y="359" type="curve" smooth="yes"/>
      <point x="1231" y="463"/>
      <point x="1137" y="604"/>
      <point x="1054" y="656" type="curve"/>
    </contour>
    <contour>
      <point x="929" y="1187" type="move" name="top"/>
    </contour>
    <contour>
      <point x="937" y="-490" type="move" name="bottom"/>
    </contour>
  </outline>
</glyph>
<glyph name="uni0923094D0930" format="1">
  <advance width="1572"/>
  <note>
    dNnRa
  </note>
  <outline>
    <contour>
      <point x="1578" y="1187" type="line"/>
      <point x="-49" y="1187" type="line"/>
      <point x="-1" y="998" type="line"/>
      <point x="107" y="998" type="line"/>
      <point x="107" y="661" type="line" smooth="yes"/>
      <point x="107" y="366"/>
      <point x="446" y="282"/>
      <point x="607" y="282" type="curve" smooth="yes"/>
      <point x="759" y="282"/>
      <point x="915" y="355"/>
      <point x="915" y="641" type="curve" smooth="yes"/>
      <point x="915" y="998" type="line"/>
      <point x="1123" y="998" type="line"/>
      <point x="1123" y="436" type="line"/>
      <point x="536" y="19" type="line"/>
      <point x="755" y="-156" type="line"/>
      <point x="1123" y="218" type="line"/>
      <point x="1123" y="-42" type="line"/>
      <point x="1420" y="-92" type="line"/>
      <point x="1420" y="998" type="line"/>
      <point x="1624" y="998" type="line"/>
    </contour>
    <contour>
      <point x="604" y="663" type="line" smooth="yes"/>
      <point x="604" y="541"/>
      <point x="587" y="438"/>
      <point x="481" y="438" type="curve" smooth="yes"/>
      <point x="462" y="438"/>
      <point x="427" y="447"/>
      <point x="422" y="457" type="curve"/>
      <point x="410" y="484"/>
      <point x="410" y="583"/>
      <point x="410" y="670" type="curve" smooth="yes"/>
      <point x="410" y="998" type="line"/>
      <point x="604" y="998" type="line"/>
    </contour>
    <contour>
      <point x="1272" y="1187" type="move" name="top"/>
    </contour>
    <contour>
      <point x="1272" y="0" type="move" name="bottom"/>
    </contour>
  </outline>
</glyph>
<glyph name="uni0924094D" format="1">
  <advance width="639"/>
  <note>
    dT.half
  </note>
  <outline>
    <contour>
      <point x="-1" y="998" type="line"/>
      <point x="688" y="998" type="line"/>
      <point x="641" y="1187" type="line"/>
      <point x="-52" y="1187" type="line"/>
    </contour>
    <contour>
      <point x="926" y="823" type="line"/>
      <point x="435" y="823" type="line" smooth="yes"/>
      <point x="164" y="823"/>
      <point x="71" y="681"/>
      <point x="71" y="513" type="curve" smooth="yes"/>
      <point x="71" y="339"/>
      <point x="228" y="119"/>
      <point x="446" y="-101" type="curve"/>
      <point x="576" y="-35" type="line"/>
      <point x="463" y="137"/>
      <point x="397" y="303"/>
      <point x="397" y="422" type="curve" smooth="yes"/>
      <point x="397" y="532"/>
      <point x="456" y="603"/>
      <point x="590" y="603" type="curve" smooth="yes"/>
      <point x="988" y="603" type="line"/>
    </contour>
  </outline>
</glyph>
<glyph name="uni0924094D0924094D" format="1">
  <advance width="823"/>
  <note>
    dTT.half
  </note>
  <outline>
    <contour>
      <point x="819" y="1187" type="line"/>
      <point x="-50" y="1187" type="line"/>
      <point x="-1" y="998" type="line"/>
      <point x="866" y="998" type="line"/>
    </contour>
    <contour>
      <point x="898" y="823" type="line"/>
      <point x="20" y="823" type="line"/>
      <point x="68" y="609" type="line"/>
      <point x="241" y="609" type="line"/>
      <point x="222" y="577"/>
      <point x="211" y="539"/>
      <point x="211" y="493" type="curve" smooth="yes"/>
      <point x="211" y="321"/>
      <point x="358" y="122"/>
      <point x="578" y="-102" type="curve"/>
      <point x="711" y="-36" type="line"/>
      <point x="558" y="195"/>
      <point x="536" y="331"/>
      <point x="536" y="434" type="curve" smooth="yes"/>
      <point x="536" y="530"/>
      <point x="595" y="609"/>
      <point x="724" y="609" type="curve" smooth="yes"/>
      <point x="949" y="609" type="line"/>
    </contour>
  </outline>
</glyph>
<glyph name="uni0924094D0930094D" format="1">
  <advance width="634"/>
  <note>
    dTR.half
  </note>
  <outline>
    <contour>
      <point x="678" y="998" type="line"/>
      <point x="634" y="1187" type="line"/>
      <point x="-50" y="1187" type="line"/>
      <point x="-1" y="998" type="line"/>
    </contour>
    <contour>
      <point x="819" y="611" type="line"/>
      <point x="737" y="567" type="line"/>
      <point x="644" y="675" type="line" smooth="yes"/>
      <point x="493" y="850"/>
      <point x="391" y="872"/>
      <point x="307" y="871" type="curve" smooth="yes"/>
      <point x="220" y="870"/>
      <point x="128" y="851"/>
      <point x="-5" y="744" type="curve"/>
      <point x="170" y="502" type="line"/>
      <point x="300" y="607"/>
      <point x="359" y="614"/>
      <point x="414" y="614" type="curve" smooth="yes"/>
      <point x="476" y="614"/>
      <point x="534" y="589"/>
      <point x="627" y="508" type="curve"/>
      <point x="75" y="211" type="line"/>
      <point x="264" y="-61" type="line"/>
      <point x="889" y="477" type="line"/>
    </contour>
  </outline>
</glyph>
<glyph name="uni0926094D0917094D0930" format="1">
  <advance width="1273"/>
  <note>
    dDGRa
  </note>
  <outline>
    <contour>
      <point x="912" y="-64" type="line"/>
      <point x="662" y="-333" type="line"/>
      <point x="840" y="-462" type="line"/>
      <point x="1000" y="-147" type="line"/>
    </contour>
    <component base="uni0926094D0917"/>
  </outline>
</glyph>
<glyph name="uni0926094D09180942" format="1">
  <advance width="1629"/>
  <outline>
    <contour>
      <point x="1536" y="-225"/>
      <point x="1407" y="-97"/>
      <point x="1238" y="-80" type="curve"/>
      <point x="1134" y="-31"/>
      <point x="1048" y="27"/>
      <point x="985" y="135" type="curve"/>
      <point x="991" y="137" type="line" smooth="yes"/>
      <point x="1092" y="177"/>
      <point x="1185" y="257"/>
      <point x="1228" y="314" type="curve" smooth="yes"/>
      <point x="1242" y="333"/>
      <point x="1244" y="369"/>
      <point x="1229" y="387" type="curve" smooth="yes"/>
      <point x="1144" y="484"/>
      <point x="1003" y="529"/>
      <point x="895" y="529" type="curve" smooth="yes"/>
      <point x="811" y="529"/>
      <point x="776" y="499"/>
      <point x="776" y="418" type="curve" smooth="yes"/>
      <point x="776" y="383"/>
      <point x="788" y="342"/>
      <point x="803" y="304" type="curve"/>
      <point x="736" y="262"/>
      <point x="643" y="247"/>
      <point x="593" y="247" type="curve" smooth="yes"/>
      <point x="560" y="247"/>
      <point x="527" y="250"/>
      <point x="519" y="259" type="curve"/>
      <point x="495" y="283"/>
      <point x="471" y="364"/>
      <point x="471" y="468" type="curve" smooth="yes"/>
      <point x="471" y="567"/>
      <point x="493" y="647"/>
      <point x="697" y="647" type="curve" smooth="yes"/>
      <point x="1096" y="647" type="line"/>
      <point x="1101" y="690"/>
      <point x="1105" y="731"/>
      <point x="1105" y="776" type="curve" smooth="yes"/>
      <point x="1106" y="838"/>
      <point x="1099" y="907"/>
      <point x="1080" y="998" type="curve"/>
      <point x="1668" y="998" type="line"/>
      <point x="1625" y="1187" type="line"/>
      <point x="-56" y="1187" type="line"/>
      <point x="-6" y="998" type="line"/>
      <point x="803" y="998" type="line"/>
      <point x="805" y="976"/>
      <point x="807" y="950"/>
      <point x="807" y="924" type="curve" smooth="yes"/>
      <point x="807" y="882"/>
      <point x="802" y="869"/>
      <point x="795" y="837" type="curve"/>
      <point x="579" y="837" type="line" smooth="yes"/>
      <point x="221" y="837"/>
      <point x="162" y="668"/>
      <point x="162" y="523" type="curve" smooth="yes"/>
      <point x="162" y="474"/>
      <point x="173" y="429"/>
      <point x="192" y="388" type="curve"/>
      <point x="52" y="355"/>
      <point x="-43" y="249"/>
      <point x="-15" y="143" type="curve" smooth="yes"/>
      <point x="-0" y="83"/>
      <point x="68" y="46"/>
      <point x="161" y="18" type="curve"/>
      <point x="123" y="-25"/>
      <point x="105" y="-77"/>
      <point x="105" y="-136" type="curve" smooth="yes"/>
      <point x="105" y="-309"/>
      <point x="355" y="-444"/>
      <point x="593" y="-397" type="curve" smooth="yes"/>
      <point x="648" y="-387"/>
      <point x="815" y="-317"/>
      <point x="955" y="-101" type="curve"/>
      <point x="963" y="-116"/>
      <point x="971" y="-130"/>
      <point x="980" y="-144" type="curve"/>
      <point x="915" y="-193"/>
      <point x="880" y="-265"/>
      <point x="880" y="-339" type="curve" smooth="yes"/>
      <point x="880" y="-527"/>
      <point x="1070" y="-670"/>
      <point x="1228" y="-670" type="curve" smooth="yes"/>
      <point x="1295" y="-670"/>
      <point x="1349" y="-659"/>
      <point x="1417" y="-610" type="curve"/>
      <point x="1336" y="-414" type="line"/>
      <point x="1267" y="-459"/>
      <point x="1216" y="-476"/>
      <point x="1162" y="-476" type="curve" smooth="yes"/>
      <point x="1117" y="-476"/>
      <point x="1081" y="-468"/>
      <point x="1072" y="-462" type="curve" smooth="yes"/>
      <point x="1063" y="-456"/>
      <point x="1058" y="-419"/>
      <point x="1058" y="-400" type="curve" smooth="yes"/>
      <point x="1058" y="-328"/>
      <point x="1126" y="-295"/>
      <point x="1226" y="-295" type="curve" smooth="yes"/>
      <point x="1360" y="-295"/>
      <point x="1500" y="-406"/>
      <point x="1648" y="-604" type="curve"/>
      <point x="1732" y="-541" type="line"/>
      <point x="1719" y="-510"/>
      <point x="1666" y="-413"/>
      <point x="1629" y="-359" type="curve" smooth="yes"/>
    </contour>
    <contour>
      <point x="424" y="-285"/>
      <point x="398" y="-291"/>
      <point x="384" y="-281" type="curve"/>
      <point x="362" y="-270"/>
      <point x="349" y="-236"/>
      <point x="349" y="-208" type="curve" smooth="yes"/>
      <point x="349" y="-150"/>
      <point x="408" y="-95"/>
      <point x="519" y="-57" type="curve"/>
      <point x="390" y="139" type="line"/>
      <point x="338" y="130"/>
      <point x="285" y="111"/>
      <point x="237" y="82" type="curve"/>
      <point x="226" y="95"/>
      <point x="217" y="111"/>
      <point x="214" y="131" type="curve"/>
      <point x="209" y="179"/>
      <point x="248" y="224"/>
      <point x="299" y="250" type="curve"/>
      <point x="418" y="146"/>
      <point x="592" y="87"/>
      <point x="726" y="87" type="curve" smooth="yes"/>
      <point x="764" y="87"/>
      <point x="803" y="90"/>
      <point x="842" y="97" type="curve"/>
      <point x="727" y="-99"/>
      <point x="569" y="-256"/>
      <point x="447" y="-279" type="curve"/>
    </contour>
    <contour>
      <point x="925" y="1187" type="move" name="top"/>
    </contour>
  </outline>
</glyph>
<glyph name="uni0926094D0926" format="1">
  <advance width="1211"/>
  <note>
    dDDa
  </note>
  <outline>
    <contour>
      <point x="1155" y="89"/>
      <point x="1155" y="118"/>
      <point x="1138" y="134" type="curve" smooth="yes"/>
      <point x="1053" y="211"/>
      <point x="912" y="276"/>
      <point x="804" y="276" type="curve" smooth="yes"/>
      <point x="720" y="276"/>
      <point x="685" y="266"/>
      <point x="685" y="185" type="curve" smooth="yes"/>
      <point x="685" y="150"/>
      <point x="697" y="104"/>
      <point x="712" y="66" type="curve"/>
      <point x="654" y="21"/>
      <point x="576" y="-6"/>
      <point x="502" y="-6" type="curve" smooth="yes"/>
      <point x="469" y="-6"/>
      <point x="436" y="-3"/>
      <point x="428" y="6" type="curve"/>
      <point x="406" y="28"/>
      <point x="381" y="101"/>
      <point x="380" y="180" type="curve"/>
      <point x="380" y="254"/>
      <point x="383" y="343"/>
      <point x="601" y="344" type="curve" smooth="yes"/>
      <point x="874" y="345" type="line"/>
      <point x="827" y="514" type="line"/>
      <point x="610" y="514" type="line" smooth="yes"/>
      <point x="471" y="515"/>
      <point x="418" y="556"/>
      <point x="418" y="604" type="curve" smooth="yes"/>
      <point x="418" y="665"/>
      <point x="474" y="677"/>
      <point x="606" y="677" type="curve" smooth="yes"/>
      <point x="965" y="677" type="line"/>
      <point x="971" y="734"/>
      <point x="973" y="780"/>
      <point x="973" y="823" type="curve" smooth="yes"/>
      <point x="973" y="881"/>
      <point x="963" y="933"/>
      <point x="949" y="998" type="curve"/>
      <point x="1263" y="998" type="line"/>
      <point x="1218" y="1187" type="line"/>
      <point x="-52" y="1187" type="line"/>
      <point x="-3" y="998" type="line"/>
      <point x="674" y="998" type="line"/>
      <point x="676" y="981"/>
      <point x="676" y="966"/>
      <point x="675" y="950" type="curve"/>
      <point x="675" y="925"/>
      <point x="671" y="899"/>
      <point x="664" y="867" type="curve"/>
      <point x="498" y="867" type="line" smooth="yes"/>
      <point x="210" y="867"/>
      <point x="109" y="814"/>
      <point x="109" y="696" type="curve" smooth="yes"/>
      <point x="109" y="633"/>
      <point x="155" y="553"/>
      <point x="293" y="492" type="curve"/>
      <point x="139" y="451"/>
      <point x="71" y="360"/>
      <point x="71" y="261" type="curve" smooth="yes"/>
      <point x="71" y="81"/>
      <point x="316" y="-181"/>
      <point x="633" y="-181" type="curve" smooth="yes"/>
      <point x="689" y="-181"/>
      <point x="750" y="-175"/>
      <point x="808" y="-161" type="curve"/>
      <point x="856" y="-255"/>
      <point x="916" y="-348"/>
      <point x="997" y="-437" type="curve"/>
      <point x="1168" y="-243" type="line"/>
      <point x="1081" y="-192"/>
      <point x="1013" y="-156"/>
      <point x="952" y="-105" type="curve"/>
      <point x="1027" y="-65"/>
      <point x="1101" y="-9"/>
      <point x="1143" y="67" type="curve" smooth="yes"/>
    </contour>
    <contour>
      <point x="812" y="1187" type="move" name="top"/>
    </contour>
    <contour>
      <point x="881" y="-232" type="move" name="bottom"/>
    </contour>
  </outline>
</glyph>
<glyph name="uni0926094D0927" format="1">
  <advance width="1435"/>
  <note>
    dDDha
  </note>
  <outline>
    <contour>
      <point x="1101" y="137" type="line" smooth="yes"/>
      <point x="1202" y="177"/>
      <point x="1295" y="257"/>
      <point x="1338" y="314" type="curve" smooth="yes"/>
      <point x="1352" y="333"/>
      <point x="1354" y="369"/>
      <point x="1339" y="387" type="curve" smooth="yes"/>
      <point x="1254" y="484"/>
      <point x="1113" y="529"/>
      <point x="1005" y="529" type="curve" smooth="yes"/>
      <point x="921" y="529"/>
      <point x="886" y="499"/>
      <point x="886" y="418" type="curve" smooth="yes"/>
      <point x="886" y="383"/>
      <point x="898" y="342"/>
      <point x="913" y="304" type="curve"/>
      <point x="846" y="262"/>
      <point x="753" y="247"/>
      <point x="703" y="247" type="curve" smooth="yes"/>
      <point x="670" y="247"/>
      <point x="637" y="250"/>
      <point x="629" y="259" type="curve"/>
      <point x="605" y="283"/>
      <point x="581" y="364"/>
      <point x="581" y="468" type="curve" smooth="yes"/>
      <point x="581" y="567"/>
      <point x="603" y="647"/>
      <point x="807" y="647" type="curve" smooth="yes"/>
      <point x="1206" y="647" type="line"/>
      <point x="1211" y="690"/>
      <point x="1215" y="731"/>
      <point x="1216" y="776" type="curve" smooth="yes"/>
      <point x="1216" y="838"/>
      <point x="1209" y="907"/>
      <point x="1190" y="998" type="curve"/>
      <point x="1487" y="998" type="line"/>
      <point x="1444" y="1187" type="line"/>
      <point x="-54" y="1187" type="line"/>
      <point x="-4" y="998" type="line"/>
      <point x="913" y="998" type="line"/>
      <point x="915" y="976"/>
      <point x="917" y="950"/>
      <point x="917" y="924" type="curve" smooth="yes"/>
      <point x="917" y="882"/>
      <point x="912" y="869"/>
      <point x="905" y="837" type="curve"/>
      <point x="689" y="837" type="line" smooth="yes"/>
      <point x="331" y="837"/>
      <point x="272" y="668"/>
      <point x="272" y="523" type="curve" smooth="yes"/>
      <point x="272" y="253"/>
      <point x="610" y="87"/>
      <point x="836" y="87" type="curve" smooth="yes"/>
      <point x="882" y="87"/>
      <point x="931" y="92"/>
      <point x="980" y="102" type="curve"/>
      <point x="894" y="-87"/>
      <point x="764" y="-261"/>
      <point x="617" y="-302" type="curve" smooth="yes"/>
      <point x="595" y="-308"/>
      <point x="561" y="-311"/>
      <point x="552" y="-305" type="curve" smooth="yes"/>
      <point x="533" y="-292"/>
      <point x="519" y="-272"/>
      <point x="519" y="-244" type="curve" smooth="yes"/>
      <point x="519" y="-187"/>
      <point x="563" y="-153"/>
      <point x="689" y="-111" type="curve"/>
      <point x="554" y="83" type="line"/>
      <point x="472" y="63"/>
      <point x="411" y="36"/>
      <point x="352" y="-13" type="curve" smooth="yes"/>
      <point x="345" y="-19"/>
      <point x="338" y="-25"/>
      <point x="332" y="-32" type="curve"/>
      <point x="282" y="-2"/>
      <point x="266" y="37"/>
      <point x="266" y="78" type="curve" smooth="yes"/>
      <point x="266" y="108"/>
      <point x="278" y="142"/>
      <point x="318" y="159" type="curve" smooth="yes"/>
      <point x="349" y="171"/>
      <point x="381" y="175"/>
      <point x="432" y="174" type="curve"/>
      <point x="306" y="297" type="line"/>
      <point x="272" y="311"/>
      <point x="245" y="316"/>
      <point x="200" y="316" type="curve" smooth="yes"/>
      <point x="139" y="316"/>
      <point x="16" y="285"/>
      <point x="16" y="146" type="curve" smooth="yes"/>
      <point x="16" y="42"/>
      <point x="114" y="-47"/>
      <point x="296" y="-80" type="curve"/>
      <point x="282" y="-106"/>
      <point x="275" y="-136"/>
      <point x="275" y="-172" type="curve" smooth="yes"/>
      <point x="275" y="-345"/>
      <point x="525" y="-464"/>
      <point x="763" y="-417" type="curve" smooth="yes"/>
      <point x="817" y="-407"/>
      <point x="970" y="-357"/>
      <point x="1092" y="-153" type="curve"/>
      <point x="1130" y="-216"/>
      <point x="1181" y="-279"/>
      <point x="1253" y="-341" type="curve"/>
      <point x="1428" y="-115" type="line"/>
      <point x="1289" y="-58"/>
      <point x="1174" y="-0"/>
      <point x="1095" y="135" type="curve"/>
    </contour>
    <contour>
      <point x="1052" y="1187" type="move" name="top"/>
    </contour>
    <contour>
      <point x="1125" y="-108" type="move" name="bottom"/>
    </contour>
  </outline>
</glyph>
<glyph name="uni0926094D0927094D0930094D092F" format="1">
  <advance width="2594"/>
  <outline>
    <contour>
      <point x="1111" y="-128" type="line"/>
      <point x="985" y="-536" type="line"/>
      <point x="1207" y="-558" type="line"/>
      <point x="1222" y="-153" type="line"/>
    </contour>
    <component base="uni0926094D0927094D092F"/>
  </outline>
</glyph>
<glyph name="uni0926094D0928" format="1">
  <advance width="1261"/>
  <note>
    dDNa
  </note>
  <outline>
    <contour>
      <point x="916" y="42" type="line"/>
      <point x="888" y="184" type="line"/>
      <point x="544" y="-25" type="line" smooth="yes"/>
      <point x="388" y="-118"/>
      <point x="323" y="-180"/>
      <point x="323" y="-225" type="curve" smooth="yes"/>
      <point x="323" y="-232"/>
      <point x="325" y="-239"/>
      <point x="329" y="-246" type="curve" smooth="yes"/>
      <point x="365" y="-309"/>
      <point x="500" y="-356"/>
      <point x="601" y="-353" type="curve"/>
      <point x="633" y="-354"/>
      <point x="661" y="-336"/>
      <point x="666" y="-309" type="curve"/>
      <point x="672" y="-266"/>
      <point x="652" y="-202"/>
      <point x="623" y="-155" type="curve"/>
    </contour>
    <component base="dadeva"/>
  </outline>
</glyph>
<glyph name="uni0926094D092C094D0930" format="1">
  <advance width="1269"/>
  <note>
    dDBRa
  </note>
  <outline>
    <contour>
      <point x="778" y="25" type="line"/>
      <point x="510" y="-427" type="line"/>
      <point x="715" y="-506" type="line"/>
      <point x="876" y="-45" type="line"/>
    </contour>
    <component base="uni0926094D092C"/>
  </outline>
</glyph>
<glyph name="uni0926094D092D094D092F" format="1">
  <advance width="2708"/>
  <note>
    dDBhYa
  </note>
  <outline>
    <contour>
      <point x="2711" y="1187" type="line"/>
      <point x="1388" y="1187" type="line"/>
      <point x="1438" y="998" type="line"/>
      <point x="2272" y="998" type="line"/>
      <point x="2272" y="517" type="line"/>
      <point x="2212" y="383"/>
      <point x="2053" y="288"/>
      <point x="1910" y="288" type="curve" smooth="yes"/>
      <point x="1822" y="288"/>
      <point x="1772" y="294"/>
      <point x="1702" y="330" type="curve"/>
      <point x="1924" y="358"/>
      <point x="2050" y="423"/>
      <point x="2050" y="579" type="curve" smooth="yes"/>
      <point x="2050" y="707"/>
      <point x="1946" y="831"/>
      <point x="1748" y="831" type="curve" smooth="yes"/>
      <point x="1052" y="831" type="line"/>
      <point x="1111" y="647" type="line"/>
      <point x="1664" y="647" type="line" smooth="yes"/>
      <point x="1711" y="647"/>
      <point x="1803" y="643"/>
      <point x="1807" y="607" type="curve" smooth="yes"/>
      <point x="1811" y="573"/>
      <point x="1649" y="518"/>
      <point x="1443" y="486" type="curve"/>
      <point x="1571" y="161"/>
      <point x="1747" y="40"/>
      <point x="1996" y="40" type="curve" smooth="yes"/>
      <point x="2083" y="40"/>
      <point x="2177" y="58"/>
      <point x="2272" y="110" type="curve"/>
      <point x="2272" y="-43" type="line"/>
      <point x="2569" y="-99" type="line"/>
      <point x="2569" y="998" type="line"/>
      <point x="2755" y="998" type="line"/>
    </contour>
    <component base="uni0926094D092D"/>
    <contour>
      <point x="2430" y="1187" type="move" name="top"/>
    </contour>
    <contour>
      <point x="2430" y="0" type="move" name="bottom"/>
    </contour>
  </outline>
</glyph>
<glyph name="uni0926094D09300942" format="1">
  <advance width="1259"/>
  <outline>
    <contour>
      <point x="1372" y="-233"/>
      <point x="1286" y="-139"/>
      <point x="1180" y="-88" type="curve"/>
      <point x="1084" y="-23"/>
      <point x="1026" y="18"/>
      <point x="967" y="96" type="curve"/>
      <point x="1049" y="140"/>
      <point x="1136" y="216"/>
      <point x="1182" y="300" type="curve" smooth="yes"/>
      <point x="1194" y="322"/>
      <point x="1192" y="349"/>
      <point x="1177" y="367" type="curve" smooth="yes"/>
      <point x="1092" y="464"/>
      <point x="951" y="519"/>
      <point x="843" y="519" type="curve" smooth="yes"/>
      <point x="759" y="519"/>
      <point x="724" y="487"/>
      <point x="724" y="406" type="curve" smooth="yes"/>
      <point x="724" y="371"/>
      <point x="736" y="312"/>
      <point x="748" y="272" type="curve"/>
      <point x="690" y="234"/>
      <point x="609" y="207"/>
      <point x="541" y="207" type="curve" smooth="yes"/>
      <point x="508" y="207"/>
      <point x="475" y="210"/>
      <point x="467" y="219" type="curve"/>
      <point x="443" y="243"/>
      <point x="419" y="352"/>
      <point x="419" y="438" type="curve" smooth="yes"/>
      <point x="419" y="537"/>
      <point x="441" y="627"/>
      <point x="645" y="627" type="curve" smooth="yes"/>
      <point x="1031" y="627" type="line"/>
      <point x="1046" y="678"/>
      <point x="1054" y="721"/>
      <point x="1054" y="780" type="curve" smooth="yes"/>
      <point x="1054" y="845"/>
      <point x="1041" y="937"/>
      <point x="1028" y="998" type="curve"/>
      <point x="1313" y="998" type="line"/>
      <point x="1267" y="1187" type="line"/>
      <point x="-52" y="1187" type="line"/>
      <point x="-3" y="998" type="line"/>
      <point x="751" y="998" type="line"/>
      <point x="753" y="976"/>
      <point x="755" y="950"/>
      <point x="755" y="924" type="curve" smooth="yes"/>
      <point x="755" y="882"/>
      <point x="750" y="849"/>
      <point x="743" y="817" type="curve"/>
      <point x="527" y="817" type="line" smooth="yes"/>
      <point x="169" y="817"/>
      <point x="110" y="648"/>
      <point x="110" y="503" type="curve" smooth="yes"/>
      <point x="110" y="214"/>
      <point x="384" y="63"/>
      <point x="604" y="36" type="curve"/>
      <point x="294" y="-183" type="line"/>
      <point x="504" y="-370" type="line"/>
      <point x="841" y="2" type="line"/>
      <point x="852" y="-22"/>
      <point x="863" y="-47"/>
      <point x="874" y="-69" type="curve"/>
      <point x="754" y="-111"/>
      <point x="690" y="-209"/>
      <point x="690" y="-309" type="curve" smooth="yes"/>
      <point x="690" y="-497"/>
      <point x="880" y="-640"/>
      <point x="1038" y="-640" type="curve" smooth="yes"/>
      <point x="1105" y="-640"/>
      <point x="1159" y="-629"/>
      <point x="1227" y="-580" type="curve"/>
      <point x="1146" y="-384" type="line"/>
      <point x="1077" y="-429"/>
      <point x="1026" y="-446"/>
      <point x="972" y="-446" type="curve" smooth="yes"/>
      <point x="927" y="-446"/>
      <point x="891" y="-438"/>
      <point x="882" y="-432" type="curve" smooth="yes"/>
      <point x="873" y="-426"/>
      <point x="868" y="-389"/>
      <point x="868" y="-370" type="curve" smooth="yes"/>
      <point x="868" y="-298"/>
      <point x="936" y="-265"/>
      <point x="1036" y="-265" type="curve" smooth="yes"/>
      <point x="1170" y="-265"/>
      <point x="1310" y="-376"/>
      <point x="1458" y="-574" type="curve"/>
      <point x="1542" y="-511" type="line"/>
      <point x="1529" y="-480"/>
      <point x="1476" y="-383"/>
      <point x="1439" y="-329" type="curve" smooth="yes"/>
    </contour>
    <contour>
      <point x="886" y="1187" type="move" name="top"/>
    </contour>
  </outline>
</glyph>
<glyph name="uni0927094D0930094D" format="1">
  <advance width="935"/>
  <note>
    dDhR.half
  </note>
  <outline>
    <contour>
      <point x="1011" y="390" type="line"/>
      <point x="354" y="18" type="line"/>
      <point x="543" y="-192" type="line"/>
      <point x="1099" y="280" type="line"/>
    </contour>
    <component base="uni0927094D"/>
  </outline>
</glyph>
<glyph name="uni0928094D0928094D092F" format="1">
  <advance width="1845"/>
  <note>
    dNNYa
  </note>
  <outline>
    <component base="uni0928094D0928094D"/>
    <component base="uni092F" xOffset="559"/>
    <contour>
      <point x="1657" y="1187" type="move" name="top"/>
    </contour>
    <contour>
      <point x="1657" y="0" type="move" name="bottom"/>
    </contour>
  </outline>
</glyph>
<glyph name="uni092A094D0932.loclMAR" format="1">
  <advance width="1284"/>
  <note>
    dPLa.MAR
  </note>
  <outline>
    <contour>
      <point x="1037" y="998" type="line"/>
      <point x="1330" y="998" type="line"/>
      <point x="1286" y="1187" type="line"/>
      <point x="-48" y="1187" type="line"/>
      <point x="-1" y="998" type="line"/>
      <point x="126" y="998" type="line"/>
      <point x="126" y="690" type="line" smooth="yes"/>
      <point x="126" y="448"/>
      <point x="399" y="323"/>
      <point x="574" y="323" type="curve" smooth="yes"/>
      <point x="647" y="323"/>
      <point x="679" y="335"/>
      <point x="740" y="357" type="curve"/>
      <point x="740" y="194" type="line"/>
      <point x="693" y="174"/>
      <point x="651" y="145"/>
      <point x="618" y="106" type="curve"/>
      <point x="615" y="102" type="line"/>
      <point x="523" y="175"/>
      <point x="434" y="216"/>
      <point x="353" y="216" type="curve" smooth="yes"/>
      <point x="203" y="216"/>
      <point x="57" y="135"/>
      <point x="57" y="-50" type="curve" smooth="yes"/>
      <point x="57" y="-244"/>
      <point x="200" y="-420"/>
      <point x="524" y="-583" type="curve"/>
      <point x="587" y="-487" type="line"/>
      <point x="394" y="-338"/>
      <point x="338" y="-212"/>
      <point x="338" y="-94" type="curve" smooth="yes"/>
      <point x="338" y="4"/>
      <point x="395" y="57"/>
      <point x="471" y="57" type="curve" smooth="yes"/>
      <point x="497" y="57"/>
      <point x="534" y="48"/>
      <point x="569" y="34" type="curve"/>
      <point x="544" y="-18"/>
      <point x="530" y="-82"/>
      <point x="519" y="-155" type="curve"/>
      <point x="767" y="-209" type="line"/>
      <point x="803" y="24"/>
      <point x="875" y="78"/>
      <point x="950" y="78" type="curve" smooth="yes"/>
      <point x="991" y="77"/>
      <point x="1025" y="64"/>
      <point x="1034" y="51" type="curve"/>
      <point x="1046" y="35"/>
      <point x="1052" y="-14"/>
      <point x="1052" y="-37" type="curve" smooth="yes"/>
      <point x="1052" y="-202"/>
      <point x="894" y="-318"/>
      <point x="744" y="-437" type="curve"/>
      <point x="989" y="-594" type="line"/>
      <point x="1189" y="-437"/>
      <point x="1247" y="-299"/>
      <point x="1247" y="-157" type="curve" smooth="yes"/>
      <point x="1247" y="-31"/>
      <point x="1156" y="108"/>
      <point x="1037" y="177" type="curve"/>
    </contour>
    <contour>
      <point x="483" y="483"/>
      <point x="456" y="482"/>
      <point x="452" y="488" type="curve" smooth="yes"/>
      <point x="441" y="505"/>
      <point x="423" y="579"/>
      <point x="423" y="683" type="curve" smooth="yes"/>
      <point x="423" y="998" type="line"/>
      <point x="740" y="998" type="line"/>
      <point x="740" y="686" type="line"/>
      <point x="709" y="589"/>
      <point x="618" y="498"/>
      <point x="508" y="486" type="curve" smooth="yes"/>
    </contour>
    <contour>
      <point x="889" y="1187" type="move" name="top"/>
    </contour>
    <contour>
      <point x="944" y="-420" type="move" name="bottom"/>
    </contour>
  </outline>
</glyph>
<glyph name="uni092B094D0932.loclMAR" format="1">
  <advance width="1634"/>
  <note>
    dPhLa.MAR
  </note>
  <outline>
    <contour>
      <point x="1368" y="788"/>
      <point x="1253" y="868"/>
      <point x="1161" y="868" type="curve" smooth="yes"/>
      <point x="1103" y="868"/>
      <point x="1046" y="847"/>
      <point x="987" y="812" type="curve"/>
      <point x="987" y="998" type="line"/>
      <point x="1679" y="998" type="line"/>
      <point x="1635" y="1187" type="line"/>
      <point x="-51" y="1187" type="line"/>
      <point x="-2" y="998" type="line"/>
      <point x="110" y="998" type="line"/>
      <point x="110" y="690" type="line" smooth="yes"/>
      <point x="110" y="448"/>
      <point x="359" y="323"/>
      <point x="534" y="323" type="curve" smooth="yes"/>
      <point x="597" y="323"/>
      <point x="629" y="325"/>
      <point x="690" y="347" type="curve"/>
      <point x="690" y="158" type="line"/>
      <point x="630" y="193"/>
      <point x="571" y="212"/>
      <point x="516" y="212" type="curve" smooth="yes"/>
      <point x="366" y="212"/>
      <point x="217" y="134"/>
      <point x="217" y="-51" type="curve" smooth="yes"/>
      <point x="217" y="-245"/>
      <point x="367" y="-430"/>
      <point x="687" y="-582" type="curve"/>
      <point x="746" y="-487" type="line"/>
      <point x="554" y="-337"/>
      <point x="498" y="-213"/>
      <point x="498" y="-95" type="curve" smooth="yes"/>
      <point x="498" y="3"/>
      <point x="558" y="53"/>
      <point x="634" y="53" type="curve" smooth="yes"/>
      <point x="660" y="53"/>
      <point x="699" y="43"/>
      <point x="735" y="29" type="curve"/>
      <point x="713" y="-21"/>
      <point x="699" y="-81"/>
      <point x="689" y="-150" type="curve"/>
      <point x="937" y="-204" type="line"/>
      <point x="973" y="29"/>
      <point x="1045" y="83"/>
      <point x="1120" y="83" type="curve" smooth="yes"/>
      <point x="1161" y="82"/>
      <point x="1195" y="69"/>
      <point x="1204" y="56" type="curve"/>
      <point x="1216" y="40"/>
      <point x="1222" y="-9"/>
      <point x="1222" y="-32" type="curve" smooth="yes"/>
      <point x="1222" y="-197"/>
      <point x="1065" y="-313"/>
      <point x="915" y="-431" type="curve"/>
      <point x="1158" y="-589" type="line"/>
      <point x="1359" y="-432"/>
      <point x="1427" y="-294"/>
      <point x="1427" y="-152" type="curve" smooth="yes"/>
      <point x="1427" y="25"/>
      <point x="1238" y="227"/>
      <point x="1054" y="227" type="curve" smooth="yes"/>
      <point x="1032" y="227"/>
      <point x="1009" y="225"/>
      <point x="987" y="221" type="curve"/>
      <point x="987" y="467" type="line"/>
      <point x="1077" y="571"/>
      <point x="1200" y="667"/>
      <point x="1280" y="667" type="curve" smooth="yes"/>
      <point x="1308" y="667"/>
      <point x="1328" y="663"/>
      <point x="1342" y="651" type="curve" smooth="yes"/>
      <point x="1348" y="646"/>
      <point x="1351" y="627"/>
      <point x="1351" y="607" type="curve" smooth="yes"/>
      <point x="1351" y="517"/>
      <point x="1292" y="477"/>
      <point x="1133" y="350" type="curve"/>
      <point x="1398" y="147" type="line"/>
      <point x="1528" y="263"/>
      <point x="1568" y="323"/>
      <point x="1568" y="443" type="curve" smooth="yes"/>
      <point x="1568" y="537"/>
      <point x="1532" y="635"/>
      <point x="1446" y="716" type="curve" smooth="yes"/>
    </contour>
    <contour>
      <point x="456" y="486"/>
      <point x="438" y="489"/>
      <point x="429" y="496" type="curve" smooth="yes"/>
      <point x="412" y="509"/>
      <point x="403" y="579"/>
      <point x="403" y="683" type="curve" smooth="yes"/>
      <point x="403" y="998" type="line"/>
      <point x="690" y="998" type="line"/>
      <point x="690" y="656" type="line"/>
      <point x="649" y="579"/>
      <point x="551" y="486"/>
      <point x="481" y="486" type="curve" smooth="yes"/>
    </contour>
    <contour>
      <point x="779" y="101" type="line"/>
      <point x="778" y="100"/>
      <point x="778" y="99"/>
      <point x="777" y="99" type="curve"/>
      <point x="773" y="102" type="line"/>
    </contour>
    <contour>
      <point x="839" y="1187" type="move" name="top"/>
    </contour>
    <contour>
      <point x="1084" y="-420" type="move" name="bottom"/>
    </contour>
  </outline>
</glyph>
<glyph name="uni092C094D0930" format="1">
  <advance width="1219"/>
  <note>
    dBRa
  </note>
  <outline>
    <contour>
      <point x="1236" y="1187" type="line"/>
      <point x="-50" y="1187" type="line"/>
      <point x="-1" y="998" type="line"/>
      <point x="781" y="998" type="line"/>
      <point x="781" y="766" type="line"/>
      <point x="656" y="837"/>
      <point x="566" y="861"/>
      <point x="445" y="861" type="curve" smooth="yes"/>
      <point x="255" y="861"/>
      <point x="86" y="764"/>
      <point x="86" y="546" type="curve" smooth="yes"/>
      <point x="86" y="376"/>
      <point x="268" y="199"/>
      <point x="445" y="144" type="curve"/>
      <point x="214" y="-2" type="line"/>
      <point x="405" y="-204" type="line"/>
      <point x="781" y="123" type="line"/>
      <point x="781" y="-42" type="line"/>
      <point x="1078" y="-92" type="line"/>
      <point x="1078" y="998" type="line"/>
      <point x="1282" y="998" type="line"/>
    </contour>
    <contour>
      <point x="643" y="672"/>
      <point x="711" y="661"/>
      <point x="781" y="637" type="curve"/>
      <point x="781" y="444" type="line"/>
      <point x="762" y="429"/>
      <point x="744" y="416"/>
      <point x="723" y="404" type="curve"/>
      <point x="712" y="424"/>
      <point x="699" y="435"/>
      <point x="679" y="455" type="curve" smooth="yes"/>
      <point x="559" y="579" type="line" smooth="yes"/>
      <point x="517" y="624"/>
      <point x="487" y="648"/>
      <point x="458" y="663" type="curve"/>
      <point x="481" y="672"/>
      <point x="524" y="672"/>
      <point x="556" y="672" type="curve" smooth="yes"/>
    </contour>
    <contour>
      <point x="379" y="332"/>
      <point x="345" y="429"/>
      <point x="345" y="481" type="curve" smooth="yes"/>
      <point x="345" y="524"/>
      <point x="354" y="555"/>
      <point x="376" y="599" type="curve"/>
      <point x="392" y="571"/>
      <point x="403" y="562"/>
      <point x="432" y="533" type="curve" smooth="yes"/>
      <point x="583" y="379" type="line" smooth="yes"/>
      <point x="597" y="365"/>
      <point x="621" y="343"/>
      <point x="635" y="337" type="curve"/>
      <point x="587" y="308"/>
      <point x="531" y="301"/>
      <point x="480" y="301" type="curve" smooth="yes"/>
      <point x="468" y="301"/>
      <point x="451" y="301"/>
      <point x="432" y="304" type="curve" smooth="yes"/>
      <point x="413" y="307"/>
      <point x="398" y="311"/>
      <point x="395" y="314" type="curve"/>
    </contour>
    <contour>
      <point x="930" y="1187" type="move" name="top"/>
    </contour>
    <contour>
      <point x="930" y="0" type="move" name="bottom"/>
    </contour>
  </outline>
</glyph>
<glyph name="uni092D094D" format="1">
  <advance width="1001"/>
  <note>
    dBh.half
  </note>
  <outline>
    <contour>
      <point x="1177" y="574" type="line"/>
      <point x="778" y="574" type="line"/>
      <point x="783" y="641"/>
      <point x="787" y="706"/>
      <point x="787" y="766" type="curve" smooth="yes"/>
      <point x="787" y="880"/>
      <point x="762" y="985"/>
      <point x="680" y="1077" type="curve" smooth="yes"/>
      <point x="611" y="1156"/>
      <point x="525" y="1212"/>
      <point x="367" y="1212" type="curve" smooth="yes"/>
      <point x="234" y="1212"/>
      <point x="63" y="1151"/>
      <point x="63" y="980" type="curve" smooth="yes"/>
      <point x="63" y="824"/>
      <point x="208" y="704"/>
      <point x="499" y="698" type="curve"/>
      <point x="493" y="654"/>
      <point x="483" y="610"/>
      <point x="468" y="573" type="curve"/>
      <point x="381" y="573"/>
      <point x="231" y="566"/>
      <point x="231" y="497" type="curve" smooth="yes"/>
      <point x="231" y="407"/>
      <point x="446" y="145"/>
      <point x="574" y="145" type="curve" smooth="yes"/>
      <point x="634" y="145"/>
      <point x="707" y="276"/>
      <point x="732" y="336" type="curve"/>
      <point x="1217" y="336" type="line"/>
    </contour>
    <contour>
      <point x="1048" y="998" type="line"/>
      <point x="1002" y="1187" type="line"/>
      <point x="820" y="1187" type="line"/>
      <point x="870" y="998" type="line"/>
    </contour>
    <contour>
      <point x="339" y="1045"/>
      <point x="366" y="1080"/>
      <point x="418" y="1080" type="curve" smooth="yes"/>
      <point x="459" y="1080"/>
      <point x="490" y="1053"/>
      <point x="499" y="984" type="curve" smooth="yes"/>
      <point x="505" y="944"/>
      <point x="511" y="899"/>
      <point x="511" y="859" type="curve" smooth="yes"/>
      <point x="511" y="833"/>
      <point x="510" y="804"/>
      <point x="508" y="774" type="curve"/>
      <point x="404" y="812"/>
      <point x="339" y="899"/>
      <point x="339" y="1000" type="curve" smooth="yes"/>
    </contour>
  </outline>
</glyph>
<glyph name="uni092D094D0930" format="1">
  <advance width="1452"/>
  <note>
    dBhRa
  </note>
  <outline>
    <contour>
      <point x="1079" y="441" type="line"/>
      <point x="491" y="10" type="line"/>
      <point x="708" y="-165" type="line"/>
      <point x="1169" y="341" type="line"/>
    </contour>
    <component base="bhadeva" xOffset="-50"/>
    <contour>
      <point x="1212" y="1187" type="move" name="top"/>
    </contour>
    <contour>
      <point x="1212" y="0" type="move" name="bottom"/>
    </contour>
  </outline>
</glyph>
<glyph name="uni092D094D0930094D" format="1">
  <advance width="1001"/>
  <note>
    dBhR.half
  </note>
  <outline>
    <contour>
      <point x="1127" y="430" type="line"/>
      <point x="600" y="-36" type="line"/>
      <point x="828" y="-200" type="line"/>
      <point x="1236" y="341" type="line"/>
    </contour>
    <component base="uni092D094D"/>
  </outline>
</glyph>
<glyph name="uni092E094D" format="1">
  <advance width="818"/>
  <note>
    dM.half
  </note>
  <outline>
    <contour>
      <point x="1042" y="366" type="line"/>
      <point x="1011" y="576" type="line"/>
      <point x="561" y="576" type="line"/>
      <point x="561" y="998" type="line"/>
      <point x="864" y="998" type="line"/>
      <point x="819" y="1187" type="line"/>
      <point x="-52" y="1187" type="line"/>
      <point x="-1" y="998" type="line"/>
      <point x="274" y="998" type="line"/>
      <point x="274" y="576" type="line"/>
      <point x="265" y="576" type="line" smooth="yes"/>
      <point x="208" y="576"/>
      <point x="80" y="569"/>
      <point x="80" y="515" type="curve" smooth="yes"/>
      <point x="80" y="384"/>
      <point x="345" y="130"/>
      <point x="476" y="130" type="curve" smooth="yes"/>
      <point x="546" y="130"/>
      <point x="559" y="277"/>
      <point x="559" y="366" type="curve"/>
    </contour>
  </outline>
</glyph>
<glyph name="uni092E094D0932.loclMAR" format="1">
  <advance width="1272"/>
  <note>
    dMLa.MAR
  </note>
  <outline>
    <contour>
      <point x="1083" y="998" type="line"/>
      <point x="1321" y="998" type="line"/>
      <point x="1275" y="1187" type="line"/>
      <point x="-49" y="1187" type="line"/>
      <point x="-1" y="998" type="line"/>
      <point x="244" y="998" type="line"/>
      <point x="244" y="716" type="line"/>
      <point x="235" y="716" type="line" smooth="yes"/>
      <point x="178" y="716"/>
      <point x="50" y="709"/>
      <point x="50" y="655" type="curve" smooth="yes"/>
      <point x="50" y="514"/>
      <point x="296" y="300"/>
      <point x="427" y="300" type="curve" smooth="yes"/>
      <point x="497" y="300"/>
      <point x="520" y="427"/>
      <point x="520" y="516" type="curve"/>
      <point x="792" y="516" type="line"/>
      <point x="792" y="232" type="line"/>
      <point x="722" y="216"/>
      <point x="658" y="180"/>
      <point x="612" y="126" type="curve"/>
      <point x="604" y="118" type="line"/>
      <point x="511" y="193"/>
      <point x="420" y="236"/>
      <point x="337" y="236" type="curve" smooth="yes"/>
      <point x="187" y="236"/>
      <point x="41" y="155"/>
      <point x="41" y="-30" type="curve" smooth="yes"/>
      <point x="41" y="-222"/>
      <point x="188" y="-381"/>
      <point x="510" y="-544" type="curve"/>
      <point x="571" y="-446" type="line"/>
      <point x="378" y="-296"/>
      <point x="322" y="-192"/>
      <point x="322" y="-74" type="curve" smooth="yes"/>
      <point x="322" y="24"/>
      <point x="379" y="77"/>
      <point x="455" y="77" type="curve" smooth="yes"/>
      <point x="483" y="77"/>
      <point x="524" y="66"/>
      <point x="562" y="51" type="curve"/>
      <point x="537" y="-1"/>
      <point x="523" y="-63"/>
      <point x="513" y="-135" type="curve"/>
      <point x="761" y="-189" type="line"/>
      <point x="797" y="44"/>
      <point x="869" y="98"/>
      <point x="944" y="98" type="curve" smooth="yes"/>
      <point x="985" y="97"/>
      <point x="1019" y="84"/>
      <point x="1028" y="71" type="curve"/>
      <point x="1040" y="55"/>
      <point x="1046" y="6"/>
      <point x="1046" y="-17" type="curve" smooth="yes"/>
      <point x="1046" y="-182"/>
      <point x="899" y="-288"/>
      <point x="750" y="-406" type="curve"/>
      <point x="993" y="-553" type="line"/>
      <point x="1193" y="-397"/>
      <point x="1241" y="-259"/>
      <point x="1241" y="-137" type="curve" smooth="yes"/>
      <point x="1241" y="-30"/>
      <point x="1175" y="86"/>
      <point x="1083" y="161" type="curve"/>
    </contour>
    <contour>
      <point x="522" y="716" type="line"/>
      <point x="522" y="998" type="line"/>
      <point x="792" y="998" type="line"/>
      <point x="792" y="716" type="line"/>
    </contour>
    <contour>
      <point x="938" y="1187" type="move" name="top"/>
    </contour>
    <contour>
      <point x="906" y="-420" type="move" name="bottom"/>
    </contour>
  </outline>
</glyph>
<glyph name="uni0930094D0902" format="1">
  <advance width="512"/>
  <note>
    dRephAnusvara
  </note>
  <outline>
    <component base="anusvaradeva" xOffset="250" yOffset="215" xScale="0.800" yScale="0.800"/>
    <component base="uni0930094D" yOffset="30"/>
    <contour>
      <point x="256" y="1187" type="move" name="_top"/>
    </contour>
  </outline>
</glyph>
<glyph name="uni0931094D" format="1">
  <advance width="637"/>
  <note>
    dRr.half
  </note>
  <outline>
    <contour>
      <point x="-1" y="998" type="line"/>
      <point x="686" y="998" type="line"/>
      <point x="637" y="1187" type="line"/>
      <point x="-51" y="1187" type="line"/>
    </contour>
    <contour>
      <point x="300" y="326"/>
      <point x="414" y="290"/>
      <point x="541" y="290" type="curve" smooth="yes"/>
      <point x="653" y="290"/>
      <point x="757" y="313"/>
      <point x="832" y="370" type="curve"/>
      <point x="809" y="674" type="line"/>
      <point x="671" y="555"/>
      <point x="580" y="523"/>
      <point x="448" y="523" type="curve" smooth="yes"/>
      <point x="376" y="523"/>
      <point x="241" y="538"/>
      <point x="137" y="662" type="curve"/>
      <point x="54" y="602" type="line"/>
      <point x="75" y="558"/>
      <point x="119" y="489"/>
      <point x="178" y="435" type="curve" smooth="yes"/>
    </contour>
  </outline>
</glyph>
<glyph name="uni0932094D0930" format="1">
  <advance width="1490"/>
  <note>
    dLRa
  </note>
  <outline>
    <contour>
      <point x="1130" y="497" type="line"/>
      <point x="651" y="82" type="line"/>
      <point x="868" y="-71" type="line"/>
      <point x="1220" y="423" type="line"/>
    </contour>
    <component base="uni0932"/>
  </outline>
</glyph>
<glyph name="uni0932094D0932.loclMAR" format="1">
  <advance width="1363"/>
  <note>
    dLLa.MAR
  </note>
  <outline>
    <contour>
      <point x="1255" y="274"/>
      <point x="1267" y="362"/>
      <point x="1267" y="478" type="curve" smooth="yes"/>
      <point x="1267" y="588"/>
      <point x="1197" y="709"/>
      <point x="1100" y="783" type="curve"/>
      <point x="1105" y="812"/>
      <point x="1106" y="844"/>
      <point x="1104" y="871" type="curve" smooth="yes"/>
      <point x="1101" y="916"/>
      <point x="1090" y="958"/>
      <point x="1073" y="998" type="curve"/>
      <point x="1407" y="998" type="line"/>
      <point x="1366" y="1187" type="line"/>
      <point x="-52" y="1187" type="line"/>
      <point x="0" y="998" type="line"/>
      <point x="883" y="998" type="line"/>
      <point x="884" y="984"/>
      <point x="884" y="971"/>
      <point x="883" y="957" type="curve" smooth="yes"/>
      <point x="881" y="924"/>
      <point x="876" y="889"/>
      <point x="867" y="855" type="curve"/>
      <point x="780" y="847"/>
      <point x="694" y="808"/>
      <point x="638" y="741" type="curve"/>
      <point x="635" y="737" type="line"/>
      <point x="543" y="810"/>
      <point x="454" y="851"/>
      <point x="373" y="851" type="curve" smooth="yes"/>
      <point x="223" y="851"/>
      <point x="77" y="770"/>
      <point x="77" y="585" type="curve" smooth="yes"/>
      <point x="77" y="454"/>
      <point x="151" y="338"/>
      <point x="295" y="229" type="curve"/>
      <point x="185" y="200"/>
      <point x="97" y="119"/>
      <point x="97" y="-25" type="curve" smooth="yes"/>
      <point x="97" y="-219"/>
      <point x="242" y="-395"/>
      <point x="566" y="-558" type="curve"/>
      <point x="626" y="-461" type="line"/>
      <point x="434" y="-311"/>
      <point x="378" y="-187"/>
      <point x="378" y="-69" type="curve" smooth="yes"/>
      <point x="378" y="29"/>
      <point x="435" y="82"/>
      <point x="511" y="82" type="curve" smooth="yes"/>
      <point x="538" y="82"/>
      <point x="576" y="72"/>
      <point x="613" y="58" type="curve"/>
      <point x="588" y="20"/>
      <point x="570" y="-30"/>
      <point x="559" y="-130" type="curve"/>
      <point x="807" y="-185" type="line"/>
      <point x="843" y="49"/>
      <point x="915" y="103"/>
      <point x="990" y="103" type="curve" smooth="yes"/>
      <point x="1037" y="103"/>
      <point x="1063" y="87"/>
      <point x="1074" y="76" type="curve" smooth="yes"/>
      <point x="1087" y="63"/>
      <point x="1092" y="11"/>
      <point x="1092" y="-12" type="curve" smooth="yes"/>
      <point x="1092" y="-179"/>
      <point x="932" y="-296"/>
      <point x="785" y="-409" type="curve"/>
      <point x="1027" y="-570" type="line"/>
      <point x="1229" y="-412"/>
      <point x="1287" y="-274"/>
      <point x="1287" y="-132" type="curve" smooth="yes"/>
      <point x="1287" y="-24"/>
      <point x="1231" y="93"/>
      <point x="1146" y="168" type="curve"/>
    </contour>
    <contour>
      <point x="780" y="187"/>
      <point x="726" y="162"/>
      <point x="681" y="129" type="curve"/>
      <point x="654" y="146"/>
      <point x="626" y="161"/>
      <point x="601" y="176" type="curve" smooth="yes"/>
      <point x="408" y="287"/>
      <point x="358" y="427"/>
      <point x="358" y="541" type="curve" smooth="yes"/>
      <point x="358" y="639"/>
      <point x="415" y="692"/>
      <point x="491" y="692" type="curve" smooth="yes"/>
      <point x="517" y="692"/>
      <point x="554" y="683"/>
      <point x="590" y="669" type="curve"/>
      <point x="565" y="617"/>
      <point x="550" y="553"/>
      <point x="538" y="480" type="curve"/>
      <point x="786" y="425" type="line"/>
      <point x="823" y="659"/>
      <point x="895" y="713"/>
      <point x="970" y="713" type="curve" smooth="yes"/>
      <point x="1018" y="713"/>
      <point x="1044" y="700"/>
      <point x="1054" y="688" type="curve" smooth="yes"/>
      <point x="1066" y="674"/>
      <point x="1072" y="621"/>
      <point x="1072" y="598" type="curve" smooth="yes"/>
      <point x="1072" y="444"/>
      <point x="952" y="293"/>
      <point x="799" y="198" type="curve" smooth="yes"/>
    </contour>
    <contour>
      <point x="951" y="1187" type="move" name="top"/>
    </contour>
    <contour>
      <point x="984" y="-390" type="move" name="bottom"/>
    </contour>
  </outline>
</glyph>
<glyph name="uni0937094D091F" format="1">
  <advance width="1167"/>
  <note>
    dSsTta
  </note>
  <outline>
    <contour>
      <point x="482" y="50"/>
      <point x="427" y="65"/>
      <point x="419" y="76" type="curve" smooth="yes"/>
      <point x="399" y="105"/>
      <point x="389" y="155"/>
      <point x="389" y="209" type="curve" smooth="yes"/>
      <point x="389" y="319"/>
      <point x="460" y="366"/>
      <point x="645" y="366" type="curve" smooth="yes"/>
      <point x="975" y="366" type="line"/>
      <point x="985" y="599"/>
      <point x="989" y="763"/>
      <point x="966" y="998" type="curve"/>
      <point x="1219" y="998" type="line"/>
      <point x="1175" y="1187" type="line"/>
      <point x="-47" y="1187" type="line"/>
      <point x="-1" y="998" type="line"/>
      <point x="86" y="998" type="line"/>
      <point x="86" y="740" type="line" smooth="yes"/>
      <point x="86" y="616"/>
      <point x="141" y="538"/>
      <point x="216" y="488" type="curve"/>
      <point x="130" y="440"/>
      <point x="100" y="366"/>
      <point x="100" y="286" type="curve" smooth="yes"/>
      <point x="100" y="64"/>
      <point x="352" y="-132"/>
      <point x="679" y="-132" type="curve" smooth="yes"/>
      <point x="875" y="-132"/>
      <point x="1024" y="-83"/>
      <point x="1165" y="59" type="curve"/>
      <point x="980" y="281" type="line"/>
      <point x="819" y="110"/>
      <point x="667" y="50"/>
      <point x="546" y="50" type="curve" smooth="yes"/>
    </contour>
    <contour>
      <point x="699" y="692" type="line"/>
      <point x="485" y="950" type="line" smooth="yes"/>
      <point x="471" y="967"/>
      <point x="452" y="984"/>
      <point x="434" y="998" type="curve"/>
      <point x="704" y="998" type="line"/>
      <point x="706" y="934"/>
      <point x="707" y="796"/>
      <point x="703" y="687" type="curve"/>
    </contour>
    <contour>
      <point x="396" y="578"/>
      <point x="383" y="659"/>
      <point x="383" y="763" type="curve" smooth="yes"/>
      <point x="383" y="847" type="line"/>
      <point x="388" y="840"/>
      <point x="393" y="833"/>
      <point x="398" y="826" type="curve" smooth="yes"/>
      <point x="606" y="571" type="line" smooth="yes"/>
      <point x="613" y="562"/>
      <point x="622" y="553"/>
      <point x="631" y="546" type="curve"/>
      <point x="510" y="546" type="line"/>
      <point x="498" y="546" type="line"/>
      <point x="498" y="546"/>
      <point x="498" y="546"/>
      <point x="497" y="546" type="curve"/>
      <point x="483" y="546" type="line"/>
      <point x="456" y="547"/>
      <point x="418" y="556"/>
      <point x="413" y="561" type="curve" smooth="yes"/>
    </contour>
    <contour>
      <point x="834" y="1187" type="move" name="top"/>
    </contour>
    <contour>
      <point x="693" y="-120" type="move" name="bottom"/>
    </contour>
  </outline>
</glyph>
<glyph name="uni0937094D091F094D0935" format="1">
  <advance width="1174"/>
  <outline>
    <contour>
      <point x="738" y="-26" type="line"/>
      <point x="738" y="-119" type="line"/>
      <point x="575" y="-21"/>
      <point x="516" y="11"/>
      <point x="388" y="11" type="curve" smooth="yes"/>
      <point x="251" y="13"/>
      <point x="92" y="-58"/>
      <point x="92" y="-242" type="curve" smooth="yes"/>
      <point x="92" y="-459"/>
      <point x="359" y="-614"/>
      <point x="561" y="-614" type="curve" smooth="yes"/>
      <point x="606" y="-614"/>
      <point x="668" y="-607"/>
      <point x="738" y="-577" type="curve"/>
      <point x="738" y="-695" type="line"/>
      <point x="995" y="-753" type="line"/>
      <point x="995" y="-26" type="line"/>
    </contour>
    <contour>
      <point x="444" y="-435"/>
      <point x="433" y="-436"/>
      <point x="428" y="-427" type="curve"/>
      <point x="406" y="-392"/>
      <point x="397" y="-340"/>
      <point x="397" y="-300" type="curve" smooth="yes"/>
      <point x="397" y="-223"/>
      <point x="447" y="-184"/>
      <point x="539" y="-184" type="curve" smooth="yes"/>
      <point x="603" y="-184"/>
      <point x="667" y="-197"/>
      <point x="738" y="-219" type="curve"/>
      <point x="738" y="-292" type="line"/>
      <point x="654" y="-410"/>
      <point x="525" y="-435"/>
      <point x="456" y="-435" type="curve" smooth="yes"/>
    </contour>
    <component base="uni0937094D091F"/>
    <contour>
      <point x="834" y="1187" type="move" name="top"/>
    </contour>
    <contour>
      <point x="863" y="-640" type="move" name="bottom"/>
    </contour>
  </outline>
</glyph>
<glyph name="uni0937094D0920094D0935" format="1">
  <advance width="1174"/>
  <note>
    dSsTtVa
  </note>
  <outline>
    <contour>
      <point x="738" y="-32" type="line"/>
      <point x="738" y="-125" type="line"/>
      <point x="575" y="-27"/>
      <point x="516" y="5"/>
      <point x="388" y="5" type="curve" smooth="yes"/>
      <point x="251" y="7"/>
      <point x="92" y="-64"/>
      <point x="92" y="-248" type="curve" smooth="yes"/>
      <point x="92" y="-465"/>
      <point x="359" y="-620"/>
      <point x="561" y="-620" type="curve" smooth="yes"/>
      <point x="606" y="-620"/>
      <point x="668" y="-613"/>
      <point x="738" y="-583" type="curve"/>
      <point x="738" y="-701" type="line"/>
      <point x="995" y="-759" type="line"/>
      <point x="995" y="-32" type="line"/>
    </contour>
    <contour>
      <point x="444" y="-441"/>
      <point x="433" y="-442"/>
      <point x="428" y="-433" type="curve"/>
      <point x="406" y="-398"/>
      <point x="397" y="-346"/>
      <point x="397" y="-306" type="curve" smooth="yes"/>
      <point x="397" y="-229"/>
      <point x="447" y="-190"/>
      <point x="539" y="-190" type="curve" smooth="yes"/>
      <point x="603" y="-190"/>
      <point x="667" y="-203"/>
      <point x="738" y="-225" type="curve"/>
      <point x="738" y="-298" type="line"/>
      <point x="654" y="-416"/>
      <point x="525" y="-441"/>
      <point x="456" y="-441" type="curve" smooth="yes"/>
    </contour>
    <component base="uni0937094D0920"/>
    <contour>
      <point x="837" y="1187" type="move" name="top"/>
    </contour>
    <contour>
      <point x="863" y="-640" type="move" name="bottom"/>
    </contour>
  </outline>
</glyph>
<glyph name="uni0939094D092E" format="1">
  <advance width="1588"/>
  <note>
    dHMa
  </note>
  <outline>
    <contour>
      <point x="1640" y="998" type="line"/>
      <point x="1593" y="1187" type="line"/>
      <point x="-58" y="1187" type="line"/>
      <point x="-9" y="998" type="line"/>
      <point x="595" y="998" type="line"/>
      <point x="599" y="971"/>
      <point x="601" y="945"/>
      <point x="601" y="919" type="curve" smooth="yes"/>
      <point x="601" y="900"/>
      <point x="600" y="881"/>
      <point x="598" y="862" type="curve"/>
      <point x="356" y="862" type="line" smooth="yes"/>
      <point x="211" y="862"/>
      <point x="85" y="826"/>
      <point x="85" y="693" type="curve" smooth="yes"/>
      <point x="85" y="618"/>
      <point x="153" y="544"/>
      <point x="236" y="477" type="curve"/>
      <point x="142" y="420"/>
      <point x="72" y="335"/>
      <point x="72" y="217" type="curve" smooth="yes"/>
      <point x="72" y="-123"/>
      <point x="403" y="-303"/>
      <point x="828" y="-355" type="curve"/>
      <point x="860" y="-235" type="line"/>
      <point x="459" y="-150"/>
      <point x="395" y="25"/>
      <point x="395" y="171" type="curve" smooth="yes"/>
      <point x="395" y="308"/>
      <point x="489" y="396"/>
      <point x="625" y="396" type="curve" smooth="yes"/>
      <point x="681" y="396"/>
      <point x="734" y="393"/>
      <point x="751" y="380" type="curve" smooth="yes"/>
      <point x="759" y="374"/>
      <point x="761" y="334"/>
      <point x="761" y="306" type="curve" smooth="yes"/>
      <point x="761" y="294" type="line"/>
      <point x="748" y="294" type="line" smooth="yes"/>
      <point x="643" y="294"/>
      <point x="568" y="280"/>
      <point x="568" y="214" type="curve" smooth="yes"/>
      <point x="568" y="147"/>
      <point x="830" y="-83"/>
      <point x="980" y="-83" type="curve" smooth="yes"/>
      <point x="1033" y="-83"/>
      <point x="1039" y="13"/>
      <point x="1039" y="83" type="curve"/>
      <point x="1206" y="83" type="line"/>
      <point x="1206" y="-69" type="line"/>
      <point x="1504" y="-134" type="line"/>
      <point x="1504" y="998" type="line"/>
    </contour>
    <contour>
      <point x="1206" y="298" type="line"/>
      <point x="1040" y="298" type="line"/>
      <point x="1040" y="315" type="line"/>
      <point x="1030" y="479"/>
      <point x="778" y="573"/>
      <point x="599" y="573" type="curve" smooth="yes"/>
      <point x="528" y="573"/>
      <point x="439" y="560"/>
      <point x="355" y="531" type="curve"/>
      <point x="353" y="548"/>
      <point x="353" y="563"/>
      <point x="355" y="583" type="curve" smooth="yes"/>
      <point x="365" y="649"/>
      <point x="413" y="672"/>
      <point x="505" y="672" type="curve" smooth="yes"/>
      <point x="883" y="672" type="line"/>
      <point x="890" y="715"/>
      <point x="891" y="757"/>
      <point x="891" y="799" type="curve" smooth="yes"/>
      <point x="891" y="864"/>
      <point x="880" y="929"/>
      <point x="864" y="998" type="curve"/>
      <point x="1206" y="998" type="line"/>
    </contour>
    <contour>
      <point x="1355" y="1187" type="move" name="top"/>
    </contour>
    <contour>
      <point x="1355" y="-58" type="move" name="bottom"/>
    </contour>
  </outline>
</glyph>
<glyph name="uni093F.01" format="1">
  <advance width="557"/>
  <note>
    dMatraI.1
  </note>
  <outline>
    <contour>
      <point x="655" y="1470"/>
      <point x="886" y="1388"/>
      <point x="1152" y="1211" type="curve"/>
      <point x="1238" y="1328" type="line"/>
      <point x="1006" y="1517"/>
      <point x="654" y="1712"/>
      <point x="381" y="1712" type="curve" smooth="yes"/>
      <point x="165" y="1712"/>
      <point x="61" y="1611"/>
      <point x="61" y="1457" type="curve" smooth="yes"/>
      <point x="61" y="1376"/>
      <point x="121" y="1273"/>
      <point x="179" y="1187" type="curve"/>
      <point x="-54" y="1187" type="line"/>
      <point x="-1" y="998" type="line"/>
      <point x="146" y="998" type="line"/>
      <point x="146" y="-41" type="line"/>
      <point x="443" y="-97" type="line"/>
      <point x="443" y="998" type="line"/>
      <point x="605" y="998" type="line"/>
      <point x="559" y="1187" type="line"/>
      <point x="375" y="1187" type="line"/>
      <point x="352" y="1232"/>
      <point x="334" y="1288"/>
      <point x="334" y="1329" type="curve" smooth="yes"/>
      <point x="334" y="1437"/>
      <point x="426" y="1470"/>
      <point x="505" y="1470" type="curve" smooth="yes"/>
    </contour>
    <contour>
      <point x="1238" y="1328" type="move" name="imatra"/>
    </contour>
    <contour>
      <point x="1200" y="1276" type="move" name="top"/>
    </contour>
  </outline>
</glyph>
<glyph name="uni093F.20" format="1">
  <advance width="557"/>
  <note>
    dMatraI.20
  </note>
  <outline>
    <contour>
      <point x="237" y="1726"/>
      <point x="67" y="1648"/>
      <point x="62" y="1440" type="curve" smooth="yes"/>
      <point x="60" y="1358"/>
      <point x="121" y="1262"/>
      <point x="177" y="1187" type="curve"/>
      <point x="-52" y="1187" type="line"/>
      <point x="-1" y="998" type="line"/>
      <point x="145" y="998" type="line"/>
      <point x="145" y="-42" type="line"/>
      <point x="442" y="-98" type="line"/>
      <point x="442" y="998" type="line"/>
      <point x="604" y="998" type="line"/>
      <point x="558" y="1187" type="line"/>
      <point x="379" y="1187" type="line"/>
      <point x="358" y="1229"/>
      <point x="342" y="1273"/>
      <point x="342" y="1314" type="curve" smooth="yes"/>
      <point x="342" y="1466"/>
      <point x="481" y="1511"/>
      <point x="833" y="1511" type="curve" smooth="yes"/>
      <point x="1473" y="1511"/>
      <point x="2494" y="1468"/>
      <point x="3293" y="1219" type="curve"/>
      <point x="3375" y="1334" type="line"/>
      <point x="2629" y="1584"/>
      <point x="1407" y="1726"/>
      <point x="705" y="1726" type="curve" smooth="yes"/>
    </contour>
    <contour>
      <point x="3375" y="1334" type="move" name="imatra"/>
    </contour>
    <contour>
      <point x="3330" y="1276" type="move" name="top"/>
    </contour>
  </outline>
</glyph>
<glyph name="uni09470930094D" format="1">
  <advance width="512"/>
  <note>
    dMatraEReph
  </note>
  <outline>
    <contour>
      <point x="320" y="1243" type="line"/>
      <point x="305" y="1290"/>
      <point x="284" y="1351"/>
      <point x="284" y="1394" type="curve" smooth="yes"/>
      <point x="284" y="1483"/>
      <point x="351" y="1563"/>
      <point x="456" y="1563" type="curve" smooth="yes"/>
      <point x="507" y="1563"/>
      <point x="559" y="1548"/>
      <point x="652" y="1480" type="curve"/>
      <point x="590" y="1665" type="line"/>
      <point x="509" y="1716"/>
      <point x="437" y="1743"/>
      <point x="359" y="1743" type="curve" smooth="yes"/>
      <point x="236" y="1743"/>
      <point x="132" y="1676"/>
      <point x="132" y="1500" type="curve" smooth="yes"/>
      <point x="132" y="1408"/>
      <point x="161" y="1326"/>
      <point x="209" y="1239" type="curve"/>
    </contour>
    <component base="evowelsigndeva" xOffset="-17"/>
    <contour>
      <point x="256" y="1187" type="move" name="_top"/>
    </contour>
  </outline>
</glyph>
<glyph name="uni09480930094D" format="1">
  <advance width="512"/>
  <note>
    dMatraAiReph
  </note>
  <outline>
    <contour>
      <point x="349" y="1243" type="line"/>
      <point x="333" y="1290"/>
      <point x="317" y="1361"/>
      <point x="317" y="1404" type="curve" smooth="yes"/>
      <point x="317" y="1493"/>
      <point x="372" y="1563"/>
      <point x="477" y="1563" type="curve" smooth="yes"/>
      <point x="524" y="1563"/>
      <point x="572" y="1544"/>
      <point x="660" y="1487" type="curve"/>
      <point x="602" y="1663" type="line"/>
      <point x="529" y="1716"/>
      <point x="468" y="1744"/>
      <point x="382" y="1744" type="curve" smooth="yes"/>
      <point x="269" y="1744"/>
      <point x="133" y="1666"/>
      <point x="133" y="1500" type="curve" smooth="yes"/>
      <point x="133" y="1408"/>
      <point x="172" y="1326"/>
      <point x="220" y="1239" type="curve"/>
    </contour>
    <component base="aivowelsigndeva"/>
    <contour>
      <point x="256" y="1187" type="move" name="_top"/>
    </contour>
  </outline>
</glyph>
<glyph name="uni09480930094D0902" format="1">
  <advance width="512"/>
  <note>
    dMatraAiRephAnusvara
  </note>
  <outline>
    <component base="anusvaradeva" xOffset="298" yOffset="175" xScale="0.800" yScale="0.800"/>
    <component base="uni09480930094D"/>
    <contour>
      <point x="256" y="1187" type="move" name="_top"/>
    </contour>
  </outline>
</glyph>
